<?xml version="1.0" encoding="utf-8"?>
<!-- Generator: Adobe Illustrator 16.2.1, SVG Export Plug-In . SVG Version: 6.00 Build 0)  -->
<!DOCTYPE svg PUBLIC "-//W3C//DTD SVG 1.1//EN" "http://www.w3.org/Graphics/SVG/1.1/DTD/svg11.dtd">
<svg version="1.1" id="Layer_1" xmlns="http://www.w3.org/2000/svg" xmlns:xlink="http://www.w3.org/1999/xlink" x="0px" y="0px"
	 width="656.579px" height="308.713px" viewBox="0 0 656.579 308.713" enable-background="new 0 0 656.579 308.713"
	 xml:space="preserve">
<g id="Layer_1_1_">
	<g>
		<path d="M158.255,171.082h-0.646c0,0.431-1.075,1.776-3.224,4.037h-2.419L151,175.44c-2.795,2.8-4.786,4.199-5.967,4.199
			l-3.224-0.646h-0.646c-1.397,0-2.795,0.834-4.193,2.503c-1.397,1.669-2.904,2.501-4.513,2.501c-0.646,0-1.83-0.321-3.55-0.969
			c-1.292,1.725-3.28,2.585-5.964,2.585l-8.871,4.682c-1.075,0.433-1.962,0.862-2.662,1.293c-0.699,0.431-1.746,0.7-3.143,0.808
			c-1.398,0.107-2.904,0.619-4.517,1.533c-1.612,0.916-2.901,1.372-3.868,1.372l-3.708-1.131c-3.547,2.69-7.122,4.254-10.725,4.683
			c-3.603,0.433-6.209,0.864-7.819,1.293l-4.516,0.324l-6.933,1.774c-1.615,0.646-3.494,0.969-5.644,0.969
			c-2.689,0-5.215-1.022-7.579-3.067c-1.292,0.861-2.634,1.992-4.031,3.392l-0.969,0.321c-0.217,0-0.646-0.161-1.289-0.482
			c-0.646-0.324-1.183-0.484-1.612-0.484c-0.217,0-0.621,0.16-1.211,0.484c-0.59,0.321-1.208,0.482-1.854,0.482
			c-0.752,0-2.473-1.131-5.16-3.389c-0.752,0.645-1.451,0.969-2.097,0.969c-2.795,0-4.998-1.938-6.61-5.813l-2.742,0.97
			c-0.429,0-1.075-0.941-1.935-2.826c-0.861-1.883-1.29-3.578-1.29-5.086c0-4.091,8.709-11.679,26.133-22.769
			c17.423-11.086,28.34-17.276,32.755-18.568l1.615-1.13c0.646-0.646,1.344-0.969,2.099-0.969c0.214,0,0.751,0.217,1.614,0.646
			h0.969c1.292,0,2.206-0.751,2.745-2.261c0.537-1.506,1.829-2.26,3.875-2.26l1.615-0.323l18.246-10.011
			c0.86-0.429,3.82-1.559,8.881-3.391c5.058-1.83,8.53-3.254,10.415-4.279c1.882-1.021,4.816-1.857,8.8-2.503l1.615-0.969
			c1.72-0.752,3.173-1.13,4.359-1.13c7.21,0,10.818,3.552,10.818,10.657l-2.583,5.167c-1.615,3.661-3.823,5.49-6.62,5.49
			c-0.863,0-1.509-0.295-1.938-0.888c-0.432-0.59-0.807-0.888-1.13-0.888l-8.234,0.323l-3.553-1.292
			c-0.108,0.108-1.347,0.54-3.714,1.292h-2.583c-0.432,0-1.885,0.807-4.36,2.422l-4.198,1.614
			c-4.629,0.863-10.979,3.124-19.053,6.782c-8.074,3.66-12.756,5.383-14.048,5.167c-2.046,0.861-3.769,2.072-5.167,3.633
			c-1.4,1.562-4.092,2.986-8.073,4.277c-14.532,7.214-21.798,12.272-21.798,15.18c0,2.479,6.667,3.713,20.004,3.713
			c6.236,0,10.109-0.59,11.617-1.775l17.262-3.875l1.615-1.775h3.386c1.398,0,2.904-0.592,4.519-1.777
			c1.612-1.182,3.603-1.775,5.97-1.775c1.503,0,2.981-0.482,4.435-1.451c1.453-0.969,2.662-1.534,3.63-1.696
			c0.968-0.162,1.801-0.457,2.5-0.89c0.699-0.428,2.5-0.992,5.404-1.693c2.904-0.699,4.733-1.641,5.487-2.825l1.936-0.97
			c0.646-0.43,1.668-1.021,3.065-1.775h1.938c0.214,0,1.236-0.753,3.065-2.261l7.581-4.36h1.938c2.149,0,4.249-1.829,6.292-5.49
			c1.289-1.183,2.957-1.776,5-1.776c3.121-1.507,6.62-4.36,10.496-8.558l4.359-2.906c2.583-2.367,4.574-4.36,5.974-5.974
			c0.214,0,0.323-0.106,0.323-0.323l2.583,0.323l0.323-0.969c0-0.215-0.109-0.591-0.323-1.13v-0.646c0-0.86,0.429-1.506,1.292-1.938
			c0.861-0.429,1.292-0.86,1.292-1.292l-0.969-3.391c0.429-0.429,0.646-1.075,0.646-1.938c0-2.152-1.078-3.929-3.229-5.329
			l-0.323-0.969v-1.292c-1.077-0.429-2.316-0.751-3.714-0.969c-0.863-2.367-3.688-4.521-8.477-6.458
			c-4.791-1.938-11.808-3.819-21.051-5.651l-13.7-2.745l-6.607,0.646c-1.075,0-2.659-0.214-4.753-0.646
			c-2.097-0.429-3.627-0.646-4.594-0.646s-2.47-0.375-4.511-1.13c-2.902,0.969-4.783,1.453-5.642,1.453l-3.868-0.969l-4.672,0.646
			c-9.242,0-13.861-1.344-13.861-4.036c0-8.502,4.953-14.799,14.857-18.892c1.292-0.429,2.637-1.075,4.037-1.938l12.919-4.037
			c1.075-0.214,2.609-0.808,4.602-1.776c1.991-0.969,3.847-1.776,5.57-2.422l2.261-1.292l1.776-0.322
			c0.86-1.075,2.664-2.18,5.409-3.311c2.745-1.13,7.188-3.714,13.323-7.75c6.136-4.037,9.582-6.54,10.336-7.509
			c0.646-0.429,1.587-0.913,2.826-1.453c1.236-0.537,1.857-2.366,1.857-5.49c0-2.043-1.133-3.497-3.398-4.359l-1.94-1.292
			c-0.217-0.429-0.729-0.751-1.537-0.969c-0.81-0.214-1.672-0.509-2.588-0.888c-0.918-0.376-5.798-1.103-14.641-2.18l-9.383-1.615
			l-3.721,0.646l-3.883-0.323l-7.278,2.099l-3.073-2.099c0-0.214-0.217-0.323-0.648-0.323c-0.431,0-1.077,0.512-1.94,1.534
			c-0.863,1.024-1.782,1.534-2.75,1.534c-1.726,0-3.451-0.214-5.177-0.646h-0.646c-1.614,0-2.422,0.54-2.422,1.614
			c0,0.646,1.13,2.854,3.391,6.62l-0.646,2.907l0.323,3.713c0,0.863-0.807,2.261-2.417,4.198l-0.323,2.1
			c-0.646,1.938-2.019,5.222-4.113,9.849c-2.096,4.629-3.252,7.483-3.466,8.558l-5.641,11.303l-0.969,3.229
			c-2.473,6.353-4.244,10.442-5.319,12.271c-1.075,1.832-1.881,3.713-2.419,5.651c-0.537,1.938-1.559,3.822-3.062,5.651
			l-6.926,17.761c-0.537,0.754-1.342,1.562-2.414,2.422c-1.184,2.906-2.258,6.083-3.222,9.526c0,3.124-0.914,5.974-2.737,8.558
			l-0.646,3.068c0,0.431-0.432,1.428-1.289,2.987c-0.858,1.562-1.504,2.987-1.933,4.279c-0.432,1.292-1.077,1.938-1.938,1.938
			c-3.124,0-5.922-2.124-8.396-6.378c-2.478-4.251-4.198-6.646-5.167-7.185c-1.832-2.152-2.745-4.251-2.745-6.297
			c0-1.938,0.994-4.844,2.987-8.719c1.99-3.875,3.254-6.511,3.794-7.912c0.538-1.396,1.264-2.878,2.18-4.44
			c0.914-1.56,1.587-2.96,2.019-4.198c0.429-1.236,0.86-2.071,1.292-2.503c1.507-1.506,2.367-3.416,2.583-5.732
			c0.214-2.313,1.559-4.332,4.037-6.055c-0.217-0.538-0.323-1.131-0.323-1.776c0-0.86,0.646-1.938,1.938-3.229
			c1.292-1.292,2.125-2.556,2.503-3.794c0.375-1.236,0.78-2.286,1.211-3.149l1.292-0.646c0.214-0.86,0.375-1.91,0.484-3.148
			c0.106-1.237,0.913-1.963,2.422-2.18c0.538-4.304,1.425-6.646,2.664-7.024c1.236-0.375,2.664-1.211,4.279-2.503
			c-1.292-0.969-1.938-1.775-1.938-2.422c0-2.366,1.236-4.359,3.714-5.974c-0.217-0.538-0.512-1.05-0.888-1.534
			c-0.378-0.484-0.565-0.833-0.565-1.05l3.875-9.042c1.184-3.012,3.013-5.382,5.49-7.104h0.323l-0.969-4.359
			c0-1.507,1.614-2.851,4.844-4.037c1.183-1.292,1.668-2.475,1.453-3.552h-0.807l-2.583-0.969l-7.104,1.292
			c-1.938,0.432-4.629,1.292-8.073,2.584l-1.938-0.646H77.36c-0.431,0-1.292,0.431-2.583,1.292l-1.292,0.808
			c-0.646-0.323-1.292-0.484-1.938-0.484c-3.229,0-5.947,0.351-8.151,1.049c-2.205,0.701-4.112,0.943-5.725,0.727
			c-0.646,0.323-1.774,0.754-3.386,1.292h-1.612c-0.217,0-0.727,0.242-1.534,0.727c-0.807,0.484-2.606,1.105-5.401,1.857
			c-1.292-0.429-2.044-0.646-2.258-0.646c-0.432,0-1.882,0.888-4.354,2.664s-4.463,2.72-5.967,2.826
			c-1.506,0.108-2.662,0.484-3.469,1.13c-0.808,0.646-1.854,1.453-3.144,2.422l-1.935,2.907c-0.432,1.508-1.586,2.772-3.469,3.794
			c-1.882,1.025-3.199,1.913-3.951,2.665c-0.751,0.754-1.504,1.13-2.255,1.13c-1.292,0-2.77-0.941-4.435-2.826
			C8.833,49.31,8,47.721,8,46.429c0-3.553,0.941-6.323,2.823-8.316c1.882-1.991,3.739-4.062,5.571-6.216
			c3.227-2.475,7.773-4.304,13.636-5.49c5.864-1.183,9.334-2.099,10.41-2.745c0-0.214,0.106-0.323,0.323-0.323l2.745,0.969
			c0.646,0.432,1.829-0.268,3.549-2.099c9.898-3.875,17.161-5.813,21.789-5.813h0.646l4.357,0.323l3.391-1.292
			c2.366-0.86,4.14-1.292,5.326-1.292c1.29,0,2.15,0.189,2.582,0.565c0.428,0.378,0.86,0.565,1.291,0.565
			c0.646,0,1.398-0.751,2.261-2.26c2.043-1.075,4.867-1.776,8.472-2.099c3.603-0.323,6.537-0.808,8.797-1.453h0.966l3.875,0.323
			l8.23-1.453l10.975,0.807l5.003-0.807l4.198,0.323L148.575,8l14.686,2.26c5.488,0.754,11.137,2.881,16.947,6.378
			c5.81,3.499,9.577,6.191,11.297,8.073c1.721,1.885,2.584,4.602,2.584,8.154c0,7.75-5.324,15.42-15.965,23.009
			c-10.642,7.589-19.081,12.138-25.315,13.645c-7.634,2.906-11.449,4.683-11.449,5.328s2.087,1.319,6.262,2.019
			c4.173,0.701,6.85,1.319,8.028,1.856c1.178,0.541,2.195,0.916,3.052,1.131c0.855,0.216,2.942,0.969,6.262,2.26
			c3.317,1.292,5.727,2.046,7.226,2.261c12.856,4.738,20.31,9.527,22.355,14.371c0.323,0.108,1.184,0.297,2.584,0.565
			c1.397,0.27,2.745,2.826,4.036,7.669c1.83,0.323,3.283,2.962,4.36,7.912l0.646,1.938c0.646,1.292,0.969,2.422,0.969,3.391
			c0,8.613-0.969,13.458-2.906,14.532c-0.432,0.431-0.754,1.373-0.969,2.826c-0.217,1.453-2.289,4.253-6.217,8.396
			c-3.931,4.146-6.917,6.325-8.961,6.539c-0.54,0.218-1.453,1.13-2.742,2.745l-1.612,1.291c-1.721,0.863-2.876,1.615-3.467,2.263
			c-0.59,0.645-1.155,1.022-1.693,1.129c-0.54,0.108-1.238,0.89-2.096,2.343c-0.861,1.452-1.882,2.179-3.063,2.179
			c-0.217-0.214-0.754-0.429-1.612-0.645h-0.323C167.176,168.659,162.769,171.082,158.255,171.082z"/>
		<path d="M218.208,140.403l3.391-2.745c2.581-0.215,3.979-1.56,4.193-4.037c0.215-2.475,1.99-4.627,5.326-6.458l1.938-2.745
			c1.613-1.615,6.022-3.714,13.231-6.297c1.829-1.075,3.068-2.044,3.712-2.907c0.215-0.214,0.43-0.323,0.645-0.323l2.583,0.646
			c1.397,0,3.199-0.375,5.404-1.13c2.205-0.752,4.332-1.13,6.375-1.13l6.777-0.323c0.429,0,1.316,0.323,2.661,0.969
			c1.345,0.646,2.985,0.969,4.923,0.969c2.365,0,4.544,1.078,6.533,3.229c1.991,2.154,2.987,4.145,2.987,5.974
			c0,3.338-1.72,6.729-5.156,10.172c-3.438,3.446-6.179,5.384-8.22,5.813c-1.826,1.832-3.224,2.987-4.19,3.472
			c-0.969,0.484-1.964,1.238-2.982,2.26c-1.021,1.024-1.854,1.534-2.498,1.534c-0.431,0-0.754-0.134-0.969-0.403
			c-0.214-0.268-0.537-0.404-0.966-0.404c-1.721,0-3.601,2.099-5.639,6.297l-2.901-0.323c-1.826,1.187-3.01,2.478-3.547,3.876
			c-0.538,1.398-1.666,2.098-3.384,2.098c-3.976,3.984-6.663,5.975-8.058,5.975c-0.217,0-0.969-0.214-2.258-0.645
			c-0.86,1.076-1.29,2.205-1.29,3.391c0,1.29-0.86,2.046-2.578,2.26l-2.094,1.938l-1.612-0.322l-3.224,3.39
			c-1.613,0-3.278,0.541-4.996,1.616c-0.217,1.29-0.54,2.933-0.969,4.925c-0.432,1.992-0.646,3.094-0.646,3.31
			c0,3.124,2.851,4.683,8.558,4.683l7.753-1.129c2.043,0,3.956-0.538,5.732-1.615c1.776-1.076,3.686-1.613,5.735-1.613
			c0.645,0,1.614-0.217,2.907-0.647l1.614,0.647c0.752-1.616,2.151-3.068,4.198-4.36c2.043-1.291,3.661-1.938,4.847-1.938
			l1.614-0.969c0.43-1.29,1.075-2.152,1.938-2.582l1.292-1.131c0.86-0.859,1.668-1.292,2.422-1.292h2.261l0.646-0.321
			c1.291-2.799,3.093-4.44,5.409-4.927c2.315-0.483,3.769-1.263,4.361-2.34c0.591-1.076,1.64-1.722,3.149-1.938
			c1.505-0.216,2.77-0.94,3.794-2.181c1.021-1.235,2.286-2.396,3.794-3.472c1.509-1.074,2.559-1.883,3.151-2.422
			c0.591-0.537,1.103-0.808,1.534-0.808c0.646,0,0.969,0.484,0.969,1.452c0,0.972,0.215,1.455,0.646,1.455
			c0.429,0,0.646-0.215,0.646-0.646s-0.108-0.97-0.323-1.614v-1.131c0-1.614,0.86-2.688,2.584-3.229l7.266-4.682
			c0.217-2.26,0.836-3.578,1.859-3.956c1.021-0.375,1.802-0.807,2.341-1.292c0.538-0.484,1.131-0.727,1.775-0.727
			c1.397,0,2.101,0.807,2.101,2.422l-0.809,4.198l0.809,4.359c0,0.646-0.513,1.534-1.536,2.664
			c-1.024,1.131-1.805,2.853-2.342,5.167c-0.54,2.315-1.239,3.579-2.104,3.795h-0.969c-1.938,2.046-3.477,3.257-4.605,3.632
			c-1.131,0.379-2.022,1.051-2.667,2.02l-5.493,6.299c-1.079,1.074-1.995,2.046-2.75,2.906c-0.754,0.861-1.347,1.289-1.775,1.289
			l-1.293-1.289c0-0.216-0.216-0.324-0.645-0.324c-1.081,0-1.754,0.646-2.021,1.938c-0.27,1.292-0.835,2.421-1.698,3.39
			c-3.231,1.511-5.333,2.906-6.302,4.199l-0.969,0.323h-2.909c-1.4,0-2.369,1.049-2.909,3.147c-0.539,2.1-2.073,3.311-4.604,3.634
			c-2.532,0.323-4.337,0.969-5.414,1.938c-0.217,0.217-0.701,0.433-1.455,0.646c-0.755,0.217-2.263,1.077-4.524,2.584l-13.573,4.845
			c-1.079,0.538-1.778,0.807-2.101,0.807l-4.523,0.646c-0.649,0-1.294-0.429-1.94-1.291c-0.646-0.859-1.078-1.292-1.292-1.292
			l-2.909,0.969c-2.154,0.646-4.203,0.97-6.141,0.97c-1.08,0-2.266-0.377-3.557-1.131c-1.292-0.752-2.316-1.293-3.068-1.613
			c-3.126,0-5.333-2.424-6.625-7.269l-1.94,0.324c-0.431,0-1.884-3.819-4.362-11.466c-0.646-0.86-1.67-1.477-3.068-1.855
			c-1.4-0.377-2.099-1.426-2.099-3.147c0-4.847,1.05-8.101,3.148-9.771c2.1-1.667,3.254-2.932,3.472-3.795l2.258-8.395
			c0.429-0.324,0.969-1.398,1.614-3.23l3.711-6.782C215.732,145.302,216.701,143.418,218.208,140.403z M252.355,130.715
			l-1.938,0.969c-0.432,0.217-1.696,1.158-3.794,2.826c-2.1,1.67-4.146,3.015-6.136,4.037c-1.994,1.024-4.037,3.688-6.136,7.993
			c-2.1,4.307-3.149,6.782-3.149,7.427c0,0.646,0.323,0.97,0.969,0.97l5.489-2.422c2.043-0.969,3.956-2.204,5.732-3.714
			c1.776-1.506,4.332-3.335,7.67-5.489l1.291-1.292c0.215-0.429,1.211-1.211,2.986-2.341c1.777-1.13,3.094-2.233,3.957-3.31
			l1.614-0.646c1.829-2.906,3.686-4.683,5.57-5.329c1.882-0.646,2.826-1.292,2.826-1.938c0-1.292-1.023-1.938-3.068-1.938
			c-0.862,0-2.154,0.54-3.875,1.615h-3.714c-0.432,0-1.615,0.646-3.553,1.938L252.355,130.715z"/>
		<path d="M283.655,303.969l-2.583,1.775c-1.075,0.647-2.206,0.969-3.391,0.969c-2.69,0-5.301-1.774-7.831-5.327
			c-2.528-3.554-3.795-7.214-3.795-10.979c0-6.782,0.674-11.602,2.019-14.452c1.348-2.854,2.127-4.979,2.341-6.378
			c0-0.108,1.158-2.773,3.472-7.992c2.316-5.223,4.495-9.178,6.539-11.869c2.047-2.691,3.77-5.221,5.167-7.588l0.646-1.291
			c1.614-2.584,3.177-4.359,4.683-5.329c0-0.646,2.07-2.882,6.216-6.7c4.143-3.822,8.046-7.08,11.707-9.769l1.614-2.263
			c2.583-1.612,4.09-2.42,4.521-2.42l9.363-2.586c0.861-0.858,2.96-2.526,6.297-5.004h1.293l4.359-1.291
			c2.365-1.076,6.045-2.072,11.035-2.988c4.986-0.913,7.82-1.99,8.502-3.229c0.68-1.235,1.256-2.396,1.725-3.472
			c0.471-1.073,1.648-3.334,3.533-6.781c0.428-1.829,0.809-3.281,1.129-4.357c0.324-1.076,0.672-1.722,1.051-1.938
			c0.377-0.216,0.994-1.265,1.857-3.149c0.859-1.881,1.719-3.471,2.582-4.763c0.215,0,0.324-0.106,0.324-0.323l-0.969-2.744
			c0.859-2.584,1.748-4.17,2.664-4.765c0.912-0.59,1.371-0.993,1.371-1.21l-1.131-2.906l2.746-5.975c0-0.43-0.217-0.646-0.646-0.646
			c-5.707,3.983-9.041,5.976-10.012,5.976c-0.539,0.754-1.721,2.046-3.547,3.875c-1.83,0.646-3.064,1.776-3.709,3.391l-1.289,0.323
			l-0.969,1.613c0,0.218-0.377,0.486-1.131,0.808c-0.752,0.323-2.254,1.187-4.51,2.585l-1.936-0.324
			c-0.432,0-0.969,1.078-1.611,3.23c-1.83,2.154-3.578,3.472-5.244,3.955c-1.664,0.484-2.711,1.051-3.141,1.695l-1.291,1.613
			l-1.611-0.32c-2.26,0-3.388,0.861-3.388,2.582c0,0.969-0.646,2.1-1.933,3.393c-0.862,0-1.938,0.32-3.224,0.969h-2.421
			c-1.073,2.367-3.01,3.821-5.803,4.358l-4.678,3.229l-2.739,0.97c-1.292,0.646-2.581,1.428-3.87,2.34
			c-1.292,0.916-3.494,1.481-6.61,1.697c-1.503-0.86-3.816-1.697-6.938-2.504c-3.12-0.807-5.328-6.055-6.619-15.744h-0.323
			c-0.86,0-1.802,0.323-2.826,0.972c-1.021,0.646-1.748,0.969-2.18,0.969c-2.583,0-3.875-1.075-3.875-3.229
			c0-4.844,1.832-8.019,5.489-9.525l4.037-5.006l10.334-10.174c7.229-7.209,12.082-11.839,14.564-13.885
			c2.481-2.043,5.18-4.037,8.095-5.974l8.252-5.49c2.806-1.829,4.532-2.826,5.18-2.987c0.646-0.162,1.322-0.51,2.023-1.05
			c0.699-0.538,2.668-1.344,5.906-2.422l2.912-1.292c6.041-2.044,9.926-3.068,11.65-3.068l2.268,0.323
			c1.186,0,2.318-0.429,3.396-1.292c1.512,0,3.832-1.183,6.961-3.552l5.826-1.615c1.617-0.537,2.967-0.807,4.047-0.807h3.068
			c2.262,0,3.74,1.776,4.439,5.329c0.701,3.553,1.318,5.328,1.859,5.328c0.213,0,0.859-0.807,1.938-2.422l2.26-1.615
			c1.615-1.075,2.637-1.615,3.068-1.615c2.584,0,4.197,1.077,4.844,3.229v0.323l0.646,0.808c0.969,5.167,1.453,8.343,1.453,9.526
			c0,5.167-1.105,9.204-3.312,12.11c-2.207,2.906-3.525,4.953-3.955,6.136c-2.154,8.721-4.307,15.287-6.459,19.699
			c-0.539,1.186-1.83,4.309-3.875,9.364l-1.613,1.616c-0.434,0.217-0.646,0.537-0.646,0.969l0.322,2.261
			c-1.832,2.906-2.744,5.222-2.744,6.94c0,0.97-0.865,2.965-2.592,5.976c0.217,0.217,1.16,0.782,2.83,1.694
			c1.672,0.916,3.555,2.642,5.654,5.169c2.1,2.528,3.148,4.439,3.148,5.731c0,0.322-0.592,2.422-1.777,6.297
			c-3.875,2.905-7.16,4.36-9.855,4.36c-1.078,0-2.645-0.703-4.691-2.101l-0.973,0.322v-0.646c-1.402-0.323-2.51-0.727-3.316-1.21
			c-0.811-0.485-1.592-0.728-2.348-0.728c-0.865,0-1.297,0.428-1.297,1.293c0,0.428,0.109,0.859,0.326,1.289
			c-0.648,0.539-1.512,1.346-2.592,2.424c0,0.323-0.756,1.908-2.266,4.765c-1.512,2.851-2.859,4.762-4.047,5.729
			c-2.369,0.106-3.984,1.883-4.844,5.329c-0.863,3.443-1.885,5.651-3.068,6.62l-1.615-0.646c-3.658,7.318-7.32,12.595-10.979,15.824
			c-2.26,0.536-3.418,0.939-3.471,1.211c-0.057,0.267-0.162,0.969-0.324,2.1c-0.161,1.131-1.453,2.906-3.875,5.326
			c-2.422,2.424-3.851,3.635-4.278,3.635l-1.615,0.322l-0.969,0.97c0.106,2.151-2.745,5.596-8.558,10.333
			c-3.123,1.721-4.791,2.906-5.006,3.554c-0.863,2.042-4.036,4.466-9.526,7.265l-3.067,2.744c-1.397,1.293-2.799,2.207-4.198,2.748
			L283.655,303.969z M341.926,220.976l-4.844,0.646c-1.186-0.862-2.098-1.292-2.744-1.292c-0.432,0-0.754,0.322-0.969,0.969
			c-1.293,1.723-4.146,3.176-8.559,4.36c-4.414,1.184-7.4,2.395-8.962,3.634c-1.562,1.234-2.88,1.909-3.954,2.018
			c-1.077,0.106-1.614,0.323-1.614,0.646c-1.077,0.859-1.886,1.613-2.422,2.26c-1.077,0.43-2.155,1.104-3.23,2.02
			c-1.077,0.914-2.207,1.479-3.391,1.693c-1.938,4.199-3.337,6.299-4.197,6.299c-0.218,0-0.755-0.108-1.615-0.324h-0.322
			c-1.401,2.799-2.478,4.414-3.23,4.845c-0.751,0.431-1.396,1.051-1.938,1.856c-0.536,0.809-1.586,1.696-3.147,2.666
			c-1.561,0.969-2.609,2.608-3.149,4.924c-0.538,2.313-1.211,3.875-2.019,4.685c-0.807,0.808-1.316,2.606-1.534,5.409l-0.969,2.259
			c-0.322,0.647-0.779,2.503-1.372,5.571c-0.59,3.066-0.888,4.654-0.888,4.764c0,1.506,0.646,2.852,1.938,4.037
			c0.431-0.541,1.348-0.918,2.744-1.131l9.527-3.875c0.322-0.217,1.506-1.213,3.553-2.988c2.043-1.775,3.847-2.933,5.409-3.472
			c1.559-0.539,2.987-1.509,4.278-2.906c0.86-1.29,1.91-2.368,3.149-3.228c1.235-0.865,1.962-1.938,2.179-3.23
			c2.477-2.154,4.735-4.174,6.781-6.057c2.044-1.885,3.363-3.444,3.956-4.682c0.591-1.24,1.534-2.289,2.826-3.148l0.646-2.1
			c0.215-0.108,0.671-0.242,1.372-0.403c0.7-0.161,1.858-1.912,3.472-5.247l4.359-7.268c2.584-2.582,4.686-5.867,6.299-9.85
			l2.262-1.938c0.428-0.218,0.645-0.701,0.645-1.453L341.926,220.976z M339.043,169.467l1.938-2.745
			c0.646-0.858,1.75-1.506,3.312-1.937c1.559-0.431,2.824-1.345,3.793-2.746c2.584-3.658,5.65-6.351,9.203-8.073l1.615-1.13
			c1.615-3.121,3.068-4.816,4.359-5.086c1.291-0.268,2.422-1.236,3.391-2.906c0.969-1.667,1.453-3.041,1.453-4.118
			c0-0.429-0.322-0.646-0.969-0.646c-1.508,0-2.824,0.432-3.957,1.292c-1.129,0.863-1.91,1.292-2.34,1.292l-3.229-0.323
			c-1.939,1.078-4.631,2.369-8.074,3.875l-2.906,2.422c-1.291,0.862-2.449,1.4-3.473,1.614c-1.023,0.217-1.803,0.889-2.34,2.019
			c-0.541,1.13-1.24,1.695-2.102,1.695l-1.291,0.646c-0.432,0.431-1.67,0.646-3.715,0.646c-1.076,0.646-2.178,1.562-3.309,2.744
			c-1.131,1.187-1.805,1.776-2.02,1.776c-2.478,2.691-4.602,4.359-6.378,5.007c-1.774,0.646-2.934,1.562-3.472,2.743
			c-2.046,0.541-3.77,1.752-5.166,3.634c-1.401,1.885-2.665,3.177-3.796,3.875c-1.129,0.703-2.126,1.59-2.986,2.665l-1.614,1.292
			c-0.646,0.431-1.534,1.854-2.665,4.278c-1.13,2.422-1.694,4.117-1.694,5.086c0,0.646,0.375,0.969,1.129,0.969
			c1.075,0,3.094-0.78,6.056-2.342c2.96-1.559,4.869-2.771,5.731-3.633c0.859-0.86,1.453-1.293,1.776-1.293l6.136,0.323
			c0.646-1.396,1.749-2.312,3.311-2.743c1.561-0.429,2.771-1.347,3.633-2.746c0.861-1.397,3.283-2.906,7.267-4.521l1.775-2.906
			H339.043z"/>
		<path d="M381.053,150.252l2.59-2.26h0.969c0.752,0,1.885-0.807,3.395-2.422l1.617-0.646c2.154-3.229,4.039-5.111,5.656-5.651
			l2.588-1.938c0.43-0.429,1.051-0.808,1.855-1.13c0.809-0.323,2.104-1.373,3.881-3.148c1.775-1.776,3.205-2.665,4.283-2.665
			s1.941,0.108,2.586,0.323c0.646-1.292,1.939-2.556,3.879-3.794c1.941-1.236,3.506-2.717,4.689-4.44l2.102-0.969
			c1.725-0.86,3.26-1.963,4.605-3.31c1.348-1.345,3.098-2.019,5.256-2.019c3.123,0,6.383,1.59,9.773,4.763
			c3.391,3.176,5.086,6.217,5.086,9.123l-2.746,12.594c-1.832,9.259-3.875,14.104-6.135,14.531l-0.646,3.392
			c-1.508,1.077-2.26,1.938-2.26,2.584l0.969,3.875c0,0.539-0.594,1.349-1.777,2.422c-0.217,0-0.32,0.323-0.32,0.97v6.621
			c0,1.184-0.756,2.154-2.264,2.905c0.217,0.218,0.539,0.431,0.971,0.646c0.645-0.646,2.1-0.969,4.359-0.969l2.58,0.323l3.549-3.554
			c0.752-0.213,1.799-0.727,3.143-1.533c1.344-0.809,3.629-1.855,6.855-3.148l21.123-16.146c2.902-2.906,5.105-4.359,6.611-4.359
			c1.611,0,2.418,1.025,2.418,3.068c0,2.369-0.457,4.334-1.371,5.895c-0.916,1.562-1.752,3.445-2.504,5.649
			c-0.754,2.208-1.643,3.742-2.664,4.603c-1.021,0.864-1.854,1.805-2.5,2.826c-0.645,1.023-2.396,2.504-5.246,4.44
			c-2.854,1.938-5.275,3.901-7.268,5.894c-1.99,1.994-3.631,3.418-4.922,4.279l-6.941,5.004l-0.969,1.616
			c-0.215,0.217-1.211,0.674-2.986,1.372c-1.777,0.699-3.365,1.589-4.764,2.664l-2.902,1.613c-0.646,0.434-1.697,0.701-3.148,0.808
			c-1.453,0.108-2.721,0.728-3.795,1.858c-1.076,1.129-1.938,1.694-2.584,1.694l-2.422-0.323l-3.227,0.969
			c-1.832,0-4.066-1.102-6.701-3.31c-2.639-2.206-3.957-4.547-3.957-7.024v-0.969l0.324-2.26c0-0.431-0.324-1.533-0.969-3.311
			c-0.646-1.777-0.971-2.771-0.971-2.988l0.322-2.262l-0.322-0.969c0-2.906,0.215-4.734,0.646-5.488
			c0.43-0.752,0.752-1.801,0.969-3.147c0.215-1.346,0.43-2.448,0.646-3.311l0.809-4.037c0.43-1.291,0.969-2.151,1.613-2.584
			c0.215-0.86,0.646-2.313,1.293-4.359l0.645-2.905l1.615-2.262c0.859-0.86,1.371-2.019,1.533-3.472s0.727-2.987,1.695-4.602
			c0.969-1.614,1.453-2.583,1.453-2.906c0-1.292-0.646-1.938-1.938-1.938c-0.432,0-1.777,0.863-4.037,2.583l-2.91-0.969
			c-0.217,0-0.807,0.54-1.773,1.615c0,0.431-0.484,0.754-1.453,0.969c-0.971,0.217-1.887,1.024-2.746,2.422l-1.293,0.323
			l-2.102-0.969h-0.645c-1.078,0-1.723,1.186-1.939,3.552c-1.186,1.724-2.746,2.854-4.684,3.391l-3.553,0.97
			c-1.186,0.432-2.045,1.399-2.586,2.906c-0.541,1.508-1.615,2.881-3.23,4.116c-1.615,1.239-2.691,1.858-3.229,1.858
			c-3.016,0-4.523-1.67-4.523-5.006l1.295-7.591L381.053,150.252z M450.809,69.519l-0.971-6.298v-0.969
			c0-5.058,1.721-7.856,5.168-8.396c0.752-0.106,3.012-0.807,6.781-2.099c1.938,0.432,3.957,2.127,6.055,5.086
			c2.102,2.962,3.148,5.571,3.148,7.831c0,0.217-0.16,0.702-0.484,1.454c-0.322,0.754-0.539,2.18-0.645,4.278
			c-0.109,2.1-1.158,3.931-3.148,5.49c-1.994,1.562-4.117,2.341-6.379,2.341c-1.51,0-3.418-1.05-5.732-3.148
			C452.288,72.991,451.024,71.133,450.809,69.519z"/>
		<path d="M623.346,174.472h0.646l1.619,0.647c0.215,0,0.428-0.106,0.645-0.323c0-1.829,0.863-3.393,2.592-4.683
			c0.539-2.044,1.754-3.606,3.641-4.685c1.889-1.074,4.883-2.851,8.984-5.328l4.043-3.553l1.943-0.969l1.295-1.614
			c1.188-1.397,2.318-2.099,3.398-2.099c1.617,0,2.426,0.593,2.426,1.775l-1.455,3.23l0.648,5.328c0,1.938-0.674,3.661-2.021,5.166
			c-1.348,1.509-3.424,3.715-6.225,6.62l-8.248,8.721l-4.363,2.259c-1.08,0.647-2.049,1.401-2.91,2.261l-6.307,5.33
			c0,1.508-0.484,2.639-1.453,3.391h-2.588l-1.293,0.646c-0.756,2.048-2.967,4.037-6.631,5.976l-2.262,1.613
			c-0.758,0.646-1.457,0.969-2.104,0.969l-4.527-0.646l-3.07,0.646c-0.863,0-2.023-0.43-3.477-1.291
			c-1.455-0.86-2.938-1.534-4.445-2.019c-1.51-0.485-3.424-2.478-5.738-5.975c-2.318-3.496-3.586-5.786-3.803-6.863
			c0-0.429-0.242-1.155-0.729-2.18c-0.484-1.021-0.727-1.642-0.727-1.857c0-0.213,0.484-1.29,1.455-3.228v-0.324
			c0-0.323-0.297-1.075-0.891-2.262c-0.592-1.182-0.887-2.635-0.887-4.357c0-0.969-0.324-2.206-0.971-3.714
			c0.861-0.86,1.291-1.507,1.291-1.938c0-0.43-0.16-1.051-0.482-1.856c-0.322-0.808-0.484-1.425-0.484-1.857l0.969-7.911
			l-0.643-4.037l0.32-3.875c0-2.261-0.967-3.391-2.898-3.391c-0.855,0-1.928,0.593-3.217,1.776l-1.123,0.323
			c-2.896,1.4-4.936,2.559-6.117,3.472c-1.18,0.916-2.414,1.372-3.699,1.372c-0.645,0.646-1.879,1.239-3.701,1.775l-1.287,0.971
			c-0.43,0.431-1.287,1.076-2.574,1.938c0,0.322-2.012,2.127-6.033,5.409c-4.021,3.284-7.643,6.377-10.861,9.283
			c-3.219,2.905-5.551,4.495-7,4.765c-1.447,0.27-2.172,1.643-2.172,4.116c0,0.433-0.965,1.293-2.895,2.583
			c-0.215,0-1.34,1.186-3.379,3.554c-1.715-1.293-2.684-1.938-2.896-1.938c-1.402,0-2.428,1.775-3.074,5.328
			c-0.648,1.399-2.375,2.261-5.18,2.584c-0.217,0.108-0.596,0.916-1.137,2.422l-0.646,0.646h-1.619
			c-0.217,0-0.971,0.621-2.266,1.856c-1.297,1.238-2.43,2.02-3.4,2.341c-1.402,2.905-2.592,4.36-3.561,4.36
			c-0.434,0-1.055-0.215-1.861-0.646c-0.811-0.43-1.807-0.809-2.992-1.13c-1.186-0.324-2.502-1.642-3.955-3.957
			c-1.453-2.312-2.182-4.279-2.182-5.894c0-11.948,2.314-18.459,6.943-19.537l0.322-0.646v-1.291c0-1.398,0.619-2.395,1.857-2.988
			c1.236-0.59,2.502-1.774,3.795-3.552c1.291-1.774,2.15-2.771,2.582-2.987h2.1c0.43,0,0.646-1.129,0.646-3.391
			c0-0.646,0.268-1.236,0.807-1.775c0.537-0.537,0.861-1.316,0.969-2.342c0.105-1.021,0.889-2.688,2.342-5.006
			c1.453-2.313,2.18-3.686,2.18-4.117l-0.32-0.646c-2.693,2.477-4.631,3.822-5.814,4.036c-1.186,0.217-2.801,1.776-4.844,4.683
			l-2.584-0.484c-4.525,3.338-7.328,5.222-8.408,5.651c-1.08,0.432-2.268,1.67-3.561,3.715c0,0.646-0.379,1.077-1.137,1.291
			c-0.758,0.217-2.158,1.077-4.209,2.583H481.5c-2.701,0-4.051-1.937-4.051-5.812l3.389-9.204c0.967-2.906,3.252-5.353,6.855-7.346
			c3.602-1.991,6.639-3.9,9.113-5.732c2.475-1.829,4.947-2.798,7.424-2.907l1.127-1.615c3.656-1.397,6.129-3.605,7.42-6.62
			c1.293-3.012,3.064-4.521,5.326-4.521c5.914,0,10.434,2.18,13.551,6.54c3.119,4.359,4.678,7.831,4.678,10.415l0.322,4.36
			c0,1.508-0.322,3.607-0.967,6.297c-1.291,1.938-1.938,3.391-1.938,4.358c0,0.862,0.537,1.293,1.615,1.293
			c0.643,0,1.502-0.457,2.578-1.373c1.074-0.913,2.285-1.749,3.631-2.503c1.344-0.752,2.123-1.398,2.34-1.938
			c1.076-2.584,2.955-4.36,5.645-5.329s4.357-1.776,5.004-2.422l1.611-1.292l1.291-2.422c2.902-1.292,4.838-2.475,5.807-3.552
			c0.969-1.075,2.258-1.776,3.873-2.099c1.613-0.323,3.443-1.292,5.486-2.907l2.42-0.646l2.26-1.292
			c0.213-0.214,0.859-0.484,1.934-0.807c1.076-0.323,2.662-0.888,4.76-1.695c2.096-0.808,3.521-1.211,4.275-1.211
			c5.484,0,9.811,2.208,12.984,6.62c3.176,4.415,4.762,7.967,4.762,10.657l-0.322,2.906l0.645,4.359v0.646l-1.293,8.882l0.324,3.067
			c0,5.06-1.078,8.558-3.229,10.494c-0.541,0.217-0.809,0.756-0.809,1.614v1.453l3.23,6.781c0.969,2.369,1.723,3.553,2.264,3.553
			l5.18-1.453c1.508-0.428,2.748-1.56,3.725-3.391c0.861-0.43,2.371-1.72,4.531-3.875
			C620.917,175.334,621.942,174.472,623.346,174.472z"/>
	</g>
</g>
<g id="Layer_3">
	<path d="M42.5,176.834c0,0,9.5-12.334,32-20.834s25.167-11.333,28.167-12.5S121.5,141,123,136s6.667-9.5-5-7.667
		s-6.893-0.785-28.667,8.667S68,142.416,57.667,152.375S42,163.001,41.5,167.834S42.5,176.834,42.5,176.834z"/>
	<path d="M236.167,160.667c12.167-8.833,6.549-3.667,15.025-12S262.754,136.28,261.834,136s11.667-10.833-5.833,0
		s-15,5.5-19.833,13.333S236.167,160.667,236.167,160.667z"/>
	<path d="M309.283,181.167c7.384-6.167,9.55-7.834,17.05-13.167c7.5-5.333,13.167-8.287,19.833-13.644s8.711-11.002,14.834-10.689
		c6.121,0.313,9.498,0.666,4.832,6.167s1,1.167-10,10.833s-7.166,8.834-16.332,14.667c-9.168,5.833-9.334,12-18.333,12
		C312.167,187.334,309.283,181.167,309.283,181.167z"/>
	<path d="M311.667,224.333c-8.833,7.5-19.166,17.334-23.833,23.834s-8.334,9.666-11.334,19.666s-2.424,16.551-6,14.167
		s-8.333-5.667-6.833-13.667s3.5-14.5,6.5-17.5s3.667-8.5,13.667-17.833s12.167-12.999,17.5-13.833S311.667,224.333,311.667,224.333
		z"/>
</g>
<g id="Layer_2">
	<g>
		<path fill="#FFFFFF" d="M150.255,163.082h-0.646c0,0.431-1.075,1.776-3.224,4.037h-2.419L143,167.44
			c-2.795,2.8-4.786,4.199-5.967,4.199l-3.224-0.646h-0.646c-1.397,0-2.795,0.834-4.193,2.503c-1.397,1.669-2.904,2.501-4.513,2.501
			c-0.646,0-1.83-0.321-3.55-0.969c-1.292,1.725-3.28,2.585-5.964,2.585l-8.871,4.682c-1.075,0.433-1.962,0.862-2.662,1.293
			c-0.699,0.431-1.746,0.7-3.143,0.808c-1.398,0.107-2.904,0.619-4.517,1.533c-1.612,0.916-2.901,1.372-3.868,1.372l-3.708-1.131
			c-3.547,2.69-7.122,4.254-10.725,4.683c-3.603,0.433-6.209,0.864-7.819,1.293l-4.516,0.324l-6.933,1.774
			c-1.615,0.646-3.494,0.969-5.644,0.969c-2.689,0-5.215-1.022-7.579-3.067c-1.292,0.861-2.634,1.992-4.031,3.392l-0.969,0.321
			c-0.217,0-0.646-0.161-1.289-0.482c-0.646-0.324-1.183-0.484-1.612-0.484c-0.217,0-0.621,0.16-1.211,0.484
			c-0.59,0.321-1.208,0.482-1.854,0.482c-0.752,0-2.473-1.131-5.16-3.389c-0.752,0.645-1.451,0.969-2.097,0.969
			c-2.795,0-4.998-1.938-6.61-5.813l-2.742,0.97c-0.429,0-1.075-0.941-1.935-2.826c-0.861-1.883-1.29-3.578-1.29-5.086
			c0-4.091,8.709-11.679,26.133-22.769c17.423-11.085,28.34-17.276,32.755-18.568l1.615-1.13c0.646-0.646,1.344-0.969,2.099-0.969
			c0.214,0,0.751,0.217,1.614,0.646h0.969c1.292,0,2.206-0.751,2.745-2.261c0.537-1.506,1.829-2.26,3.875-2.26l1.615-0.323
			l18.246-10.011c0.86-0.429,3.82-1.559,8.881-3.391c5.058-1.83,8.53-3.254,10.415-4.279c1.882-1.021,4.816-1.857,8.8-2.503
			l1.615-0.969c1.72-0.752,3.173-1.13,4.359-1.13c7.21,0,10.818,3.552,10.818,10.657l-2.583,5.167
			c-1.615,3.661-3.823,5.49-6.62,5.49c-0.863,0-1.509-0.295-1.938-0.888c-0.432-0.59-0.807-0.888-1.13-0.888l-8.234,0.323
			l-3.553-1.292c-0.108,0.108-1.347,0.54-3.714,1.292h-2.583c-0.432,0-1.885,0.807-4.36,2.422l-4.198,1.614
			c-4.629,0.863-10.979,3.124-19.053,6.782c-8.074,3.66-12.756,5.383-14.048,5.167c-2.046,0.863-3.769,2.073-5.167,3.633
			c-1.4,1.562-4.092,2.987-8.073,4.278c-14.532,7.212-21.798,12.272-21.798,15.179c0,2.479,6.667,3.713,20.004,3.713
			c6.236,0,10.109-0.59,11.617-1.775l17.262-3.875l1.615-1.775h3.386c1.398,0,2.904-0.592,4.519-1.777
			c1.612-1.182,3.603-1.775,5.97-1.775c1.503,0,2.981-0.482,4.435-1.451c1.453-0.969,2.662-1.534,3.63-1.696
			c0.968-0.162,1.801-0.457,2.5-0.89c0.699-0.428,2.5-0.992,5.404-1.693c2.904-0.699,4.733-1.641,5.487-2.825l1.936-0.97
			c0.646-0.429,1.668-1.021,3.065-1.776h1.938c0.214,0,1.236-0.751,3.065-2.26l7.581-4.36h1.938c2.149,0,4.249-1.829,6.292-5.49
			c1.289-1.183,2.957-1.776,5-1.776c3.121-1.507,6.62-4.36,10.496-8.558l4.359-2.906c2.583-2.367,4.574-4.36,5.974-5.974
			c0.214,0,0.323-0.106,0.323-0.323l2.583,0.323l0.323-0.969c0-0.215-0.109-0.591-0.323-1.13v-0.646c0-0.86,0.429-1.506,1.292-1.938
			c0.861-0.429,1.292-0.86,1.292-1.292l-0.969-3.391c0.429-0.429,0.646-1.075,0.646-1.938c0-2.152-1.078-3.929-3.229-5.329
			l-0.323-0.969v-1.292c-1.077-0.429-2.316-0.751-3.714-0.969c-0.863-2.367-3.688-4.521-8.477-6.458
			c-4.791-1.938-11.808-3.819-21.051-5.651l-13.7-2.745l-6.607,0.646c-1.075,0-2.659-0.214-4.753-0.646
			c-2.097-0.429-3.627-0.646-4.594-0.646s-2.47-0.375-4.511-1.13c-2.902,0.969-4.783,1.453-5.642,1.453l-3.868-0.969l-4.672,0.646
			c-9.242,0-13.861-1.344-13.861-4.036c0-8.502,4.953-14.799,14.857-18.892c1.292-0.429,2.637-1.075,4.037-1.938l12.919-4.037
			c1.075-0.214,2.609-0.808,4.602-1.776c1.991-0.969,3.847-1.776,5.57-2.422l2.261-1.292l1.776-0.322
			c0.86-1.075,2.664-2.18,5.409-3.311c2.745-1.13,7.188-3.714,13.323-7.75c6.136-4.037,9.582-6.54,10.336-7.509
			c0.646-0.429,1.587-0.913,2.826-1.453c1.236-0.537,1.857-2.366,1.857-5.49c0-2.043-1.133-3.497-3.398-4.359l-1.94-1.292
			c-0.217-0.429-0.729-0.751-1.537-0.969c-0.81-0.214-1.672-0.509-2.588-0.888c-0.918-0.376-5.798-1.103-14.641-2.18l-9.383-1.615
			l-3.721,0.646l-3.883-0.323l-7.278,2.099l-3.073-2.099c0-0.214-0.217-0.323-0.648-0.323s-1.077,0.512-1.94,1.534
			c-0.863,1.024-1.782,1.534-2.75,1.534c-1.726,0-3.451-0.214-5.177-0.646h-0.646c-1.614,0-2.422,0.54-2.422,1.614
			c0,0.646,1.13,2.854,3.391,6.62l-0.646,2.907l0.323,3.713c0,0.863-0.807,2.261-2.417,4.198l-0.323,2.1
			c-0.646,1.938-2.019,5.222-4.113,9.849c-2.096,4.629-3.252,7.483-3.466,8.558l-5.641,11.303l-0.969,3.229
			c-2.473,6.353-4.244,10.442-5.319,12.271c-1.075,1.832-1.881,3.713-2.419,5.651c-0.537,1.938-1.559,3.822-3.062,5.651
			l-6.926,17.761c-0.537,0.754-1.342,1.562-2.414,2.422c-1.184,2.906-2.258,6.083-3.222,9.526c0,3.124-0.914,5.974-2.737,8.558
			l-0.646,3.068c0,0.431-0.432,1.428-1.289,2.987c-0.858,1.562-1.504,2.987-1.933,4.279c-0.432,1.292-1.077,1.938-1.938,1.938
			c-3.124,0-5.922-2.125-8.396-6.378c-2.478-4.251-4.198-6.646-5.167-7.185c-1.832-2.152-2.745-4.251-2.745-6.297
			c0-1.938,0.994-4.844,2.987-8.719c1.99-3.875,3.254-6.511,3.794-7.912c0.538-1.397,1.264-2.878,2.18-4.44
			c0.914-1.56,1.587-2.96,2.019-4.198c0.429-1.236,0.86-2.071,1.292-2.503c1.507-1.506,2.367-3.416,2.583-5.732
			c0.214-2.313,1.559-4.332,4.037-6.055c-0.217-0.538-0.323-1.131-0.323-1.776c0-0.86,0.646-1.938,1.938-3.229
			c1.292-1.292,2.125-2.556,2.503-3.794c0.375-1.236,0.78-2.286,1.211-3.149l1.292-0.646c0.214-0.86,0.375-1.91,0.484-3.148
			c0.106-1.237,0.913-1.963,2.422-2.18c0.538-4.304,1.425-6.646,2.664-7.024c1.236-0.375,2.664-1.211,4.279-2.503
			c-1.292-0.969-1.938-1.775-1.938-2.422c0-2.366,1.236-4.359,3.714-5.974c-0.217-0.538-0.512-1.05-0.888-1.534
			c-0.378-0.484-0.565-0.833-0.565-1.05l3.875-9.042c1.184-3.012,3.013-5.382,5.49-7.104h0.323l-0.969-4.359
			c0-1.507,1.614-2.851,4.844-4.037c1.183-1.292,1.668-2.475,1.453-3.552h-0.807l-2.583-0.969l-7.104,1.292
			c-1.938,0.432-4.629,1.292-8.073,2.584l-1.938-0.646H69.36c-0.431,0-1.292,0.431-2.583,1.292l-1.292,0.808
			c-0.646-0.323-1.292-0.484-1.938-0.484c-3.229,0-5.947,0.351-8.151,1.049c-2.205,0.701-4.112,0.943-5.725,0.727
			c-0.646,0.323-1.774,0.754-3.386,1.292h-1.612c-0.217,0-0.727,0.242-1.534,0.727c-0.807,0.484-2.606,1.105-5.401,1.857
			c-1.292-0.429-2.044-0.646-2.258-0.646c-0.432,0-1.882,0.888-4.354,2.664s-4.463,2.72-5.967,2.826
			c-1.506,0.108-2.662,0.484-3.469,1.13c-0.808,0.646-1.854,1.453-3.144,2.422l-1.935,2.907c-0.432,1.508-1.586,2.772-3.469,3.794
			c-1.882,1.025-3.199,1.913-3.951,2.665c-0.751,0.754-1.504,1.13-2.255,1.13c-1.292,0-2.77-0.941-4.435-2.826
			C0.833,41.31,0,39.721,0,38.429c0-3.553,0.941-6.323,2.823-8.316c1.882-1.991,3.739-4.062,5.571-6.216
			c3.227-2.475,7.773-4.304,13.636-5.49c5.864-1.183,9.334-2.099,10.41-2.745c0-0.214,0.106-0.323,0.323-0.323l2.745,0.969
			c0.646,0.432,1.829-0.268,3.549-2.099c9.898-3.875,17.161-5.813,21.789-5.813h0.646l4.357,0.323l3.391-1.292
			c2.366-0.86,4.14-1.292,5.326-1.292c1.29,0,2.15,0.189,2.582,0.565c0.428,0.378,0.86,0.565,1.291,0.565
			c0.646,0,1.398-0.751,2.261-2.26c2.043-1.075,4.867-1.776,8.472-2.099c3.603-0.323,6.537-0.808,8.797-1.453h0.966l3.875,0.323
			l8.23-1.453l10.975,0.807l5.003-0.807l4.198,0.323L140.575,0l14.686,2.26c5.488,0.754,11.137,2.881,16.947,6.378
			c5.81,3.499,9.577,6.191,11.297,8.073c1.721,1.885,2.584,4.602,2.584,8.154c0,7.75-5.324,15.42-15.965,23.009
			c-10.642,7.589-19.081,12.138-25.315,13.645c-7.634,2.906-11.449,4.683-11.449,5.328s2.087,1.319,6.262,2.019
			c4.173,0.701,6.85,1.319,8.028,1.856c1.178,0.541,2.195,0.916,3.052,1.131c0.855,0.216,2.942,0.969,6.262,2.26
			c3.317,1.292,5.727,2.046,7.226,2.261c12.856,4.738,20.31,9.527,22.355,14.371c0.323,0.108,1.184,0.297,2.584,0.565
			c1.397,0.27,2.745,2.826,4.036,7.669c1.83,0.323,3.283,2.962,4.36,7.912l0.646,1.938c0.646,1.292,0.969,2.422,0.969,3.391
			c0,8.613-0.969,13.458-2.906,14.532c-0.432,0.431-0.754,1.373-0.969,2.826c-0.217,1.453-2.289,4.253-6.217,8.396
			c-3.931,4.145-6.917,6.325-8.961,6.539c-0.54,0.217-1.453,1.13-2.742,2.745l-1.612,1.292c-1.721,0.863-2.876,1.615-3.467,2.261
			c-0.59,0.645-1.155,1.024-1.693,1.129c-0.54,0.109-1.238,0.89-2.096,2.343c-0.861,1.452-1.882,2.179-3.063,2.179
			c-0.217-0.214-0.754-0.429-1.612-0.645h-0.323C159.176,160.659,154.769,163.082,150.255,163.082z"/>
		<path fill="#FFFFFF" d="M210.208,132.403l3.391-2.745c2.581-0.215,3.979-1.56,4.193-4.037c0.215-2.475,1.99-4.627,5.326-6.458
			l1.938-2.745c1.613-1.615,6.022-3.714,13.231-6.297c1.829-1.075,3.067-2.044,3.713-2.907c0.215-0.214,0.429-0.323,0.644-0.323
			l2.583,0.646c1.398,0,3.199-0.375,5.404-1.13c2.205-0.752,4.332-1.13,6.375-1.13l6.777-0.323c0.429,0,1.316,0.323,2.661,0.969
			c1.345,0.646,2.985,0.969,4.923,0.969c2.365,0,4.544,1.078,6.533,3.229c1.991,2.154,2.987,4.145,2.987,5.974
			c0,3.338-1.72,6.729-5.156,10.172c-3.438,3.446-6.179,5.384-8.22,5.813c-1.826,1.832-3.224,2.987-4.19,3.472
			c-0.969,0.484-1.964,1.238-2.982,2.26c-1.021,1.024-1.854,1.534-2.498,1.534c-0.431,0-0.754-0.134-0.969-0.403
			c-0.214-0.268-0.537-0.404-0.966-0.404c-1.721,0-3.601,2.099-5.639,6.297l-2.901-0.323c-1.827,1.186-3.01,2.478-3.547,3.875
			c-0.538,1.4-1.665,2.099-3.383,2.099c-3.976,3.984-6.663,5.974-8.058,5.974c-0.217,0-0.969-0.214-2.258-0.646
			c-0.86,1.078-1.29,2.207-1.29,3.392c0,1.29-0.86,2.046-2.578,2.26l-2.094,1.938l-1.612-0.322l-3.224,3.391
			c-1.613,0-3.278,0.541-4.996,1.615c-0.217,1.29-0.54,2.934-0.969,4.924c-0.432,1.993-0.646,3.096-0.646,3.311
			c0,3.123,2.851,4.683,8.558,4.683l7.753-1.129c2.043,0,3.956-0.538,5.732-1.616c1.776-1.074,3.686-1.613,5.735-1.613
			c0.646,0,1.614-0.215,2.906-0.646l1.615,0.646c0.752-1.615,2.152-3.067,4.198-4.359c2.043-1.291,3.662-1.938,4.847-1.938
			l1.614-0.97c0.43-1.29,1.075-2.151,1.938-2.582l1.292-1.131c0.86-0.86,1.668-1.292,2.422-1.292h2.261l0.646-0.322
			c1.291-2.798,3.093-4.439,5.409-4.926c2.315-0.482,3.769-1.263,4.361-2.34c0.591-1.076,1.64-1.723,3.149-1.938
			c1.505-0.216,2.77-0.941,3.794-2.181c1.021-1.236,2.286-2.395,3.794-3.472c1.509-1.074,2.559-1.882,3.151-2.422
			c0.591-0.537,1.103-0.808,1.534-0.808c0.646,0,0.969,0.484,0.969,1.453c0,0.97,0.215,1.454,0.646,1.454
			c0.429,0,0.646-0.215,0.646-0.646c0-0.429-0.108-0.969-0.323-1.614v-1.131c0-1.614,0.86-2.689,2.584-3.229l7.266-4.682
			c0.217-2.26,0.836-3.578,1.859-3.956c1.022-0.375,1.802-0.807,2.341-1.292c0.538-0.484,1.131-0.727,1.775-0.727
			c1.397,0,2.101,0.807,2.101,2.422l-0.809,4.198l0.809,4.359c0,0.646-0.513,1.534-1.536,2.664
			c-1.024,1.131-1.805,2.853-2.342,5.167c-0.54,2.316-1.239,3.58-2.103,3.794h-0.969c-1.939,2.046-3.477,3.257-4.605,3.632
			c-1.131,0.379-2.022,1.051-2.667,2.02l-5.493,6.299c-1.079,1.074-1.995,2.045-2.75,2.906c-0.754,0.861-1.347,1.289-1.775,1.289
			l-1.293-1.289c0-0.216-0.216-0.324-0.645-0.324c-1.081,0-1.754,0.646-2.021,1.938c-0.27,1.292-0.835,2.421-1.698,3.39
			c-3.231,1.51-5.333,2.906-6.302,4.198l-0.969,0.324h-2.909c-1.4,0-2.369,1.049-2.909,3.147c-0.539,2.1-2.073,3.311-4.604,3.634
			c-2.532,0.323-4.337,0.969-5.414,1.938c-0.217,0.218-0.701,0.433-1.455,0.646c-0.755,0.217-2.263,1.077-4.524,2.584l-13.574,4.845
			c-1.079,0.538-1.778,0.807-2.101,0.807l-4.523,0.646c-0.649,0-1.294-0.43-1.94-1.291c-0.646-0.859-1.078-1.292-1.292-1.292
			l-2.909,0.969c-2.154,0.646-4.203,0.97-6.141,0.97c-1.08,0-2.266-0.377-3.557-1.131c-1.292-0.752-2.316-1.293-3.068-1.613
			c-3.126,0-5.333-2.424-6.625-7.269l-1.94,0.324c-0.431,0-1.884-3.82-4.362-11.466c-0.646-0.86-1.67-1.478-3.068-1.855
			c-1.4-0.377-2.099-1.426-2.099-3.148c0-4.846,1.05-8.101,3.148-9.77c2.1-1.667,3.254-2.932,3.472-3.795l2.258-8.395
			c0.429-0.324,0.969-1.398,1.614-3.23l3.711-6.782C207.732,137.302,208.701,135.418,210.208,132.403z M244.355,122.715
			l-1.938,0.969c-0.431,0.217-1.695,1.158-3.794,2.826c-2.1,1.67-4.146,3.015-6.136,4.037c-1.994,1.024-4.037,3.688-6.136,7.993
			c-2.1,4.307-3.149,6.782-3.149,7.427c0,0.646,0.323,0.969,0.969,0.969l5.489-2.422c2.043-0.969,3.956-2.205,5.732-3.714
			c1.776-1.506,4.332-3.335,7.67-5.489l1.291-1.292c0.215-0.429,1.211-1.211,2.987-2.341c1.776-1.13,3.093-2.233,3.957-3.31
			l1.614-0.646c1.829-2.906,3.686-4.683,5.57-5.329c1.882-0.646,2.826-1.292,2.826-1.938c0-1.292-1.023-1.938-3.068-1.938
			c-0.862,0-2.154,0.54-3.875,1.615h-3.713c-0.432,0-1.615,0.646-3.553,1.938L244.355,122.715z"/>
		<path fill="#FFFFFF" d="M275.655,295.969l-2.583,1.775c-1.075,0.647-2.206,0.969-3.391,0.969c-2.69,0-5.301-1.774-7.831-5.327
			c-2.528-3.554-3.795-7.214-3.795-10.979c0-6.782,0.674-11.602,2.019-14.452c1.348-2.854,2.127-4.979,2.341-6.378
			c0-0.108,1.158-2.773,3.472-7.992c2.316-5.223,4.495-9.178,6.539-11.869c2.047-2.691,3.77-5.221,5.167-7.588l0.646-1.291
			c1.614-2.584,3.177-4.359,4.683-5.329c0-0.646,2.07-2.882,6.216-6.7c4.143-3.822,8.046-7.08,11.707-9.769l1.614-2.263
			c2.583-1.612,4.09-2.42,4.521-2.42l9.363-2.586c0.861-0.858,2.96-2.526,6.298-5.004h1.292l4.359-1.291
			c2.366-1.076,6.045-2.072,11.036-2.988c4.986-0.913,7.82-1.99,8.502-3.229c0.68-1.235,1.256-2.396,1.725-3.472
			c0.471-1.073,1.648-3.334,3.533-6.781c0.428-1.829,0.809-3.281,1.129-4.357c0.324-1.076,0.672-1.722,1.051-1.938
			c0.377-0.216,0.994-1.265,1.857-3.149c0.859-1.881,1.719-3.471,2.582-4.763c0.215,0,0.324-0.106,0.324-0.323l-0.969-2.744
			c0.859-2.584,1.748-4.17,2.664-4.765c0.912-0.59,1.371-0.993,1.371-1.21l-1.131-2.906l2.746-5.975
			c0-0.429-0.217-0.646-0.646-0.646c-5.707,3.983-9.041,5.975-10.012,5.975c-0.539,0.754-1.721,2.046-3.547,3.875
			c-1.83,0.646-3.064,1.776-3.709,3.391l-1.289,0.323l-0.969,1.613c0,0.218-0.377,0.486-1.131,0.808
			c-0.752,0.323-2.254,1.187-4.51,2.585l-1.936-0.324c-0.432,0-0.969,1.078-1.611,3.23c-1.83,2.154-3.578,3.472-5.244,3.955
			c-1.665,0.484-2.711,1.051-3.141,1.695l-1.291,1.613l-1.611-0.32c-2.259,0-3.388,0.861-3.388,2.582c0,0.969-0.646,2.1-1.933,3.393
			c-0.862,0-1.938,0.32-3.224,0.969h-2.421c-1.073,2.367-3.01,3.821-5.803,4.358l-4.678,3.229l-2.739,0.97
			c-1.292,0.646-2.581,1.428-3.87,2.34c-1.292,0.916-3.494,1.481-6.61,1.697c-1.503-0.86-3.816-1.697-6.938-2.504
			c-3.12-0.807-5.328-6.055-6.619-15.744h-0.323c-0.86,0-1.802,0.323-2.826,0.972c-1.021,0.646-1.748,0.969-2.18,0.969
			c-2.583,0-3.875-1.075-3.875-3.229c0-4.844,1.832-8.019,5.489-9.525l4.037-5.006l10.334-10.174
			c7.229-7.209,12.082-11.839,14.564-13.885c2.482-2.043,5.18-4.037,8.095-5.974l8.252-5.49c2.806-1.829,4.531-2.826,5.18-2.987
			c0.646-0.162,1.322-0.51,2.023-1.05c0.7-0.538,2.669-1.344,5.907-2.422l2.912-1.292c6.041-2.044,9.926-3.068,11.65-3.068
			l2.268,0.323c1.186,0,2.318-0.429,3.396-1.292c1.512,0,3.832-1.183,6.961-3.552l5.826-1.615c1.617-0.537,2.967-0.807,4.047-0.807
			h3.068c2.262,0,3.74,1.776,4.439,5.329c0.701,3.553,1.318,5.328,1.859,5.328c0.213,0,0.859-0.807,1.938-2.422l2.26-1.615
			c1.615-1.075,2.637-1.615,3.068-1.615c2.584,0,4.197,1.077,4.844,3.229v0.323l0.646,0.808c0.969,5.167,1.453,8.343,1.453,9.526
			c0,5.167-1.105,9.204-3.312,12.11c-2.207,2.907-3.525,4.953-3.955,6.136c-2.154,8.72-4.307,15.287-6.459,19.699
			c-0.539,1.186-1.83,4.309-3.875,9.364l-1.613,1.616c-0.434,0.217-0.646,0.537-0.646,0.969l0.322,2.261
			c-1.832,2.906-2.744,5.222-2.744,6.94c0,0.97-0.865,2.965-2.592,5.976c0.217,0.217,1.16,0.782,2.83,1.694
			c1.672,0.916,3.555,2.642,5.654,5.169c2.1,2.528,3.148,4.439,3.148,5.731c0,0.322-0.592,2.422-1.777,6.297
			c-3.875,2.905-7.16,4.36-9.855,4.36c-1.078,0-2.645-0.703-4.691-2.101l-0.973,0.322v-0.646c-1.402-0.323-2.51-0.727-3.316-1.21
			c-0.811-0.485-1.592-0.728-2.348-0.728c-0.865,0-1.297,0.428-1.297,1.293c0,0.428,0.109,0.859,0.326,1.289
			c-0.648,0.539-1.512,1.346-2.592,2.424c0,0.323-0.756,1.908-2.266,4.765c-1.512,2.851-2.859,4.762-4.047,5.729
			c-2.369,0.106-3.984,1.883-4.844,5.329c-0.863,3.443-1.885,5.651-3.068,6.62l-1.615-0.646c-3.658,7.318-7.32,12.595-10.978,15.824
			c-2.261,0.536-3.419,0.939-3.472,1.211c-0.056,0.267-0.161,0.969-0.323,2.1c-0.161,1.131-1.453,2.906-3.875,5.326
			c-2.422,2.424-3.851,3.635-4.278,3.635l-1.615,0.322l-0.969,0.97c0.106,2.151-2.745,5.596-8.558,10.333
			c-3.123,1.721-4.791,2.906-5.006,3.554c-0.863,2.042-4.036,4.466-9.526,7.265l-3.067,2.744c-1.397,1.293-2.799,2.207-4.198,2.748
			L275.655,295.969z M333.926,212.976l-4.844,0.646c-1.185-0.862-2.098-1.292-2.744-1.292c-0.433,0-0.755,0.322-0.969,0.969
			c-1.293,1.723-4.146,3.176-8.56,4.36c-4.414,1.184-7.4,2.395-8.962,3.634c-1.562,1.234-2.879,1.909-3.954,2.018
			c-1.078,0.106-1.615,0.323-1.615,0.646c-1.077,0.859-1.885,1.613-2.422,2.26c-1.077,0.43-2.155,1.104-3.23,2.02
			c-1.077,0.914-2.207,1.479-3.391,1.693c-1.938,4.199-3.337,6.299-4.197,6.299c-0.218,0-0.755-0.108-1.615-0.324h-0.322
			c-1.401,2.799-2.478,4.414-3.23,4.845c-0.751,0.431-1.396,1.051-1.938,1.856c-0.536,0.809-1.586,1.696-3.147,2.666
			c-1.561,0.969-2.609,2.608-3.149,4.924c-0.538,2.313-1.211,3.875-2.019,4.685c-0.807,0.808-1.316,2.606-1.534,5.409l-0.969,2.259
			c-0.322,0.647-0.779,2.503-1.372,5.571c-0.59,3.066-0.888,4.654-0.888,4.764c0,1.505,0.646,2.852,1.938,4.037
			c0.431-0.541,1.348-0.918,2.744-1.131l9.527-3.875c0.322-0.217,1.506-1.213,3.553-2.988c2.043-1.775,3.847-2.933,5.409-3.472
			c1.559-0.539,2.987-1.509,4.278-2.906c0.86-1.29,1.91-2.368,3.149-3.228c1.235-0.865,1.962-1.938,2.179-3.23
			c2.476-2.154,4.735-4.174,6.781-6.057c2.044-1.885,3.363-3.444,3.956-4.682c0.591-1.24,1.534-2.289,2.826-3.148l0.646-2.1
			c0.215-0.108,0.671-0.242,1.372-0.403c0.7-0.161,1.858-1.912,3.472-5.247l4.359-7.268c2.584-2.582,4.685-5.867,6.298-9.85
			l2.262-1.938c0.428-0.218,0.645-0.701,0.645-1.453L333.926,212.976z M331.043,161.467l1.938-2.745
			c0.646-0.858,1.75-1.506,3.312-1.937c1.559-0.431,2.824-1.345,3.793-2.746c2.584-3.658,5.65-6.35,9.203-8.073l1.615-1.13
			c1.615-3.121,3.068-4.816,4.359-5.086c1.291-0.268,2.422-1.236,3.391-2.906c0.969-1.667,1.453-3.041,1.453-4.118
			c0-0.429-0.322-0.646-0.969-0.646c-1.508,0-2.824,0.432-3.957,1.292c-1.129,0.863-1.91,1.292-2.34,1.292l-3.229-0.323
			c-1.939,1.078-4.631,2.369-8.074,3.875l-2.906,2.422c-1.291,0.863-2.449,1.4-3.473,1.614c-1.023,0.217-1.803,0.889-2.34,2.019
			c-0.541,1.13-1.24,1.695-2.102,1.695l-1.291,0.646c-0.432,0.431-1.67,0.646-3.714,0.646c-1.077,0.646-2.179,1.562-3.31,2.745
			c-1.131,1.186-1.805,1.777-2.02,1.777c-2.478,2.691-4.602,4.359-6.378,5.006c-1.774,0.645-2.934,1.562-3.472,2.742
			c-2.046,0.541-3.77,1.753-5.166,3.635c-1.401,1.885-2.665,3.177-3.796,3.875c-1.129,0.703-2.126,1.59-2.986,2.665l-1.614,1.292
			c-0.646,0.431-1.534,1.855-2.665,4.277c-1.13,2.422-1.694,4.117-1.694,5.086c0,0.646,0.375,0.97,1.129,0.97
			c1.075,0,3.094-0.78,6.056-2.341c2.96-1.56,4.869-2.771,5.731-3.635c0.859-0.859,1.453-1.291,1.776-1.291l6.136,0.322
			c0.646-1.396,1.749-2.312,3.311-2.744c1.561-0.428,2.771-1.346,3.633-2.744c0.86-1.398,3.282-2.906,7.267-4.521l1.776-2.906
			L331.043,161.467L331.043,161.467z"/>
		<path fill="#FFFFFF" d="M373.053,142.252l2.59-2.26h0.969c0.752,0,1.885-0.807,3.395-2.422l1.617-0.646
			c2.154-3.229,4.039-5.111,5.656-5.651l2.588-1.938c0.43-0.429,1.051-0.808,1.855-1.13c0.809-0.323,2.104-1.373,3.881-3.148
			c1.775-1.776,3.205-2.665,4.283-2.665s1.941,0.108,2.586,0.323c0.646-1.292,1.939-2.556,3.879-3.794
			c1.941-1.236,3.506-2.717,4.689-4.44l2.102-0.969c1.725-0.86,3.26-1.963,4.605-3.31c1.348-1.345,3.098-2.019,5.256-2.019
			c3.123,0,6.383,1.59,9.773,4.763c3.391,3.176,5.086,6.217,5.086,9.123l-2.746,12.594c-1.832,9.259-3.875,14.103-6.135,14.532
			l-0.646,3.391c-1.508,1.077-2.26,1.938-2.26,2.584l0.969,3.875c0,0.539-0.594,1.349-1.777,2.422c-0.217,0-0.32,0.323-0.32,0.97
			v6.621c0,1.184-0.756,2.154-2.264,2.905c0.217,0.218,0.539,0.431,0.971,0.646c0.645-0.646,2.1-0.969,4.359-0.969l2.58,0.323
			l3.549-3.554c0.752-0.213,1.799-0.727,3.143-1.533c1.344-0.809,3.629-1.855,6.855-3.148l21.123-16.146
			c2.902-2.906,5.105-4.359,6.611-4.359c1.611,0,2.418,1.024,2.418,3.068c0,2.369-0.457,4.334-1.371,5.894
			c-0.916,1.562-1.752,3.446-2.504,5.65c-0.754,2.208-1.643,3.742-2.664,4.603c-1.021,0.864-1.854,1.805-2.5,2.826
			c-0.645,1.023-2.396,2.504-5.246,4.44c-2.854,1.938-5.275,3.901-7.268,5.894c-1.99,1.994-3.631,3.418-4.922,4.279l-6.941,5.004
			l-0.969,1.616c-0.215,0.217-1.211,0.674-2.986,1.372c-1.777,0.699-3.365,1.589-4.764,2.664l-2.902,1.613
			c-0.646,0.434-1.697,0.7-3.148,0.808c-1.453,0.108-2.721,0.728-3.795,1.858c-1.076,1.129-1.938,1.694-2.584,1.694l-2.422-0.323
			l-3.227,0.969c-1.832,0-4.066-1.102-6.701-3.31c-2.639-2.206-3.957-4.547-3.957-7.024v-0.969l0.324-2.26
			c0-0.431-0.324-1.533-0.969-3.311c-0.646-1.777-0.971-2.771-0.971-2.988l0.322-2.262l-0.322-0.969
			c0-2.906,0.215-4.734,0.646-5.488c0.43-0.752,0.752-1.801,0.969-3.147c0.215-1.346,0.43-2.448,0.646-3.312l0.809-4.036
			c0.43-1.291,0.969-2.151,1.613-2.584c0.215-0.86,0.646-2.313,1.293-4.359l0.645-2.906l1.615-2.261
			c0.859-0.86,1.371-2.018,1.533-3.471c0.162-1.454,0.727-2.987,1.695-4.602c0.969-1.614,1.453-2.583,1.453-2.906
			c0-1.292-0.646-1.938-1.938-1.938c-0.432,0-1.777,0.863-4.037,2.583l-2.91-0.969c-0.217,0-0.807,0.54-1.773,1.615
			c0,0.431-0.484,0.754-1.453,0.969c-0.971,0.217-1.887,1.024-2.746,2.422l-1.293,0.323l-2.102-0.969h-0.645
			c-1.078,0-1.723,1.186-1.939,3.552c-1.186,1.723-2.746,2.854-4.684,3.391l-3.553,0.969c-1.186,0.432-2.045,1.4-2.586,2.907
			c-0.541,1.508-1.615,2.881-3.23,4.117c-1.615,1.239-2.691,1.858-3.229,1.858c-3.016,0-4.523-1.669-4.523-5.006l1.295-7.589
			L373.053,142.252z M442.809,61.519l-0.971-6.298v-0.969c0-5.058,1.721-7.856,5.168-8.396c0.752-0.106,3.012-0.807,6.781-2.099
			c1.938,0.432,3.957,2.127,6.055,5.086c2.102,2.962,3.148,5.571,3.148,7.831c0,0.217-0.16,0.702-0.484,1.454
			c-0.322,0.754-0.539,2.18-0.645,4.278c-0.109,2.1-1.158,3.931-3.148,5.49c-1.994,1.562-4.117,2.341-6.379,2.341
			c-1.51,0-3.418-1.05-5.732-3.148C444.288,64.991,443.024,63.133,442.809,61.519z"/>
		<path fill="#FFFFFF" d="M615.346,166.472h0.646l1.619,0.647c0.215,0,0.428-0.106,0.645-0.323c0-1.829,0.863-3.393,2.592-4.683
			c0.539-2.044,1.754-3.606,3.641-4.685c1.889-1.074,4.883-2.851,8.984-5.328l4.043-3.552l1.943-0.969l1.295-1.615
			c1.188-1.397,2.318-2.099,3.398-2.099c1.617,0,2.426,0.593,2.426,1.776l-1.455,3.229l0.648,5.329c0,1.938-0.674,3.66-2.021,5.166
			c-1.348,1.509-3.424,3.715-6.225,6.621l-8.248,8.72l-4.363,2.259c-1.08,0.647-2.049,1.401-2.91,2.262l-6.307,5.33
			c0,1.506-0.484,2.637-1.453,3.39h-2.588l-1.293,0.646c-0.756,2.047-2.967,4.037-6.631,5.975l-2.262,1.615
			c-0.758,0.646-1.457,0.969-2.104,0.969l-4.527-0.646l-3.07,0.646c-0.863,0-2.023-0.43-3.477-1.293
			c-1.455-0.859-2.938-1.533-4.445-2.018c-1.51-0.484-3.424-2.477-5.738-5.975c-2.318-3.496-3.586-5.786-3.803-6.863
			c0-0.429-0.242-1.154-0.729-2.18c-0.484-1.021-0.727-1.641-0.727-1.857c0-0.213,0.484-1.29,1.455-3.229v-0.323
			c0-0.323-0.297-1.075-0.891-2.261c-0.592-1.183-0.887-2.637-0.887-4.358c0-0.969-0.324-2.206-0.971-3.714
			c0.861-0.86,1.291-1.507,1.291-1.938s-0.16-1.052-0.482-1.857c-0.322-0.807-0.484-1.426-0.484-1.857l0.969-7.912l-0.643-4.037
			l0.32-3.875c0-2.261-0.967-3.391-2.898-3.391c-0.855,0-1.928,0.593-3.217,1.776l-1.123,0.323c-2.896,1.4-4.936,2.559-6.117,3.472
			c-1.18,0.916-2.414,1.373-3.699,1.373c-0.645,0.646-1.879,1.239-3.701,1.776l-1.287,0.969c-0.43,0.431-1.287,1.078-2.574,1.938
			c0,0.323-2.012,2.127-6.033,5.41c-4.021,3.284-7.643,6.377-10.861,9.283s-5.551,4.496-7,4.765
			c-1.447,0.271-2.172,1.644-2.172,4.116c0,0.434-0.965,1.293-2.895,2.583c-0.215,0-1.34,1.187-3.379,3.554
			c-1.715-1.293-2.684-1.938-2.896-1.938c-1.402,0-2.428,1.775-3.074,5.326c-0.648,1.4-2.375,2.262-5.18,2.586
			c-0.217,0.107-0.596,0.914-1.137,2.42l-0.646,0.646h-1.619c-0.217,0-0.971,0.621-2.266,1.856c-1.297,1.237-2.43,2.02-3.4,2.341
			c-1.402,2.906-2.592,4.359-3.561,4.359c-0.434,0-1.055-0.215-1.861-0.646c-0.811-0.43-1.807-0.81-2.992-1.13
			c-1.186-0.324-2.502-1.641-3.955-3.957c-1.453-2.312-2.182-4.279-2.182-5.893c0-11.949,2.314-18.461,6.943-19.539l0.322-0.646
			v-1.291c0-1.397,0.619-2.394,1.857-2.987c1.236-0.591,2.502-1.775,3.795-3.553c1.291-1.775,2.15-2.771,2.582-2.987h2.1
			c0.43,0,0.646-1.13,0.646-3.391c0-0.646,0.268-1.236,0.807-1.776c0.537-0.538,0.861-1.317,0.969-2.341
			c0.105-1.021,0.889-2.689,2.342-5.006c1.453-2.313,2.18-3.686,2.18-4.117l-0.32-0.646c-2.693,2.477-4.631,3.822-5.814,4.036
			c-1.186,0.217-2.801,1.776-4.844,4.683l-2.584-0.484c-4.525,3.338-7.328,5.222-8.408,5.651c-1.08,0.432-2.268,1.67-3.561,3.715
			c0,0.646-0.379,1.077-1.137,1.291c-0.758,0.218-2.158,1.077-4.209,2.583H473.5c-2.701,0-4.051-1.937-4.051-5.812l3.389-9.204
			c0.967-2.907,3.252-5.354,6.855-7.347c3.602-1.991,6.639-3.9,9.113-5.732c2.475-1.829,4.947-2.798,7.424-2.907l1.127-1.615
			c3.656-1.397,6.129-3.605,7.42-6.62c1.293-3.012,3.064-4.521,5.326-4.521c5.914,0,10.434,2.18,13.551,6.54
			c3.119,4.359,4.678,7.831,4.678,10.415l0.322,4.36c0,1.508-0.322,3.607-0.967,6.297c-1.291,1.938-1.938,3.391-1.938,4.359
			c0,0.863,0.537,1.292,1.615,1.292c0.643,0,1.502-0.457,2.578-1.372c1.074-0.914,2.285-1.749,3.631-2.503
			c1.344-0.752,2.123-1.398,2.34-1.938c1.076-2.584,2.955-4.36,5.645-5.329s4.357-1.776,5.004-2.422l1.611-1.292l1.291-2.422
			c2.902-1.292,4.838-2.475,5.807-3.552c0.969-1.075,2.258-1.776,3.873-2.099c1.613-0.323,3.443-1.292,5.486-2.907l2.42-0.646
			l2.26-1.292c0.213-0.214,0.859-0.484,1.934-0.807c1.076-0.323,2.662-0.888,4.76-1.695c2.096-0.808,3.521-1.211,4.275-1.211
			c5.484,0,9.811,2.208,12.984,6.62c3.176,4.415,4.762,7.967,4.762,10.657l-0.322,2.906l0.645,4.359v0.646l-1.293,8.88l0.324,3.069
			c0,5.06-1.078,8.558-3.229,10.494c-0.541,0.217-0.809,0.756-0.809,1.614v1.453l3.23,6.781c0.969,2.369,1.723,3.553,2.264,3.553
			l5.18-1.453c1.508-0.428,2.748-1.56,3.725-3.391c0.861-0.43,2.371-1.72,4.531-3.875
			C612.917,167.334,613.942,166.472,615.346,166.472z"/>
	</g>
</g>
</svg>
