<?xml version="1.0" encoding="utf-8"?>
<!-- Generator: Adobe Illustrator 16.2.1, SVG Export Plug-In . SVG Version: 6.00 Build 0)  -->
<!DOCTYPE svg PUBLIC "-//W3C//DTD SVG 1.1//EN" "http://www.w3.org/Graphics/SVG/1.1/DTD/svg11.dtd">
<svg version="1.1" id="Layer_1" xmlns="http://www.w3.org/2000/svg" xmlns:xlink="http://www.w3.org/1999/xlink" x="0px" y="0px"
	 width="566.209px" height="225.107px" viewBox="0 0 566.209 225.107" enable-background="new 0 0 566.209 225.107"
	 xml:space="preserve">
<g>
	<g>
		<path fill="#4F67B0" d="M36.978,218.661c-19.69,0-31.891-4.822-32.639-5.126l4.185-10.301l4.111-10.328
			c0.211,0.082,21.429,8.106,52.851-0.401c14.908-4.038,18.464-23.891,21.859-51.497c1.892-15.381,3.678-29.908,9.326-40.892
			c8.018-15.589,19.418-26.934,32.968-32.805c14.769-6.4,30.942-5.83,46.773,1.645l-9.495,20.106
			c-7.466-3.525-33.172-12.416-50.473,21.225c-3.836,7.459-5.46,20.665-7.031,33.436c-3.396,27.617-7.624,61.987-38.115,70.245
			C58.344,217.475,46.738,218.661,36.978,218.661z"/>
	</g>
</g>
<g>
	<path fill="#4F67B0" d="M322.023,65.333l-11.174,89.439c-2.527,19.702-7.25,34.12-14.166,43.253
		c-11.106,14.222-26.534,21.332-46.286,21.332c-15.829,0-28.958-4.696-39.387-14.091c-10.188-9.523-15.28-21.332-15.28-35.425
		c0-3,0.112-6.164,0.338-9.49c0.225-3.326,0.564-6.851,1.016-10.569l10.25-84.449h22.413l-10.874,86.629
		c-0.333,2.591-0.583,4.986-0.748,7.188c-0.167,2.201-0.25,4.241-0.25,6.118c0,9.971,2.859,17.838,8.579,23.601
		c5.786,5.762,13.632,8.643,23.543,8.643c11.572,0,20.35-3.626,26.335-10.877c5.985-7.316,10.041-19.196,12.17-35.643l10.773-85.658
		H322.023z"/>
	<path fill="#4F67B0" d="M400.731,154.416l38.705,64.941h-24.141l-36.511-63.346h-8.28l-7.781,63.346h-22.844l18.953-154.024h30.227
		c9.842,0,17.657,0.898,23.443,2.693c5.719,1.663,10.706,4.723,14.963,9.178c8.046,8.247,12.071,18.888,12.071,31.922
		C439.537,133.001,426.6,148.098,400.731,154.416z M379.881,87.179l-5.985,49.479h10.475c7.714,0,13.467-0.731,17.258-2.194
		c4.056-1.463,7.447-3.956,10.176-7.482c3.724-4.921,5.586-10.706,5.586-17.357c0-7.781-2.244-13.467-6.733-17.059
		c-4.489-3.591-11.557-5.387-21.198-5.387H379.881z"/>
	<path fill="#4F67B0" d="M556.85,65.333l-2.594,21.847h-53.271l-4.888,38.605h53.271l-2.395,20.251h-53.37l-8.978,73.321H462.48
		l18.471-154.024H556.85z"/>
</g>
<g>
	<path fill="#4F67B0" d="M146.82,15.262h18.792l-14.536,37.782h-18.792L146.82,15.262z M152.32,0.89h18.792l-3.536,9.25h-18.792
		L152.32,0.89z"/>
	<path fill="#4F67B0" d="M184.339,15.262h17.81l-1.833,4.91c4.453-2.087,8.61-3.575,12.474-4.465
		c3.863-0.889,7.933-1.334,12.212-1.334c5.718,0,10.225,0.889,13.521,2.668c3.295,1.779,4.944,4.139,4.944,7.08
		c0,1.329-0.72,3.842-2.161,7.542l-8.185,21.381h-18.792l8.25-21.453c1.222-3.202,1.833-5.111,1.833-5.728
		c0-1.304-0.71-2.331-2.128-3.078c-1.419-0.747-3.395-1.121-5.926-1.121c-2.75,0-5.806,0.629-9.167,1.886
		c-3.362,1.257-6.003,2.917-7.923,4.98c-1.398,1.471-2.969,4.471-4.715,9.001l-5.958,15.511h-18.792L184.339,15.262z"/>
	<path fill="#4F67B0" d="M299.909,15.262l-2.881,7.471h-13.292l-11.655,30.311h-18.792l11.655-30.311h-10.477l2.881-7.471h10.477
		l1.506-3.877c1.222-3.178,2.379-5.324,3.471-6.439c1.483-1.518,3.699-2.722,6.646-3.611C282.393,0.445,286.245,0,291.003,0
		c5.763,0,11.829,0.569,18.203,1.708l-3.667,7.293c-4.496-0.83-8.142-1.245-10.935-1.245c-2.14,0-3.732,0.368-4.78,1.103
		c-0.698,0.475-1.419,1.72-2.161,3.735l-1.047,2.668H299.909z"/>
	<path fill="#4F67B0" d="M310.647,15.262h18.793l-14.537,37.782h-18.792L310.647,15.262z M316.147,0.89h18.793l-3.536,9.25h-18.792
		L316.147,0.89z"/>
	<path fill="#4F67B0" d="M348.166,15.262h17.811l-1.833,4.91c4.452-2.087,8.61-3.575,12.474-4.465
		c3.863-0.889,7.933-1.334,12.211-1.334c5.719,0,10.226,0.889,13.521,2.668s4.944,4.139,4.944,7.08c0,1.329-0.721,3.842-2.161,7.542
		l-8.185,21.381h-18.793l8.251-21.453c1.221-3.202,1.833-5.111,1.833-5.728c0-1.304-0.71-2.331-2.128-3.078
		c-1.419-0.747-3.395-1.121-5.926-1.121c-2.75,0-5.807,0.629-9.167,1.886c-3.362,1.257-6.003,2.917-7.923,4.98
		c-1.397,1.471-2.97,4.471-4.715,9.001l-5.958,15.511h-18.793L348.166,15.262z"/>
	<path fill="#4F67B0" d="M429.818,15.262h18.793l-14.537,37.782h-18.792L429.818,15.262z M435.318,0.89h18.793l-3.536,9.25h-18.792
		L435.318,0.89z"/>
	<path fill="#4F67B0" d="M457.253,22.84l2.881-7.578h9.167l2.292-6.048l21.542-7.044l-5.042,13.092h11.459l-2.881,7.578h-11.524
		l-6.09,15.831c-1.092,2.87-1.637,4.507-1.637,4.91c0,0.783,0.458,1.394,1.375,1.832c0.917,0.439,2.575,0.658,4.977,0.658
		c0.829,0,2.902-0.083,6.221-0.249l-2.947,7.578c-3.23,0.355-6.548,0.534-9.952,0.534c-6.636,0-11.459-0.694-14.471-2.082
		c-3.013-1.387-4.519-3.314-4.519-5.781c0-1.162,0.808-3.842,2.423-8.04l5.828-15.191H457.253z"/>
	<path fill="#4F67B0" d="M564.9,37.32h-47.145c-0.044,0.403-0.065,0.711-0.065,0.925c0,2.514,1.319,4.542,3.961,6.083
		c2.641,1.542,5.86,2.312,9.658,2.312c6.242,0,11.109-1.755,14.602-5.265l16.828,1.53c-3.273,3.676-7.65,6.434-13.128,8.271
		c-5.479,1.838-11.623,2.757-18.433,2.757c-9.342,0-16.938-1.607-22.786-4.821c-5.851-3.213-8.774-7.465-8.774-12.754
		c0-5.17,2.641-9.771,7.923-13.804c7.202-5.455,17.482-8.183,30.841-8.183c8.512,0,15.277,1.429,20.298,4.287
		c5.02,2.858,7.53,6.86,7.53,12.007C566.209,33.134,565.772,35.352,564.9,37.32z M549.054,31.094
		c0.043-0.45,0.065-0.794,0.065-1.032c0-2.798-1.157-4.897-3.471-6.297c-2.314-1.399-5.413-2.099-9.298-2.099
		c-3.886,0-7.366,0.795-10.443,2.384c-3.078,1.589-5.163,3.937-6.254,7.044H549.054z"/>
</g>
</svg>
