<?xml version="1.0" encoding="utf-8"?>
<!-- Generator: Adobe Illustrator 16.2.1, SVG Export Plug-In . SVG Version: 6.00 Build 0)  -->
<!DOCTYPE svg PUBLIC "-//W3C//DTD SVG 1.1//EN" "http://www.w3.org/Graphics/SVG/1.1/DTD/svg11.dtd">
<svg version="1.1" id="Layer_1" xmlns="http://www.w3.org/2000/svg" xmlns:xlink="http://www.w3.org/1999/xlink" x="0px" y="0px"
	 width="554.667px" height="344px" viewBox="0 0 554.667 344" enable-background="new 0 0 554.667 344" xml:space="preserve">
<g id="Layer_1_1_">
	<g>
		<path d="M14.471,135.858l0.924-0.77h0.924c0.616-0.616,0.924-1.025,0.924-1.232c0-0.409-0.154-0.82-0.462-1.232
			c-0.308-0.409-0.462-0.82-0.462-1.232c0-2.155,0.975-3.642,2.926-4.465c-0.308-0.82-0.462-2.052-0.462-3.695
			c0-0.924,0.435-1.848,1.309-2.771c0.871-0.924,1.667-2.694,2.387-5.312c0.719-2.618,2.259-4.131,4.622-4.542v-0.616l-0.616-1.694
			c0-0.616,0.409-1.54,1.231-2.771v-1.54c0-1.333,0.667-2.156,2.002-2.464c1.335-0.308,2.004-0.667,2.004-1.078
			c0-1.232,0.871-2.719,2.618-4.465l-0.616-2.464c0-0.82,0.924-1.949,2.771-3.387c3.387-3.388,5.083-5.952,5.083-7.699v-1.54
			c0-0.924,1.487-2.617,4.465-5.081c0-0.205,0.101-0.308,0.308-0.308l2.158,0.308c0.409-1.436,0.717-2.95,0.924-4.542
			c0.205-1.59,2.206-4.027,6.007-7.313l0.308-1.078c1.437-1.949,2.257-2.976,2.464-3.079l1.386-0.308
			c1.231-2.156,2.052-3.746,2.463-4.773c0.412-1.025,0.926-1.59,1.542-1.694c0.616-0.101,1.206-0.462,1.771-1.078
			c0.563-0.616,1.359-1.025,2.387-1.232c1.333-1.744,2.591-3.541,3.772-5.389c1.181-1.848,2.851-3.438,5.006-4.773
			c0.409-3.796,1.489-5.697,3.236-5.697l2.156,0.308c0.82-2.36,3.542-5.286,8.163-8.777l5.697-4.157h0.924
			C97.23,22.02,98,21.2,99.028,19.761l2.156-1.54c0.204-1.949,1.128-2.925,2.771-2.925h1.386c2.052-3.181,5.594-5.286,10.626-6.313
			c0.616,0.207,1.41,0.411,2.387,0.616c0.975,0.207,1.771,0.977,2.387,2.31l1.54,2.771c0.409,1.439,0.82,2.156,1.234,2.156
			l2.001-1.848c6.26-1.128,11.907-3.438,16.94-6.929c1.744,0.411,2.873,0.616,3.387,0.616c0.513,0,1.078,0.207,1.694,0.616h0.616
			c0.205,0,0.948-0.359,2.233-1.078c1.285-0.717,2.028-1.078,2.235-1.078l5.082,0.308l4.619,0.924l6.469-0.308
			c2.052,0,4.773,1.285,8.161,3.849c1.128,2.363,2.334,3.722,3.619,4.081c1.282,0.361,3.08,3.183,5.389,8.469
			c2.31,5.288,3.464,8.752,3.464,10.393v2.618l-0.616,4.927l0.308,3.542c0,1.643-0.411,2.952-1.232,3.926
			c-0.823,0.977-1.231,2.49-1.231,4.542c0,3.079-1.258,7.263-3.772,12.549c-2.517,5.288-3.772,8.803-3.772,10.547
			c-2.463,6.467-4.364,9.7-5.697,9.7l-3.387,8.777c-0.823,2.055-1.775,3.414-2.854,4.08c-1.078,0.669-2.028,1.309-2.851,1.925
			l0.308,4.465c0,1.027-1.388,2.618-4.162,4.773c-0.823,1.848-1.669,3.671-2.543,5.466c-0.876,1.797-2.031,3.209-3.469,4.234
			c-3.599,4.723-6.015,8.521-7.247,11.394c-0.411,0.412-1.335,1.131-2.774,2.156c-2.569,3.183-4.65,6.032-6.243,8.546
			c-1.593,2.517-3.212,4.388-4.857,5.62l-2.158,2.31c-0.924,1.027-2.107,1.747-3.546,2.155c0.207,0.412,0.31,0.924,0.31,1.54
			c0,2.155-1.157,3.927-3.469,5.312c-2.314,1.386-3.777,2.489-4.393,3.311l-6.63,6.312c-0.616,0.411-1.413,1.335-2.389,2.771
			c-0.977,1.438-1.98,2.618-3.005,3.542l-2.161,3.387c-6.886,4.619-10.482,6.93-10.79,6.93c-0.308,0.207-0.926,1.285-1.85,3.234
			l-2.928,0.924c-1.646,3.387-3.96,5.389-6.938,6.005l-1.537,0.614c-0.207,0.412-0.669,0.771-1.386,1.078
			c-0.717,0.309-1.359,0.644-1.922,1.002c-0.563,0.36-2.026,0.898-4.384,1.617l-3.382,1.076l-1.54-0.308
			c-0.409,2.259-1.641,3.388-3.69,3.388h-1.691c-0.411,0.309-1.335,0.719-2.769,1.23l-0.616,0.309
			c-0.717,1.54-1.128,2.311-1.229,2.311l-4.769-0.309c-1.641,0.823-2.719,1.23-3.231,1.23c-0.205,0-0.717-0.101-1.538-0.308
			l-1.537,1.54c-1.437-0.82-2.257-1.232-2.461-1.232l-1.078,0.31c-2.461,0.615-4.307,0.924-5.536,0.924l-1.999-0.616
			c-2.873-1.437-4.564-2.154-5.077-2.154l-5.844,0.308c-0.207,0-0.9-0.64-2.079-1.925c-1.179-1.282-2.846-2.643-5-4.08
			c-2.156-1.438-4.309-4.516-6.464-9.238c-2.156-4.721-3.233-7.75-3.233-9.085l-0.924-8.776l0.308-2.617L7.85,164.19
			c0-2.565,1.025-5.286,3.08-8.161c-0.207-1.539-0.308-2.719-0.308-3.541v-2.156l0.308-3.541c0-1.54,0.77-2.976,2.31-4.312
			l-0.308-3.85C13.444,138.014,13.957,137.09,14.471,135.858z M89.755,168.655l0.311-0.771v-1.848c0-1.745,1.282-2.771,3.852-3.08
			c1.232-1.333,2.389-3.002,3.467-5.004c1.078-2.002,1.927-3.003,2.545-3.003h1.54c0.616,0,0.926-0.204,0.926-0.615l-0.311-2.464
			c0.616-1.025,1.927-2.591,3.931-4.696c2.002-2.103,3.979-4.285,5.933-6.544c1.951-2.257,3.647-4.516,5.086-6.775
			c1.438-2.257,2.824-4.182,4.162-5.774c1.335-1.59,2.336-2.899,3.005-3.927c0.669-1.025,2.031-2.103,4.085-3.233l0.616-0.616v-3.08
			c0-0.205,1.181-2.103,3.544-5.697c3.597-2.771,5.55-5.105,5.858-7.006c0.308-1.898,1.078-3.695,2.31-5.389
			c1.231-1.693,2.054-3.156,2.468-4.388c1.747-1.025,2.62-1.744,2.62-2.156l1.231-2.155c0.823-1.745,1.439-3.234,1.85-4.465
			l2.62-2.464c1.437-1.949,2.31-3.926,2.618-5.928s1.051-3.258,2.232-3.772c1.179-0.513,1.771-0.975,1.771-1.386
			c0-0.205-0.207-0.821-0.616-1.848v-0.77c0-1.025,0.616-2.156,1.848-3.388c2.464-5.028,3.874-8.238,4.234-9.624
			c0.359-1.386,1.155-3.002,2.387-4.85l-0.616-4.157c0-0.616,0.616-1.641,1.848-3.08c-0.823-2.976-1.232-4.566-1.232-4.773
			c0-0.616,0.513-2.103,1.54-4.465l-0.308-3.08l0.616-2.002c0-1.641-0.924-3.387-2.771-5.235c0-3.181-2.875-4.773-8.623-4.773
			l-2.771,0.308l-6.01-0.924c-6.888,2.979-11.515,4.465-13.877,4.465c-1.234,0-2.596,0.823-4.088,2.463
			c-1.492,1.643-2.338,2.464-2.543,2.464l-1.542-0.616h-0.616c-0.722,0-1.184,0.847-1.388,2.541
			c-0.207,1.694-1.157,2.952-2.853,3.772c-1.696,0.823-4.239,2.825-7.631,6.005c-3.393,3.183-5.63,5.673-6.708,7.468
			c-1.081,1.797-2.392,3.286-3.934,4.465c-1.542,1.181-2.596,3.029-3.162,5.543c-0.565,2.517-1.516,4.696-2.851,6.544L94.2,68.26
			v2.31c0,0.616-0.719,1.335-2.158,2.156l0.616,1.848l-0.308,1.848l0.308,2.618l-0.616,3.695l1.54,7.083
			c0,7.906-2.928,11.856-8.784,11.856c-2.259,0-3.979-0.409-5.158-1.231c-1.181-0.82-2.105-3.104-2.771-6.852
			c-0.669-3.746-1.001-6.082-1.001-7.006c0-0.101,0.436-1.771,1.309-5.004c0.871-3.233,1.617-5.259,2.232-6.082
			c0.616-0.82,0.924-1.54,0.924-2.155c0-0.205-0.104-0.409-0.308-0.616c2.256-1.641,3.669-3.565,4.234-5.774
			c0.562-2.206,1.563-4.489,3.002-6.852c3.392-3.9,7.193-10.008,11.409-18.323c1.234-1.232,3.341-3.027,6.322-5.389
			c0.101-0.924,0.924-2.156,2.469-3.696l2.158-2.925l3.546-3.08c1.643-1.025,2.877-2.103,3.7-3.233
			c-3.084,0.515-5.707,1.593-7.865,3.233l-4.932,3.85c-1.544,1.335-2.779,2.182-3.703,2.541c-0.924,0.361-1.874,1.285-2.851,2.771
			c-0.977,1.489-2.03,2.748-3.161,3.772c-1.131,1.027-2.338,2.387-3.623,4.08c-1.285,1.694-2.339,2.748-3.162,3.157
			c-1.641,0.411-2.716,1.9-3.226,4.465c-0.616,1.027-1.54,2.259-2.767,3.695l-0.924,2.618c-0.409,0.616-1.049,1.335-1.92,2.156
			c-0.871,0.823-1.819,1.951-2.844,3.387c-2.459,1.54-3.792,2.31-3.996,2.31c0.204,0.616,0.308,1.335,0.308,2.156
			c0,0.411-0.948,2.105-2.844,5.081c-1.896,2.979-3.226,5.57-3.994,7.776c-0.77,2.208-1.665,3.619-2.689,4.234
			c-1.024,0.615-2.077,2.541-3.152,5.774c-1.076,3.233-2.817,6.494-5.226,9.777c-2.408,3.287-3.765,5.339-4.073,6.159
			c-0.308,0.823-1.484,2.618-3.534,5.389c-1.229,2.67-1.997,4.773-2.305,6.313l-2.459,2.463l-3.534,11.702
			c0,0.308-0.515,0.924-1.54,1.848c-0.515,3.079-1.335,5.081-2.464,6.005c0,0.823-0.207,1.694-0.616,2.618l-1.232,4.311
			l-2.618,2.926v0.616l0.616,1.54v0.616c0,0.823-0.565,2.232-1.694,4.234c-1.131,2.002-1.747,4.542-1.848,7.622
			c-0.104,3.079-0.438,5.185-1.001,6.312c-0.565,1.131-0.9,2.336-1.001,3.618c-0.103,1.285-0.257,2.233-0.462,2.849l0.616,2.465
			l-0.616,4.772c0,0.104,0.231,0.592,0.693,1.463c0.462,0.873,0.693,1.412,0.693,1.616l-0.77,2.002
			c-0.207,0.207-0.308,0.411-0.308,0.615c0,3.595,1.744,6.059,5.235,7.392c3.488,1.335,6.26,2.002,8.314,2.002
			c1.742,0,4.764-0.771,9.068-2.312c4.302-1.539,7.119-3.002,8.452-4.387c1.333-1.387,2.793-2.388,4.381-3.004
			c1.588-0.615,2.995-1.386,4.227-2.31c2.252-2.872,3.967-4.412,5.146-4.619c1.179-0.204,2.947-1.485,5.305-3.851l1.843-0.924
			c1.126-2.052,1.792-3.078,1.999-3.078l2.158-1.387c1.439-2.668,2.466-4.004,3.082-4.004l2.312,0.309
			c0.205,0,0.409-0.102,0.616-0.309C87.186,169.683,88.11,169.271,89.755,168.655z"/>
		<path d="M145.566,160.341v-0.616l0.921-0.924c0-0.616,0.59-1.616,1.769-3.002c1.179-1.387,1.922-2.488,2.23-3.311
			c0.308-0.82,0.82-1.438,1.537-1.848c0.717-0.409,1.357-1.155,1.92-2.232c0.563-1.078,1.768-2.129,3.614-3.157l15.681-19.863
			c1.742-2.156,3.022-3.643,3.845-4.465c3.38-4.208,6.096-9.238,8.146-15.089c0.409-0.616,1.025-1.232,1.846-1.848
			c2.572-5.028,4.939-10.726,7.1-17.091l1.542-2.464c0.104-0.308,0.979-1.975,2.625-5.004c1.646-3.027,2.853-4.952,3.625-5.774
			c0.772-0.82,1.518-2.718,2.24-5.697l3.39-6.775c0.924-2.052,2.31-5.336,4.157-9.854c2.564-0.924,3.849-1.487,3.849-1.694
			c0-0.409-0.154-0.871-0.462-1.386c-0.308-0.513-0.565-0.975-0.77-1.386c0.409-1.437,1.231-2.618,2.463-3.542l0.616-0.616
			c0-0.409,0.409-1.232,1.231-2.464l0.308-0.924c1.848-4.104,4.234-7.545,7.16-10.316c2.926-2.771,5.721-4.157,8.392-4.157
			c2.464,0,3.85,0.924,4.158,2.771c0.308,1.848,0.794,3.363,1.462,4.542c0.667,1.181,1.001,2.387,1.001,3.618v3.85l-0.924,13.242
			c0,0.207,0.101,0.616,0.308,1.232c-0.924,0.823-1.489,1.9-1.694,3.233l-6.313,16.938c-0.515,0.104-1.593,1.693-3.233,4.773
			l-2.31,4.465c-2.464,4.723-4.364,7.444-5.697,8.161l-0.924,1.232c-1.131,1.643-2.105,2.463-2.925,2.463
			c0,2.567-0.9,4.696-2.695,6.39c-1.797,1.694-3.156,3.594-4.08,5.697c-0.924,2.105-2.671,3.772-5.235,5.004
			c-0.823,1.644-1.848,3.44-3.08,5.389l-6.929,9.393c-1.848,2.567-3.26,5.673-4.234,9.315c-0.977,3.645-1.978,6.236-3.002,7.776
			l-0.616,1.54c-2.362,1.439-3.542,2.31-3.542,2.618c0,0.515-0.207,2.156-0.616,4.928c-0.823,2.155-1.335,3.336-1.54,3.541
			l0.308,3.388l-2.001,0.308c-0.207,0.207-0.515,1.078-0.924,2.618v3.079l0.308,0.308c0.409,0,0.871-0.717,1.386-2.155
			c1.436-1.025,3.284-2.103,5.543-3.233l1.078-0.616c0.82-2.464,1.641-4.004,2.464-4.619l3.08-4.157l4.465-3.85
			c4.208-4.104,6.313-6.313,6.313-6.621c0-0.205,0.101-0.409,0.308-0.616l2.156,0.308l1.078-0.616l-0.462-2.772
			c0.101-0.101,0.871-0.717,2.31-1.848l4.776-4.773l2.463-1.848c0.821-0.717,1.872-1.641,3.157-2.772
			c1.285-1.128,2.336-1.693,3.159-1.693l1.848,0.616c1.232-3.08,3.953-5.543,8.163-7.391c4.21-1.848,6.674-2.772,7.394-2.772
			l8.779,2.002c0.82,0.823,2.591,2.028,5.313,3.618c2.721,1.593,4.082,5.521,4.082,11.779c0,0.616-0.619,2.208-1.85,4.773
			l0.307,2.771c0,0.616-0.822,1.694-2.463,3.233l-0.924,3.08l-8.934,8.161c-1.027,0.72-2.079,1.231-3.156,1.54
			c-1.078,0.308-2.182,0.923-3.313,1.848c-1.131,0.924-3.645,2.336-7.547,4.234c-3.902,1.9-5.851,3.464-5.851,4.696
			c0,0.411,0.693,1.565,2.079,3.464c1.386,1.9,2.386,3.519,3.002,4.851c0.616,1.336,1.773,2.875,3.467,4.619
			c1.694,1.748,3.156,2.722,4.388,2.926c1.232,0.207,2.517,0.516,3.852,0.925c0.101-0.205,1.025-0.642,2.771-1.31
			c1.744-0.666,3.026-1.41,3.849-2.232l2.158-0.615c1.436-0.205,2.437-0.82,3.003-1.848c0.562-1.025,2.025-2.233,4.389-3.619
			c2.361-1.387,4.236-2.976,5.621-4.772c1.387-1.795,2.643-2.695,3.773-2.695h1.85c1.436,0,2.256-1.024,2.463-3.079
			c2.771-1.231,4.773-2.541,6.006-3.927c1.233-1.386,2.619-2.487,4.16-3.31l0.924-0.617c2.771-2.976,5.08-4.465,6.932-4.465
			c1.023,0,1.744,0.516,2.154,1.54c-0.822,3.388-1.229,5.75-1.229,7.083c0,0.924-0.593,2.771-1.771,5.543
			c-1.183,2.771-1.824,4.157-1.925,4.157l-1.694-0.616h-0.308c-0.616,0-1.231,0.361-1.849,1.078
			c-0.616,0.72-1.231,1.182-1.848,1.386c-0.617,0.207-1.26,0.823-1.926,1.849c-0.668,1.026-1.721,1.824-3.156,2.387
			c-1.439,0.564-2.594,1.361-3.465,2.387c-0.873,1.027-1.516,1.693-1.924,2.002c-0.412,0.309-0.822,0.692-1.232,1.154
			s-0.873,0.847-1.385,1.154c-0.516,0.309-1.156,0.925-1.926,1.849s-1.77,1.692-3.002,2.31s-2.182,1.566-2.85,2.85
			s-1.539,2.182-2.617,2.693c-1.078,0.516-2.594,1.387-4.543,2.617l-4.157,2.926c-1.027,0.616-1.643,0.924-1.848,0.924h-0.462
			l-1.54-0.308c-0.412,0-0.616,0.308-0.616,0.925c-1.231,1.745-2.362,2.616-3.387,2.616c-1.131,0-2.541,0.361-4.234,1.078
			c-1.694,0.72-2.952,1.078-3.772,1.078c-1.438,0-4.157-0.513-8.161-1.54c-0.823-0.924-1.747-1.591-2.771-2.002
			c-1.027-0.409-2.31-2.311-3.85-5.697l-2.156-1.848c-1.747-1.231-4.568-6.467-8.468-15.705l-1.386-1.848
			c-3.287-0.717-4.927-2.311-4.927-4.773c0-0.513,0.616-2.002,1.848-4.465l1.54-0.924c0.616-1.232,1.359-1.949,2.233-2.156
			c0.871-0.204,1.617-0.947,2.232-2.232c0.616-1.282,1.54-1.925,2.771-1.925h0.616c1.436-1.437,2.848-2.541,4.234-3.311
			c1.386-0.77,2.514-1.563,3.388-2.387c0.871-0.82,3.13-1.848,6.775-3.079c3.643-1.232,5.466-5.132,5.466-11.702
			c0-0.616-0.515-1.025-1.54-1.232c-2.979,1.027-5.185,2.363-6.621,4.003c-2.055,0.207-3.645,1.258-4.773,3.156
			c-1.131,1.901-2.156,2.849-3.08,2.849l-2.925-0.308c-0.616,0-1.232,0.847-1.848,2.541c-0.616,1.694-1.439,2.541-2.464,2.541
			h-1.232l-2.001,0.924l-0.616,2.464c-2.363,2.566-4.261,3.849-5.697,3.849l-1.232,3.542c-1.643,0.616-3.542,2.155-5.697,4.619
			l-0.924,0.616c-0.823,0.924-1.438,1.693-1.848,2.31c-0.411,0.615-1.027,0.924-1.848,0.924c-1.335,0.822-2.517,2.517-3.542,5.081
			c-1.231,0-2.054,0.95-2.463,2.849c-0.412,1.9-1.285,2.85-2.618,2.85h-1.232c-1.027,2.361-1.9,3.824-2.617,4.388
			c-0.72,0.565-1.54,1.412-2.464,2.541c-0.924,1.131-1.643,2.259-2.156,3.388c-0.515,1.131-1.54,2.311-3.079,3.541
			c-1.54,1.23-2.721,2.26-3.542,3.079l-2.464,1.54c-1.335,0.924-2.208,1.593-2.618,2.002c-0.411,0.411-0.924,0.616-1.54,0.616
			c-1.027,0-2.49-0.794-4.388-2.388c-1.901-1.59-2.849-2.795-2.849-3.619c0-5.951,0.515-10.161,1.54-12.625l4.158-10.778
			c1.231-3.283,2.694-6.158,4.388-8.622s2.541-4.208,2.541-5.235c0-1.437-0.515-2.155-1.54-2.155
			c-3.595,3.594-5.955,5.697-7.083,6.312C148.492,163.165,145.566,161.983,145.566,160.341z"/>
		<path d="M385.392,165.729l2.455-2.155c1.535,0,2.455-0.693,2.764-2.079c0.309-1.386,1.406-2.487,3.301-3.311
			c1.895-0.82,3.66-2.487,5.299-5.004c1.637-2.514,3.324-3.772,5.064-3.772c0.611,0,1.328,0.515,2.146,1.54
			c0.818,1.027,1.23,1.848,1.23,2.464c0,3.387-1.027,6.878-3.078,10.47l-0.615,4.312l-1.076,2.002
			c-1.541,0.822-2.541,1.693-3.004,2.617c-0.461,0.924-1.666,2.056-3.615,3.389l-1.539,2.154c-2.26,0.721-3.773,1.901-4.543,3.543
			c-0.77,1.643-1.846,2.565-3.23,2.771c-1.387,0.207-2.9,1.231-4.541,3.079c-1.027,0.516-2.258,0.977-3.695,1.386l-0.309,1.54
			c-1.025,1.027-2.643,1.848-4.85,2.465c-2.205,0.614-3.846,1.206-4.924,1.771c-1.078,0.565-1.822,0.847-2.23,0.847
			c-1.951,0-3.748-0.385-5.389-1.154c-1.643-0.771-3.336-1.256-5.08-1.463c-0.615-0.615-0.977-1.281-1.078-2.002
			c-0.104-0.717-0.615-1.667-1.539-2.849c-0.924-1.179-1.383-2.796-1.383-4.851l0.615-2.926c0-0.408-0.258-0.924-0.77-1.539
			c-0.518-0.617-0.771-1.129-0.771-1.541c0-0.408,0.102-0.717,0.309-0.924c0.203-0.203,0.309-0.513,0.309-0.924
			c0-0.513-0.105-1.077-0.309-1.693c-0.207-0.615-0.309-1.129-0.309-1.54l0.924-7.545c0-0.615-0.207-0.924-0.615-0.924
			c-0.41,0-1.154,0.515-2.232,1.54c-1.078,1.027-2.336,1.54-3.771,1.54c-0.822,0.615-1.49,1.9-2.004,3.849
			c-0.824,1.027-1.848,1.951-3.08,2.771l-0.615,0.925c-0.207,0.72-0.977,1.31-2.311,1.771c-1.336,0.463-2.26,1.055-2.771,1.771
			l-1.539,1.54l-2.926-0.309c-0.207,0.206-0.773,1.104-1.697,2.694c-0.924,1.592-2.104,2.901-3.541,3.926l-11.703,9.548
			c-1.23,0.821-3.029,1.848-5.391,3.079l-0.924,0.924c-8.213,5.441-14.014,8.16-17.4,8.16c-2.774,0-6.008-0.771-9.703-2.31
			c-3.694-1.54-5.696-3.388-6.005-5.543l-1.539-6.313c-0.924-1.437-1.387-3.438-1.387-6.004c0-1.232,0.102-2.053,0.309-2.465v-0.924
			l-0.309-5.08c0-1.231,0.975-1.849,2.926-1.849l-0.307-4.157c0-0.408,0.896-2.026,2.693-4.851c1.795-2.822,3.002-4.438,3.62-4.85
			l1.539-2.002c-0.104-1.232,0.614-2.541,2.157-3.927c1.539-1.386,2.773-2.795,3.701-4.234c0.924-1.436,2.672-3.026,5.242-4.773
			l4.623-4.619c3.598-3.592,7.502-6.467,11.716-8.623c0.615-0.205,1.875-1.232,3.775-3.08c1.9-1.848,4.062-3.207,6.479-4.081
			c2.414-0.871,4.775-1.975,7.09-3.311c2.311-1.333,4.139-2.001,5.475-2.001h1.232c0.408,0,3.133-1.282,8.17-3.85h0.928
			c0.408,0,1.385,0.412,2.928,1.232h0.307l2.469-1.232c0.41-0.204,0.924-0.308,1.541-0.308c6.369,0,9.865,4.415,10.484,13.242
			c0.203,1.848,0.719,2.771,1.541,2.771c1.025,0,2.49-1.872,4.391-5.62c1.902-3.746,5.934-5.62,12.096-5.62
			c4.412,0,6.621,2.825,6.621,8.469c0,6.674-2.979,12.987-8.932,18.939c-0.41,0.823-0.719,1.747-0.924,2.772l-2.156,6.312v0.308
			c0,0.616-0.438,1.463-1.309,2.541c-0.873,1.078-1.309,2.028-1.309,2.849l0.309,3.85l-0.615,4.311c0,1.951,0.357,3.233,1.074,3.851
			c3.275-0.82,5.654-2.181,7.139-4.08c1.484-1.898,2.533-2.95,3.146-3.157l1.535-0.616
			C383.089,168.039,384.164,166.757,385.392,165.729z M334.261,165.729c0.412-2.257,1.67-3.977,3.775-5.158
			c2.104-1.179,3.361-2.387,3.773-3.618c1.947-1.436,4.746-4.004,8.391-7.699c3.645-3.695,5.469-5.952,5.469-6.775
			c0-0.308-0.207-0.462-0.615-0.462h-0.309l-1.232,0.77l-2.77-0.308l-2.928,0.308l-2.156-1.078l-2,0.308l-3.08-0.616
			c-1.645,0-3.057,0.334-4.234,1c-1.182,0.669-3.441,1.413-6.777,2.233c-3.338,0.823-6.34,2.232-9.01,4.234
			c-2.672,2.001-4.619,3.002-5.852,3.002c-0.719,1.54-3.133,3.748-7.236,6.621c-2.467,0.822-4.059,2.617-4.775,5.389
			c-2.672,2.156-4.004,3.388-4.004,3.695l-1.078,2.618c-0.822,0.719-1.848,1.309-3.08,1.771c-1.229,0.462-1.951,1.54-2.154,3.233
			c-0.207,1.693-0.899,3.232-2.08,4.619c-1.18,1.386-1.77,2.49-1.77,3.311c0,5.03,0.975,7.545,2.926,7.545
			c0.82,0,2.539-0.539,5.158-1.617c2.617-1.076,4.131-1.82,4.541-2.231c0.41-0.409,1.232-0.82,2.465-1.231l2.928-1.54
			c0.408-0.409,0.871-0.666,1.385-0.77c0.516-0.103,1.025-0.437,1.541-1.001c0.514-0.563,1.438-1.18,2.771-1.848
			c1.332-0.668,2.359-1.564,3.078-2.694c1.744-1.025,4.57-2.618,8.473-4.773l3.232-2.464c2.258-1.024,3.643-1.898,4.158-2.617
			C331.695,167.169,332.722,166.449,334.261,165.729z"/>
		<path d="M518.757,168.193v1.693l0.309,1.232v0.615c0,0.207-0.207,1.386-0.615,3.542c-1.539,1.644-2.414,3.953-2.617,6.929
			l-1.848,2.771c0,1.438-0.488,2.567-1.465,3.389c-0.977,0.822-1.822,2.464-2.539,4.927c-0.721,2.464-1.596,5.081-2.617,7.854
			l-3.541,8.775c0,0.411,0.203,0.615,0.613,0.615c0.205,0,0.539-0.102,1-0.309c0.465-0.203,0.898-0.308,1.311-0.308
			c0.41,0,0.82,0.104,1.23,0.308c0.412,0.207,0.721,0.309,0.928,0.309s0.953-0.358,2.236-1.077c1.285-0.717,2.752-1.179,4.4-1.386
			l5.709-1.387c1.234-0.408,3.756-0.615,7.561-0.615l4.787-0.309c3.807,0,7.637,0.978,11.494,2.926
			c3.859,1.951,6.277,4.004,7.254,6.158c0.979,2.156,1.467,5.646,1.467,10.471c0,3.797-1.281,5.697-3.854,5.697
			c-1.543,0-3.52-0.978-5.936-2.926c-2.416-1.951-4.088-4.415-5.012-7.391c-0.924-2.978-2.414-4.467-4.469-4.467l-3.855-1.23
			l-2.158,0.616h-0.615c-0.412,0-1.336-0.31-2.773-0.925h-0.465l-4.625,1.231h-6.316l-2.934,1.54
			c-1.438,0.408-3.008,0.717-4.701,0.924c-1.693,0.204-3.211,0.615-4.547,1.231c-1.338,0.616-2.004,1.179-2.004,1.692
			c0,3.182-1.389,5.902-4.162,8.162c-1.027,1.641-1.596,2.948-1.693,3.926c-0.105,0.975-0.695,2.053-1.773,3.233
			c-1.08,1.179-2.238,3.002-3.469,5.466l-1.232,2.155c-0.414,0.616-0.619,1.129-0.619,1.54c0,0.204,0.104,0.616,0.311,1.23v1.387
			c0,2.873-1.695,5.594-5.088,8.16v1.541c0,0.82-0.822,2-2.467,3.541l0.617,3.08c0,0.408-0.566,1.256-1.697,2.539
			c-1.131,1.282-2.08,2.72-2.85,4.312c-0.771,1.59-2.236,3.003-4.393,4.234v0.924l0.928,1.848c0.307,0,0.461,0.204,0.461,0.616
			c0,0.717-0.771,1.794-2.312,3.233c-0.41,1.641-1.129,3.232-2.156,4.772l-6.318,8.468c-1.027,1.438-1.543,2.565-1.543,3.389
			l-1.078,2.926c-1.131,0.924-1.926,1.872-2.389,2.849c-0.461,0.976-1.822,2.898-4.084,5.773c-2.262,2.872-3.752,4.312-4.469,4.312
			c0.617,1.232,0.924,1.949,0.924,2.156c0,1.23-0.822,2.719-2.463,4.465c-2.674,0-4.008,0.562-4.008,1.693l0.77,3.08
			c0,0.408-0.566,1.023-1.697,1.848c-1.131,0.82-2.055,1.23-2.77,1.23h-2.158l0.617,2.771c-0.412,1.129-1.027,1.898-1.852,2.311
			c-0.822,0.408-2.184,1.617-4.084,3.619c-1.898,2-3.262,3.207-4.082,3.617l-2.004,1.231l-6.01,0.616
			c-1.645-0.516-4.803-2.209-9.475-5.082c-4.672-2.875-7.338-5.568-8.008-8.084c-0.666-2.517-1-6.082-1-10.7
			c0-0.515,0.516-1.386,1.539-2.617l0.309-1.231v-2.926c0-0.207,0.516-2.027,1.539-5.467c1.025-3.439,1.898-5.339,2.617-5.697
			c0.719-0.359,1.85-2.386,3.389-6.082c1.539-3.695,2.719-6.107,3.541-7.236l14.184-20.786c0-1.335,0.203-2.208,0.615-2.617h0.926
			c0.82,0,1.389-0.284,1.693-0.847c0.309-0.565,0.773-1.209,1.389-1.926c0-1.951,0.898-3.541,2.697-4.772s3.084-2.595,3.854-4.08
			c0.771-1.489,1.672-2.849,2.699-4.08l0.311-0.925c0.406-0.411,1.309-0.899,2.695-1.462c1.391-0.565,2.186-1.362,2.393-2.388
			l5.238-5.08c0.518-0.412,1.338-0.924,2.469-1.541c1.131-0.615,2.311-1.746,3.545-3.388l1.082-0.462h0.924l0.617-0.308
			c1.23-2.671,2.492-4.107,3.775-4.312c1.285-0.206,2.133-0.515,2.543-0.924c-0.104-3.183,1.695-4.772,5.396-4.772
			c0.82,0,1.436-0.207,1.848-0.616l3.701-2.925c0.514-0.412,1.49-2.414,2.93-6.006v-0.309l2.773,0.771l0.309-0.771l-0.615-3.388
			c0.309-0.408,0.924-1.82,1.848-4.233c0.926-2.411,1.795-3.822,2.619-4.234c0.818-0.408,1.229-0.871,1.229-1.386v-1.849
			l-0.307-1.848l0.615-1.231v-2.002l0.309-0.615c0.512-0.513,1.127-2.411,1.848-5.696c0.408-0.41,0.977-0.82,1.693-1.232
			l6.93-19.555c0.203-0.512,0.514-1.848,0.926-4.003l1.229-1.694c1.232-3.283,1.848-5.389,1.848-6.312
			c0-0.409-0.207-0.616-0.613-0.616c-0.412,0-1.336,0.592-2.771,1.771c-1.439,1.181-2.518,1.771-3.234,1.771l-2.463-0.616h-0.615
			c-0.617,0-1.463,0.515-2.541,1.54c-1.078,1.027-1.721,1.539-1.926,1.539l-1.848,0.309c-1.027,1.746-1.951,2.721-2.771,2.926
			l-3.852,2.463h-0.311l-2.158-1.539c0-0.205-0.256-0.309-0.771-0.309c-0.412,0-1.027,1.232-1.85,3.695l-4.783,2.31
			c-1.029-0.204-1.646-0.308-1.85-0.308c-1.031,0-2.01,0.95-2.936,2.849c-0.926,1.9-2.158,2.952-3.701,3.156
			c-0.822,0.924-2.727,1.645-5.707,2.156l-9.102,6.312c-1.031,0.411-1.75,0.925-2.162,1.54c-2.16,0.207-4.164,1.387-6.014,3.541
			l-4.168-0.309c-1.029,0-2.029,0.67-3.006,2.003c-0.977,1.335-1.98,2.001-3.008,2.001h-0.926l-1.852-0.309l-5.09,1.231
			c-1.441,0-3.652-1.103-6.633-3.312c-2.984-2.205-4.475-4.131-4.475-5.772l-0.924-6.929c0-0.205,0.408-0.924,1.232-2.156
			c0.82-1.23,1.23-2.104,1.23-2.617c0-0.205-0.104-0.616-0.307-1.232v-1.231c0-3.592,1.281-7.903,3.848-12.934v-0.616
			c0-0.409-0.307-0.615-0.924-0.615c-1.334,0-2.461,1.104-3.377,3.31c-0.92,2.209-1.986,3.772-3.207,4.696
			c-1.219,0.924-2.109,1.694-2.668,2.31c-0.561,0.616-1.041,0.924-1.445,0.924c-0.611-0.408-1.322-0.717-2.135-0.924
			c-0.201-0.204-0.559-0.82-1.068-1.848c-0.506-1.024-1.291-1.871-2.363-2.54c-1.064-0.667-1.6-1.821-1.6-3.465
			c0-1.128,1.484-2.617,4.449-4.465l1.84-1.848c4.703-4.721,7.875-7.237,9.512-7.545l0.918-2.155
			c1.432-1.128,3.195-2.695,5.293-4.696c2.096-2.002,3.963-3.412,5.6-4.234l8.297-7.237c2.463-2.257,5.852-3.388,10.162-3.388
			c3.285,0,4.928,2.105,4.928,6.313c0,4.21-0.746,7.468-2.23,9.777c-1.49,2.31-2.414,4.415-2.771,6.313
			c-0.361,1.901-1.721,4.415-4.08,7.545c-2.363,3.132-3.799,5.442-4.312,6.929c-0.514,1.489-1.566,3.542-3.156,6.159
			c-1.592,2.618-2.387,4.954-2.387,7.005c0,1.027,0.615,1.541,1.85,1.541c1.744,0,3.953-0.925,6.627-2.771l1.385-0.616
			c1.027-0.409,2.057-0.924,3.082-1.54l3.854-1.693c0.721-1.54,1.852-2.564,3.391-3.079l2.928-1.54
			c1.439-0.616,3.209-1.41,5.316-2.387c2.105-0.975,3.467-1.925,4.084-2.849c0.615-0.924,1.41-1.667,2.387-2.232
			c0.977-0.563,2.08-1.463,3.314-2.694c2.67,0,6.369-2.311,11.094-6.929c4.725-2.771,9.143-5.517,13.252-8.238
			c4.109-2.719,6.83-4.696,8.168-5.928c0.615-0.409,1.719-0.974,3.312-1.693c1.592-0.717,3.389-1.872,5.391-3.465
			c2.002-1.59,4.543-2.386,7.623-2.386c2.668,0,5.234,1,7.697,3.002c2.465,2.001,3.693,3.979,3.693,5.928l-0.307,7.391
			c0,4.723-1.285,8.726-3.85,12.01c-0.615,4.106-1.336,6.929-2.156,8.469l0.309,3.542
			C522.144,165.729,521.013,166.757,518.757,168.193z M445.822,286.139l0.771-2.156c0.203-0.719,0.924-1.438,2.154-2.154
			c1.023-4.415,2.408-7.29,4.156-8.623c0-2.259,0.1-3.541,0.307-3.85l2.154-2.002l6.002-10.162c0.615-1.438,1.283-2.797,2-4.08
			c0.717-1.284,1.281-2.54,1.691-3.771c0-1.439,1.693-4.262,5.08-8.469v-1.078c0-1.438-0.307-2.154-0.924-2.154
			c-0.615,0.717-1.643,1.436-3.078,2.154l-9.85,8.314c-0.516,0.408-1.898,2.053-4.156,4.928l-2.922,3.079
			c-1.645,1.743-2.902,2.849-3.773,3.311s-1.945,1.948-3.229,4.466c-1.283,2.515-2.385,3.771-3.311,3.771h-0.613
			c-0.105,0-0.615-0.257-1.539-0.77c-0.617,0.308-0.922,0.77-0.922,1.385l0.922,3.695c0,0.409-0.412,1.053-1.232,1.926
			c-0.82,0.871-1.514,1.82-2.076,2.849c-0.566,1.024-1.154,1.642-1.771,1.848c-0.615,0.204-1.744,2.104-3.385,5.697l-2.924,1.539
			c-0.307,6.056-2.207,10.933-5.695,14.628c-0.824,1.641-1.49,3.258-2.002,4.852c-0.516,1.59-0.977,2.59-1.387,3.002
			c-0.615,3.797-1.693,6.006-3.232,6.621c-0.412,0.205-0.617,0.512-0.617,0.924c0,0.615,0.463,1.231,1.387,1.848l0.615,0.615
			c-1.334,4.004-2.002,6.979-2.002,8.932c0,0.409,0.205,0.616,0.617,0.616l4.619-2.31c3.283-1.541,5.49-3.492,6.621-5.853
			l2.463-4.772c0.408-0.615,1.129-1.027,2.152-1.231c0.617-2.155,1.615-3.542,3.002-4.157c1.385-0.615,2.078-1.438,2.078-2.464
			s1.922-4.567,5.77-10.624C443.589,290.396,445.615,286.959,445.822,286.139z"/>
	</g>
</g>
<g id="Layer_3">
	<g>
		<g>
			<path d="M111.232,27.482c-4.88,5.62-9.912,11.073-15.5,16c1.422,0.589,2.845,1.178,4.268,1.768
				c-0.142-3.311,1.73-5.964,3.659-8.488c-1.439-0.841-2.878-1.682-4.317-2.523c-3.275,4.717-6.803,9.237-10.359,13.744
				c1.393,0.811,2.786,1.622,4.178,2.432c2.252-5.475,5.303-10.534,8.248-15.653c-1.439-0.841-2.878-1.682-4.317-2.523
				c-3.07,6.816-7.465,12.834-11.25,19.25c1.523,0.642,3.046,1.284,4.569,1.926c1.223-7.204,4.034-14.097,8.498-19.903
				c-1.523-0.642-3.046-1.284-4.569-1.926c-1.072,5.785-4.728,10.451-7.248,15.653c-1.211,2.5,1.81,5.087,3.926,3.029
				c5.503-5.349,8.394-12.591,13.5-18.25c-1.393-0.811-2.786-1.622-4.178-2.432c-0.516,2.968-2.159,4.944-4.107,7.147
				c-2.126,2.405,1.169,5.757,3.535,3.535c1.51-1.417,2.836-2.989,4.25-4.5c-1.393-0.811-2.786-1.622-4.178-2.432
				c-1.214,4.88-3.865,9.034-6.248,13.403c-1.556,2.853,2.538,5.19,4.317,2.523c2.579-3.865,4.806-7.928,8.109-11.244
				c-1.309-1.01-2.618-2.02-3.926-3.029c-3.665,7.301-8.571,13.771-13.5,20.25c1.523,0.199,3.046,0.398,4.569,0.597
				c-0.912-3.153,1.436-7.142,2.25-10.171c0.838-3.118-3.985-4.44-4.821-1.329c-1.114,4.143-3.512,8.465-2.25,12.829
				c0.654,2.261,3.311,2.251,4.569,0.597c4.929-6.479,9.835-12.948,13.5-20.25c1.245-2.481-1.85-5.115-3.926-3.029
				c-3.611,3.625-6.071,8.029-8.891,12.256c1.439,0.841,2.878,1.682,4.317,2.523c2.593-4.755,5.432-9.291,6.752-14.597
				c0.585-2.352-2.413-4.318-4.178-2.432c-1.415,1.511-2.74,3.082-4.25,4.5c1.178,1.178,2.357,2.357,3.535,3.535
				c2.479-2.802,4.736-5.577,5.393-9.353c0.394-2.263-2.351-4.458-4.178-2.432c-5.103,5.655-8.026,12.929-13.5,18.25
				c1.309,1.01,2.618,2.02,3.926,3.029c2.712-5.598,6.598-10.619,7.752-16.847c0.539-2.907-2.852-4.16-4.569-1.926
				c-4.682,6.089-7.72,13.543-9.002,21.097c-0.456,2.687,3.048,4.505,4.569,1.926c3.785-6.416,8.18-12.434,11.25-19.25
				c1.296-2.878-2.677-5.375-4.317-2.523c-3.17,5.511-6.329,10.957-8.752,16.847c-0.937,2.275,2.661,4.355,4.178,2.432
				c3.82-4.84,7.623-9.689,11.141-14.756c1.872-2.696-2.412-5.017-4.317-2.523C96.867,37.477,94.82,41.062,95,45.25
				c0.097,2.245,2.619,3.221,4.268,1.768c5.588-4.927,10.621-10.38,15.5-16C116.871,28.595,113.35,25.043,111.232,27.482
				L111.232,27.482z"/>
		</g>
	</g>
	<g>
		<g>
			<path d="M113.585,29.339c-3.427,1.078-6.728,2.467-9.847,4.252c1.14,1.14,2.28,2.28,3.42,3.42
				c0.742-1.708,2.123-2.789,3.603-3.853c-1.01-1.309-2.02-2.618-3.029-3.926c-0.94,1.143-1.956,2.203-3,3.25
				c-2.28,2.284,1.255,5.819,3.535,3.535c1.045-1.046,2.06-2.107,3-3.25c1.669-2.03-0.555-5.706-3.029-3.926
				c-2.129,1.532-4.322,3.172-5.397,5.647c-0.946,2.178,1.062,4.77,3.42,3.42c2.759-1.579,5.623-2.795,8.653-3.748
				C117.979,33.197,116.67,28.369,113.585,29.339L113.585,29.339z"/>
		</g>
	</g>
	<g>
		<g>
			<path d="M179.415,168.661c0.417-0.167,0.833-0.334,1.25-0.5c-0.941-1.225-1.882-2.449-2.823-3.673
				c-0.453,0.581-0.906,1.163-1.359,1.744c1.393,0.811,2.786,1.621,4.178,2.433c1.199-4.289,3.249-7.426,7.101-9.757
				c-1.224-0.94-2.448-1.882-3.672-2.823c-0.25,0.552-0.499,1.103-0.748,1.653c-1.293,2.449,1.917,5.165,3.926,3.029
				c0.528-0.561,0.951-1.122,1.391-1.756c-1.523-0.642-3.046-1.284-4.569-1.927c-0.128,0.805-0.235,1.607-0.339,2.415
				c-0.235,1.822,2.323,3.203,3.762,2.158c1.867-1.355,3.118-2.759,4.304-4.748c1.886-3.161,2.875-4.559,6.349-5.749
				c5.945-2.039,9.128-7.15,13.603-11.144c2.437-2.174-1.086-5.546-3.535-3.535c-4.839,3.972-10.757,6.69-13.143,12.853
				c-1.166,3.011,3.67,4.302,4.821,1.33c1.889-4.88,8.002-7.484,11.857-10.647c-1.178-1.178-2.357-2.357-3.535-3.535
				c-4.614,4.117-7.419,8.534-13.573,10.595c-5.308,1.778-5.556,7.275-9.671,10.264c1.254,0.719,2.508,1.438,3.762,2.158
				c0.054-0.361,0.107-0.724,0.161-1.085c0.448-2.798-2.896-4.333-4.569-1.927c-0.203,0.248-0.406,0.496-0.609,0.744
				c1.309,1.01,2.618,2.02,3.926,3.029c0.516-0.979,0.877-1.81,1.252-2.847c0.761-2.108-1.889-3.903-3.672-2.823
				c-4.948,2.993-7.852,7.209-9.399,12.743c-0.663,2.371,2.444,4.279,4.178,2.433c0.907-0.965,1.425-1.639,2.141-2.756
				c1.111-1.733-0.753-4.5-2.823-3.673c-0.417,0.167-0.833,0.334-1.25,0.5C175.13,165.021,176.418,169.859,179.415,168.661
				L179.415,168.661z"/>
		</g>
	</g>
	<g>
		<g>
			<path d="M323.488,169.092c-2.096,1.354-3.875,3.011-5.506,4.891c-2.139,2.466,1.055,5.562,3.535,3.535
				c2.66-2.174,5.34-4.324,8-6.5c1.057-0.863,0.891-2.645,0-3.535c-1.035-1.035-2.48-0.861-3.535,0c-2.66,2.174-5.34,4.325-8,6.5
				c1.18,1.18,2.355,2.356,3.535,3.535c1.348-1.554,2.762-2.986,4.494-4.108C328.708,171.665,326.205,167.335,323.488,169.092
				L323.488,169.092z"/>
		</g>
	</g>
	<g>
		<g>
			<path d="M514.75,206c-6.332,0.253-12.666,0.497-19,0.75c0,1.667,0,3.333,0,5c5.465-0.715,10.979-0.893,16.416-1.839
				c3.172-0.554,1.822-5.371-1.33-4.822c-4.992,0.869-10.066,1.005-15.086,1.661c-3.09,0.404-3.309,5.132,0,5
				c6.334-0.253,12.668-0.497,19-0.75C517.962,210.872,517.976,205.871,514.75,206L514.75,206z"/>
		</g>
	</g>
	<g>
		<g>
			<path d="M456.232,229.732c-2.129,2.125-4.273,4.226-6.5,6.25c1.309,1.01,2.617,2.02,3.926,3.028
				c2.188-3.118,5.402-5.413,9.008-6.601c-0.941-1.225-1.883-2.449-2.824-3.674c-2.131,3.223-5.668,5.154-8.732,7.369
				c-2.816,2.035-5.07,4.636-7.299,7.276c-5.428,6.441-9.934,13.517-16.076,19.349c1.422,0.59,2.844,1.18,4.268,1.769
				c0.186-2.526,1.006-4.752,1.91-7.085c1.029-2.65-3.311-4.438-4.568-1.927c-3.197,6.374-6.473,12.708-9.818,19.005
				c-2.885,5.428-5.715,10.439-6.686,16.592c-0.496,3.153,4.32,4.508,4.822,1.33c0.9-5.715,3.49-10.363,6.18-15.398
				c3.361-6.289,6.621-12.631,9.818-19.005c-1.523-0.642-3.047-1.284-4.57-1.927c-1.078,2.782-1.869,5.438-2.088,8.415
				c-0.168,2.278,2.789,3.171,4.268,1.769c6.557-6.225,11.406-13.805,17.203-20.685c4.619-5.479,11.73-8.338,15.688-14.322
				c1.197-1.809-0.777-4.346-2.822-3.673c-4.904,1.615-9.033,4.676-11.994,8.898c-1.701,2.428,1.918,4.857,3.926,3.029
				c2.229-2.023,4.371-4.123,6.5-6.25C462.052,230.986,458.515,227.452,456.232,229.732L456.232,229.732z"/>
		</g>
	</g>
	<g>
		<g>
			<path d="M337.238,155.092c-1.99,1.106-3.434,3.006-3.898,5.243c-0.346,1.657,0.725,3.058,2.41,3.165
				c2.941,0.188,5.574-1.082,8.012-2.592c2.734-1.693,0.229-6.02-2.521-4.316c-1.725,1.065-3.402,2.041-5.488,1.908
				c0.803,1.055,1.607,2.109,2.41,3.165c0.217-1.044,0.658-1.731,1.602-2.257C342.58,157.842,340.058,153.522,337.238,155.092
				L337.238,155.092z"/>
		</g>
	</g>
</g>
<g id="Layer_2">
	<g>
		<path fill="#FFFFFF" d="M7.471,128.858l0.924-0.77h0.924c0.616-0.616,0.924-1.025,0.924-1.232c0-0.409-0.154-0.82-0.462-1.232
			c-0.308-0.409-0.462-0.82-0.462-1.232c0-2.155,0.975-3.642,2.926-4.465c-0.308-0.82-0.462-2.052-0.462-3.695
			c0-0.924,0.435-1.848,1.309-2.771c0.871-0.924,1.667-2.694,2.387-5.312c0.719-2.618,2.259-4.131,4.622-4.542v-0.616l-0.616-1.694
			c0-0.616,0.409-1.54,1.231-2.771v-1.54c0-1.333,0.667-2.156,2.002-2.464c1.335-0.308,2.004-0.667,2.004-1.078
			c0-1.232,0.871-2.719,2.618-4.465l-0.616-2.464c0-0.82,0.924-1.949,2.771-3.387c3.387-3.388,5.083-5.952,5.083-7.699v-1.54
			c0-0.924,1.487-2.617,4.465-5.081c0-0.205,0.101-0.308,0.308-0.308l2.158,0.308c0.409-1.436,0.717-2.95,0.924-4.542
			c0.205-1.59,2.206-4.027,6.007-7.313l0.308-1.078c1.437-1.949,2.257-2.976,2.464-3.079l1.386-0.308
			c1.231-2.156,2.052-3.746,2.463-4.773c0.412-1.025,0.926-1.59,1.542-1.694c0.616-0.101,1.206-0.462,1.771-1.078
			c0.563-0.616,1.359-1.025,2.387-1.232c1.333-1.744,2.591-3.541,3.772-5.389c1.181-1.848,2.851-3.438,5.006-4.773
			c0.409-3.796,1.489-5.697,3.236-5.697l2.156,0.308c0.82-2.36,3.542-5.286,8.163-8.777l5.697-4.157h0.924
			C90.23,15.02,91,14.2,92.028,12.761l2.156-1.54c0.204-1.949,1.128-2.925,2.771-2.925h1.386c2.052-3.181,5.594-5.286,10.626-6.313
			c0.616,0.207,1.41,0.411,2.387,0.616c0.975,0.207,1.771,0.977,2.387,2.31l1.54,2.771c0.409,1.439,0.82,2.156,1.234,2.156
			l2.001-1.848c6.26-1.128,11.907-3.438,16.94-6.929c1.744,0.411,2.873,0.616,3.387,0.616c0.513,0,1.078,0.207,1.694,0.616h0.616
			c0.205,0,0.948-0.359,2.233-1.078c1.285-0.717,2.028-1.078,2.235-1.078l5.082,0.308l4.619,0.924l6.469-0.308
			c2.052,0,4.773,1.285,8.161,3.849c1.128,2.363,2.334,3.722,3.619,4.081c1.282,0.361,3.08,3.183,5.389,8.469
			c2.31,5.288,3.464,8.752,3.464,10.393v2.618l-0.616,4.927l0.308,3.542c0,1.643-0.411,2.952-1.232,3.926
			c-0.823,0.977-1.231,2.49-1.231,4.542c0,3.079-1.258,7.263-3.772,12.549c-2.517,5.288-3.772,8.803-3.772,10.547
			c-2.463,6.467-4.364,9.7-5.697,9.7l-3.387,8.777c-0.823,2.055-1.775,3.414-2.854,4.08c-1.078,0.669-2.028,1.309-2.851,1.925
			l0.308,4.465c0,1.027-1.388,2.618-4.162,4.773c-0.823,1.848-1.669,3.671-2.543,5.466c-0.876,1.797-2.031,3.209-3.469,4.234
			c-3.599,4.723-6.015,8.521-7.247,11.394c-0.411,0.412-1.335,1.131-2.774,2.156c-2.569,3.183-4.65,6.032-6.243,8.546
			c-1.593,2.517-3.212,4.388-4.857,5.62l-2.158,2.31c-0.924,1.027-2.107,1.747-3.546,2.156c0.207,0.411,0.31,0.924,0.31,1.54
			c0,2.156-1.157,3.927-3.469,5.312c-2.314,1.386-3.777,2.489-4.393,3.311l-6.63,6.312c-0.616,0.411-1.413,1.335-2.389,2.771
			c-0.977,1.438-1.98,2.618-3.005,3.542l-2.161,3.387c-6.886,4.62-10.482,6.929-10.79,6.929c-0.308,0.207-0.926,1.285-1.85,3.233
			l-2.928,0.925c-1.646,3.387-3.96,5.389-6.938,6.005l-1.537,0.615c-0.207,0.412-0.669,0.771-1.386,1.078
			c-0.717,0.308-1.359,0.643-1.922,1c-0.563,0.361-2.026,0.899-4.384,1.617l-3.382,1.077l-1.54-0.308
			c-0.409,2.259-1.641,3.388-3.69,3.388h-1.691c-0.411,0.308-1.335,0.72-2.769,1.231l-0.616,0.308
			c-0.717,1.54-1.128,2.31-1.229,2.31l-4.769-0.308c-1.641,0.823-2.719,1.231-3.231,1.231c-0.205,0-0.717-0.102-1.538-0.309
			l-1.537,1.54c-1.437-0.819-2.257-1.231-2.461-1.231l-1.078,0.309c-2.461,0.615-4.307,0.924-5.536,0.924l-1.999-0.615
			c-2.873-1.438-4.564-2.155-5.077-2.155l-5.844,0.308c-0.207,0-0.9-0.64-2.079-1.925c-1.179-1.282-2.846-2.642-5-4.08
			c-2.156-1.437-4.309-4.517-6.464-9.237c-2.156-4.722-3.233-7.75-3.233-9.086l-0.924-8.776l0.308-2.618L0.85,157.19
			c0-2.565,1.025-5.286,3.08-8.161c-0.207-1.54-0.308-2.719-0.308-3.542v-2.156l0.308-3.541c0-1.54,0.77-2.976,2.31-4.312
			l-0.308-3.85C6.444,131.014,6.957,130.09,7.471,128.858z M82.755,161.655l0.311-0.771v-1.848c0-1.745,1.282-2.771,3.852-3.08
			c1.232-1.333,2.389-3.002,3.467-5.004c1.078-2.002,1.927-3.002,2.545-3.002h1.54c0.616,0,0.926-0.205,0.926-0.616l-0.311-2.463
			c0.616-1.025,1.927-2.591,3.931-4.696c2.002-2.103,3.979-4.285,5.933-6.544c1.951-2.257,3.647-4.516,5.086-6.775
			c1.438-2.257,2.824-4.182,4.162-5.774c1.335-1.59,2.336-2.899,3.005-3.927c0.669-1.025,2.031-2.104,4.085-3.233l0.616-0.616v-3.08
			c0-0.205,1.181-2.103,3.544-5.697c3.597-2.771,5.55-5.105,5.858-7.006c0.308-1.898,1.078-3.695,2.31-5.389
			c1.231-1.693,2.054-3.156,2.468-4.388c1.747-1.025,2.62-1.744,2.62-2.156l1.231-2.155c0.823-1.745,1.439-3.234,1.85-4.465
			l2.62-2.464c1.437-1.949,2.31-3.926,2.618-5.928s1.051-3.258,2.232-3.772c1.179-0.513,1.771-0.975,1.771-1.386
			c0-0.205-0.207-0.821-0.616-1.848v-0.771c0-1.025,0.616-2.156,1.848-3.388c2.464-5.028,3.874-8.238,4.234-9.624
			c0.359-1.386,1.155-3.002,2.387-4.85l-0.616-4.157c0-0.616,0.616-1.641,1.848-3.08c-0.823-2.976-1.232-4.566-1.232-4.773
			c0-0.616,0.513-2.103,1.54-4.465l-0.308-3.08l0.616-2.002c0-1.641-0.924-3.387-2.771-5.235c0-3.181-2.875-4.773-8.623-4.773
			l-2.771,0.308l-6.01-0.924c-6.888,2.979-11.515,4.465-13.877,4.465c-1.234,0-2.596,0.823-4.088,2.463
			c-1.492,1.643-2.338,2.464-2.543,2.464l-1.542-0.616h-0.616c-0.722,0-1.184,0.847-1.388,2.541
			c-0.207,1.694-1.157,2.952-2.853,3.772c-1.696,0.823-4.239,2.825-7.631,6.005c-3.393,3.183-5.63,5.673-6.708,7.468
			c-1.081,1.797-2.392,3.286-3.934,4.465c-1.542,1.181-2.596,3.029-3.162,5.543c-0.565,2.517-1.516,4.696-2.851,6.544L87.2,61.261
			v2.31c0,0.616-0.719,1.335-2.158,2.156l0.616,1.848l-0.308,1.848l0.308,2.618l-0.616,3.695l1.54,7.083
			c0,7.906-2.928,11.856-8.784,11.856c-2.259,0-3.979-0.409-5.158-1.231c-1.181-0.82-2.105-3.104-2.771-6.852
			c-0.669-3.746-1.001-6.082-1.001-7.006c0-0.101,0.436-1.771,1.309-5.004c0.871-3.233,1.617-5.259,2.232-6.082
			c0.616-0.82,0.924-1.54,0.924-2.155c0-0.205-0.104-0.409-0.308-0.616c2.256-1.641,3.669-3.565,4.234-5.774
			c0.562-2.206,1.563-4.489,3.002-6.852c3.392-3.9,7.193-10.008,11.409-18.323c1.234-1.232,3.341-3.027,6.322-5.389
			c0.101-0.924,0.924-2.156,2.469-3.696l2.158-2.925l3.546-3.08c1.643-1.025,2.877-2.103,3.7-3.233
			c-3.084,0.515-5.707,1.593-7.865,3.233l-4.932,3.85c-1.544,1.335-2.779,2.182-3.703,2.541c-0.924,0.361-1.874,1.285-2.851,2.771
			c-0.977,1.489-2.03,2.748-3.161,3.772c-1.131,1.027-2.338,2.387-3.623,4.08c-1.285,1.694-2.339,2.748-3.162,3.157
			c-1.641,0.411-2.716,1.9-3.226,4.465c-0.616,1.027-1.54,2.259-2.767,3.695l-0.924,2.618c-0.409,0.616-1.049,1.335-1.92,2.156
			c-0.871,0.823-1.819,1.951-2.844,3.387c-2.459,1.54-3.792,2.31-3.996,2.31c0.204,0.616,0.308,1.335,0.308,2.156
			c0,0.411-0.948,2.105-2.844,5.081c-1.896,2.979-3.226,5.57-3.994,7.776c-0.77,2.208-1.665,3.619-2.689,4.234
			c-1.024,0.615-2.077,2.541-3.152,5.774c-1.076,3.233-2.817,6.494-5.226,9.777c-2.408,3.287-3.765,5.339-4.073,6.159
			c-0.308,0.823-1.484,2.618-3.534,5.389c-1.229,2.67-1.997,4.773-2.305,6.313l-2.459,2.463l-3.534,11.702
			c0,0.308-0.515,0.924-1.54,1.848c-0.515,3.079-1.335,5.081-2.464,6.005c0,0.823-0.207,1.694-0.616,2.618l-1.232,4.311
			l-2.618,2.926v0.616l0.616,1.54v0.616c0,0.823-0.565,2.232-1.694,4.234c-1.131,2.002-1.747,4.542-1.848,7.622
			c-0.104,3.079-0.438,5.185-1.001,6.312c-0.565,1.131-0.9,2.336-1.001,3.618c-0.103,1.285-0.257,2.233-0.462,2.849l0.616,2.463
			l-0.616,4.773c0,0.104,0.231,0.592,0.693,1.463c0.462,0.873,0.693,1.412,0.693,1.616l-0.77,2.002
			c-0.207,0.207-0.308,0.411-0.308,0.616c0,3.594,1.744,6.058,5.235,7.391c3.488,1.335,6.26,2.002,8.314,2.002
			c1.742,0,4.764-0.771,9.068-2.311c4.302-1.539,7.119-3.002,8.452-4.389c1.333-1.386,2.793-2.387,4.381-3.003
			c1.588-0.614,2.995-1.386,4.227-2.31c2.252-2.872,3.967-4.412,5.146-4.619c1.179-0.204,2.947-1.486,5.305-3.85l1.843-0.924
			c1.126-2.052,1.792-3.079,1.999-3.079l2.158-1.386c1.439-2.668,2.466-4.004,3.082-4.004l2.312,0.309
			c0.205,0,0.409-0.102,0.616-0.309C80.186,162.683,81.11,162.271,82.755,161.655z"/>
		<path fill="#FFFFFF" d="M138.566,153.341v-0.616l0.921-0.924c0-0.616,0.59-1.616,1.769-3.002c1.179-1.386,1.922-2.488,2.23-3.311
			c0.308-0.82,0.82-1.437,1.537-1.848c0.717-0.409,1.357-1.155,1.92-2.232c0.563-1.078,1.768-2.129,3.614-3.157l15.681-19.863
			c1.742-2.156,3.022-3.643,3.845-4.465c3.38-4.208,6.096-9.238,8.146-15.089c0.409-0.616,1.025-1.232,1.846-1.848
			c2.572-5.028,4.939-10.726,7.1-17.091l1.542-2.464c0.104-0.308,0.979-1.975,2.625-5.004c1.646-3.027,2.853-4.952,3.625-5.774
			c0.772-0.82,1.518-2.718,2.24-5.697l3.39-6.775c0.924-2.052,2.31-5.336,4.157-9.854c2.564-0.924,3.849-1.487,3.849-1.694
			c0-0.409-0.154-0.871-0.462-1.386c-0.308-0.513-0.565-0.975-0.77-1.386c0.409-1.437,1.231-2.618,2.463-3.542l0.616-0.616
			c0-0.409,0.409-1.232,1.231-2.464l0.308-0.924c1.848-4.104,4.234-7.545,7.16-10.316c2.926-2.771,5.721-4.157,8.392-4.157
			c2.464,0,3.85,0.924,4.158,2.771c0.308,1.848,0.794,3.363,1.462,4.542c0.667,1.181,1.001,2.387,1.001,3.618v3.85l-0.924,13.242
			c0,0.207,0.101,0.616,0.308,1.232c-0.924,0.823-1.489,1.9-1.694,3.233l-6.313,16.938c-0.515,0.104-1.593,1.693-3.233,4.773
			l-2.31,4.465c-2.464,4.723-4.364,7.444-5.697,8.161l-0.924,1.232c-1.131,1.643-2.105,2.463-2.925,2.463
			c0,2.567-0.9,4.696-2.695,6.39c-1.797,1.694-3.156,3.594-4.08,5.697c-0.924,2.105-2.671,3.772-5.235,5.004
			c-0.823,1.644-1.848,3.44-3.08,5.389l-6.929,9.393c-1.848,2.567-3.26,5.673-4.234,9.315c-0.977,3.645-1.978,6.236-3.002,7.776
			l-0.616,1.54c-2.362,1.439-3.542,2.31-3.542,2.618c0,0.515-0.207,2.156-0.616,4.927c-0.823,2.156-1.335,3.337-1.54,3.542
			l0.308,3.388l-2.001,0.308c-0.207,0.207-0.515,1.078-0.924,2.618v3.079l0.308,0.308c0.409,0,0.871-0.717,1.386-2.155
			c1.436-1.025,3.284-2.103,5.543-3.233l1.078-0.616c0.82-2.464,1.641-4.003,2.464-4.619l3.08-4.157l4.465-3.85
			c4.208-4.104,6.313-6.313,6.313-6.621c0-0.205,0.101-0.409,0.308-0.616l2.156,0.308l1.078-0.616l-0.462-2.772
			c0.101-0.101,0.871-0.717,2.31-1.848l4.776-4.773l2.463-1.848c0.821-0.717,1.872-1.641,3.157-2.772
			c1.285-1.128,2.336-1.693,3.159-1.693l1.848,0.616c1.232-3.08,3.953-5.543,8.163-7.391c4.21-1.848,6.674-2.772,7.394-2.772
			l8.779,2.002c0.82,0.823,2.591,2.028,5.313,3.618c2.721,1.593,4.083,5.521,4.083,11.779c0,0.616-0.62,2.208-1.85,4.773
			l0.307,2.771c0,0.616-0.822,1.694-2.463,3.233l-0.924,3.08l-8.933,8.161c-1.027,0.719-2.079,1.232-3.156,1.54
			c-1.078,0.308-2.182,0.923-3.313,1.848c-1.131,0.924-3.645,2.336-7.547,4.234c-3.902,1.9-5.851,3.464-5.851,4.696
			c0,0.411,0.693,1.565,2.079,3.464c1.386,1.9,2.386,3.518,3.002,4.851c0.616,1.335,1.773,2.875,3.467,4.619
			c1.694,1.748,3.156,2.722,4.388,2.926c1.232,0.207,2.517,0.516,3.852,0.925c0.101-0.205,1.025-0.642,2.771-1.31
			c1.744-0.666,3.026-1.41,3.849-2.232l2.158-0.615c1.436-0.205,2.437-0.82,3.003-1.848c0.562-1.025,2.025-2.233,4.389-3.619
			c2.362-1.386,4.237-2.976,5.622-4.772c1.387-1.795,2.643-2.695,3.773-2.695h1.85c1.436,0,2.256-1.024,2.463-3.079
			c2.771-1.231,4.773-2.541,6.006-3.927s2.619-2.487,4.16-3.31l0.924-0.616c2.771-2.976,5.081-4.465,6.932-4.465
			c1.023,0,1.744,0.515,2.154,1.54c-0.822,3.387-1.23,5.75-1.23,7.083c0,0.924-0.592,2.771-1.771,5.543
			c-1.182,2.771-1.824,4.157-1.924,4.157l-1.695-0.616h-0.307c-0.617,0-1.232,0.361-1.848,1.078
			c-0.617,0.72-1.232,1.182-1.848,1.386c-0.617,0.207-1.26,0.823-1.926,1.848c-0.668,1.027-1.721,1.824-3.156,2.387
			c-1.439,0.565-2.594,1.361-3.465,2.387c-0.873,1.027-1.516,1.693-1.924,2.002c-0.412,0.308-0.822,0.692-1.232,1.154
			c-0.41,0.462-0.873,0.847-1.385,1.155c-0.516,0.308-1.156,0.924-1.926,1.848s-1.77,1.693-3.002,2.311
			c-1.232,0.616-2.182,1.565-2.85,2.849c-0.668,1.284-1.539,2.182-2.618,2.694c-1.078,0.515-2.594,1.385-4.542,2.616l-4.157,2.927
			c-1.027,0.615-1.643,0.924-1.848,0.924h-0.462l-1.54-0.309c-0.412,0-0.616,0.309-0.616,0.924
			c-1.231,1.746-2.362,2.617-3.387,2.617c-1.131,0-2.541,0.361-4.234,1.078c-1.694,0.721-2.952,1.078-3.772,1.078
			c-1.438,0-4.157-0.514-8.161-1.54c-0.823-0.924-1.747-1.591-2.771-2.002c-1.027-0.409-2.31-2.31-3.85-5.697l-2.156-1.848
			c-1.747-1.231-4.568-6.468-8.468-15.705l-1.386-1.848c-3.287-0.717-4.927-2.31-4.927-4.773c0-0.513,0.616-2.002,1.848-4.465
			l1.54-0.924c0.616-1.232,1.359-1.949,2.233-2.156c0.871-0.204,1.617-0.947,2.232-2.232c0.616-1.282,1.54-1.925,2.771-1.925h0.616
			c1.436-1.437,2.848-2.541,4.234-3.311c1.386-0.771,2.514-1.563,3.388-2.386c0.871-0.821,3.13-1.848,6.775-3.08
			c3.643-1.232,5.466-5.132,5.466-11.702c0-0.616-0.515-1.025-1.54-1.232c-2.979,1.027-5.185,2.363-6.621,4.003
			c-2.055,0.207-3.645,1.258-4.773,3.156c-1.131,1.901-2.156,2.849-3.08,2.849l-2.925-0.308c-0.616,0-1.232,0.847-1.848,2.541
			c-0.616,1.693-1.439,2.541-2.464,2.541h-1.232l-2.001,0.924l-0.616,2.463c-2.363,2.567-4.261,3.849-5.697,3.849l-1.232,3.542
			c-1.643,0.616-3.542,2.155-5.697,4.619l-0.924,0.616c-0.823,0.924-1.438,1.693-1.848,2.31c-0.411,0.615-1.027,0.924-1.848,0.924
			c-1.335,0.822-2.517,2.517-3.542,5.081c-1.231,0-2.054,0.95-2.463,2.849c-0.412,1.9-1.285,2.85-2.618,2.85h-1.232
			c-1.027,2.361-1.9,3.824-2.617,4.388c-0.72,0.565-1.54,1.412-2.464,2.541c-0.924,1.131-1.643,2.259-2.156,3.388
			c-0.515,1.131-1.54,2.311-3.079,3.541c-1.54,1.23-2.721,2.26-3.542,3.079l-2.464,1.54c-1.335,0.924-2.208,1.593-2.618,2.002
			c-0.411,0.411-0.924,0.616-1.54,0.616c-1.027,0-2.49-0.794-4.388-2.388c-1.901-1.59-2.849-2.795-2.849-3.619
			c0-5.951,0.515-10.161,1.54-12.625l4.158-10.778c1.231-3.283,2.694-6.158,4.388-8.622c1.694-2.464,2.541-4.208,2.541-5.235
			c0-1.437-0.515-2.155-1.54-2.155c-3.595,3.594-5.955,5.697-7.083,6.312C141.492,156.165,138.566,154.983,138.566,153.341z"/>
		<path fill="#FFFFFF" d="M378.392,158.729l2.455-2.155c1.535,0,2.455-0.693,2.764-2.079c0.309-1.386,1.406-2.487,3.301-3.311
			c1.895-0.82,3.66-2.487,5.299-5.004c1.637-2.514,3.324-3.772,5.064-3.772c0.611,0,1.328,0.515,2.146,1.54
			c0.818,1.027,1.23,1.848,1.23,2.463c0,3.388-1.027,6.878-3.078,10.47l-0.615,4.312l-1.076,2.002
			c-1.541,0.822-2.541,1.693-3.004,2.617c-0.461,0.924-1.666,2.055-3.615,3.388l-1.539,2.155c-2.26,0.72-3.773,1.901-4.543,3.542
			c-0.77,1.644-1.846,2.566-3.23,2.771c-1.387,0.207-2.9,1.23-4.541,3.079c-1.027,0.515-2.258,0.978-3.695,1.386l-0.309,1.54
			c-1.025,1.027-2.643,1.849-4.85,2.464c-2.205,0.615-3.846,1.207-4.924,1.771s-1.822,0.847-2.23,0.847
			c-1.951,0-3.748-0.385-5.389-1.153c-1.643-0.771-3.336-1.257-5.08-1.463c-0.615-0.617-0.977-1.283-1.078-2.003
			c-0.104-0.717-0.615-1.667-1.539-2.849c-0.924-1.18-1.383-2.796-1.383-4.852l0.615-2.925c0-0.409-0.258-0.924-0.77-1.54
			c-0.518-0.616-0.771-1.128-0.771-1.54c0-0.409,0.102-0.717,0.309-0.924c0.203-0.204,0.309-0.513,0.309-0.924
			c0-0.513-0.105-1.077-0.309-1.693c-0.207-0.616-0.309-1.129-0.309-1.54l0.924-7.545c0-0.615-0.207-0.924-0.615-0.924
			c-0.41,0-1.154,0.515-2.232,1.54c-1.078,1.027-2.336,1.54-3.771,1.54c-0.822,0.615-1.49,1.9-2.004,3.849
			c-0.824,1.027-1.848,1.951-3.08,2.771l-0.615,0.925c-0.207,0.719-0.977,1.309-2.311,1.771c-1.336,0.462-2.26,1.054-2.771,1.771
			l-1.539,1.54l-2.926-0.309c-0.207,0.207-0.773,1.104-1.697,2.696s-2.104,2.9-3.541,3.926l-11.703,9.547
			c-1.231,0.822-3.028,1.848-5.391,3.078l-0.924,0.925c-8.213,5.442-14.014,8.161-17.4,8.161c-2.774,0-6.007-0.771-9.703-2.311
			c-3.695-1.54-5.697-3.388-6.006-5.543l-1.539-6.312c-0.924-1.438-1.387-3.438-1.387-6.006c0-1.231,0.102-2.053,0.309-2.463v-0.925
			l-0.309-5.081c0-1.23,0.975-1.848,2.926-1.848l-0.307-4.157c0-0.409,0.896-2.026,2.693-4.851c1.795-2.822,3.002-4.438,3.619-4.85
			l1.539-2.002c-0.104-1.231,0.615-2.541,2.158-3.927c1.539-1.386,2.773-2.795,3.701-4.234c0.924-1.437,2.672-3.027,5.242-4.773
			l4.623-4.619c3.598-3.592,7.502-6.467,11.717-8.623c0.614-0.205,1.875-1.232,3.774-3.08c1.9-1.848,4.062-3.207,6.479-4.081
			c2.414-0.871,4.775-1.975,7.09-3.311c2.311-1.333,4.139-2.001,5.475-2.001h1.232c0.408,0,3.133-1.282,8.17-3.85h0.928
			c0.408,0,1.385,0.412,2.928,1.232h0.307l2.469-1.232c0.41-0.204,0.924-0.308,1.541-0.308c6.369,0,9.865,4.415,10.484,13.242
			c0.203,1.848,0.719,2.771,1.541,2.771c1.025,0,2.49-1.872,4.391-5.62c1.902-3.746,5.934-5.62,12.096-5.62
			c4.412,0,6.621,2.825,6.621,8.469c0,6.674-2.979,12.987-8.932,18.938c-0.41,0.823-0.719,1.747-0.924,2.771l-2.156,6.312v0.308
			c0,0.616-0.438,1.463-1.309,2.541c-0.873,1.078-1.309,2.028-1.309,2.849l0.309,3.85l-0.615,4.311c0,1.951,0.357,3.234,1.074,3.85
			c3.275-0.82,5.654-2.18,7.139-4.08c1.484-1.898,2.533-2.949,3.146-3.156l1.535-0.616
			C376.089,161.039,377.164,159.757,378.392,158.729z M327.261,158.729c0.412-2.257,1.67-3.977,3.775-5.158
			c2.104-1.179,3.361-2.387,3.773-3.618c1.947-1.436,4.746-4.003,8.391-7.699c3.645-3.696,5.469-5.952,5.469-6.775
			c0-0.308-0.207-0.462-0.615-0.462h-0.309l-1.232,0.77l-2.77-0.308l-2.928,0.308l-2.156-1.078l-2,0.308l-3.08-0.616
			c-1.645,0-3.057,0.334-4.234,1c-1.182,0.669-3.441,1.413-6.777,2.233c-3.338,0.823-6.34,2.232-9.01,4.234
			c-2.672,2.001-4.619,3.002-5.852,3.002c-0.719,1.54-3.133,3.748-7.236,6.621c-2.467,0.822-4.059,2.617-4.775,5.389
			c-2.672,2.156-4.004,3.388-4.004,3.695l-1.078,2.618c-0.822,0.719-1.848,1.309-3.08,1.771c-1.229,0.462-1.951,1.54-2.154,3.233
			c-0.207,1.693-0.899,3.233-2.08,4.619c-1.18,1.386-1.77,2.49-1.77,3.311c0,5.03,0.975,7.545,2.926,7.545
			c0.82,0,2.539-0.539,5.158-1.617c2.617-1.076,4.131-1.82,4.541-2.231c0.41-0.409,1.232-0.82,2.465-1.231l2.928-1.54
			c0.408-0.409,0.871-0.666,1.386-0.77c0.515-0.103,1.024-0.437,1.541-1.001c0.512-0.563,1.437-1.18,2.771-1.848
			c1.332-0.668,2.359-1.564,3.078-2.694c1.744-1.025,4.57-2.618,8.473-4.773l3.232-2.464c2.258-1.024,3.643-1.898,4.158-2.617
			C324.695,160.169,325.722,159.449,327.261,158.729z"/>
		<path fill="#FFFFFF" d="M511.757,161.193v1.693l0.309,1.232v0.615c0,0.207-0.207,1.386-0.615,3.542
			c-1.539,1.644-2.414,3.953-2.617,6.929l-1.848,2.771c0,1.438-0.488,2.567-1.463,3.389c-0.979,0.822-1.824,2.464-2.541,4.927
			c-0.721,2.464-1.596,5.081-2.617,7.854l-3.541,8.775c0,0.411,0.203,0.615,0.615,0.615c0.203,0,0.537-0.102,1-0.309
			c0.463-0.203,0.896-0.308,1.309-0.308c0.41,0,0.82,0.104,1.23,0.308c0.412,0.207,0.721,0.309,0.928,0.309s0.953-0.358,2.236-1.077
			c1.285-0.717,2.752-1.179,4.4-1.386l5.709-1.387c1.234-0.408,3.756-0.615,7.561-0.615l4.787-0.309
			c3.807,0,7.637,0.978,11.494,2.926c3.859,1.951,6.277,4.004,7.254,6.158c0.979,2.156,1.469,5.646,1.469,10.471
			c0,3.797-1.283,5.697-3.855,5.697c-1.543,0-3.52-0.978-5.936-2.926c-2.416-1.951-4.088-4.415-5.012-7.391
			c-0.924-2.978-2.414-4.467-4.469-4.467l-3.855-1.23l-2.158,0.616h-0.615c-0.412,0-1.336-0.31-2.773-0.925h-0.465l-4.625,1.231
			h-6.316l-2.934,1.54c-1.438,0.408-3.008,0.717-4.701,0.924c-1.693,0.204-3.211,0.615-4.547,1.231
			c-1.338,0.616-2.004,1.179-2.004,1.692c0,3.182-1.389,5.902-4.162,8.162c-1.027,1.641-1.596,2.948-1.693,3.926
			c-0.105,0.975-0.695,2.053-1.773,3.233c-1.08,1.179-2.238,3.002-3.469,5.466l-1.232,2.155c-0.414,0.616-0.619,1.129-0.619,1.54
			c0,0.204,0.104,0.616,0.311,1.23v1.387c0,2.873-1.695,5.594-5.088,8.16v1.541c0,0.82-0.822,2-2.467,3.541l0.617,3.08
			c0,0.408-0.566,1.256-1.697,2.539c-1.131,1.282-2.08,2.72-2.85,4.312c-0.771,1.59-2.236,3.003-4.393,4.234v0.924l0.928,1.848
			c0.307,0,0.461,0.204,0.461,0.616c0,0.717-0.771,1.794-2.312,3.233c-0.41,1.641-1.129,3.232-2.156,4.772l-6.318,8.468
			c-1.027,1.438-1.543,2.565-1.543,3.389l-1.078,2.926c-1.131,0.924-1.926,1.872-2.389,2.849c-0.461,0.976-1.822,2.898-4.084,5.773
			c-2.262,2.872-3.752,4.312-4.469,4.312c0.617,1.232,0.924,1.949,0.924,2.156c0,1.23-0.822,2.719-2.463,4.465
			c-2.674,0-4.008,0.562-4.008,1.693l0.77,3.08c0,0.408-0.566,1.023-1.697,1.848c-1.131,0.82-2.055,1.23-2.77,1.23h-2.158
			l0.617,2.771c-0.412,1.129-1.027,1.898-1.852,2.311c-0.822,0.408-2.184,1.617-4.084,3.619c-1.898,2-3.262,3.207-4.082,3.617
			l-2.004,1.231l-6.01,0.616c-1.645-0.516-4.803-2.209-9.475-5.082c-4.672-2.875-7.338-5.568-8.008-8.084
			c-0.666-2.517-1-6.082-1-10.7c0-0.515,0.516-1.386,1.539-2.617l0.309-1.231v-2.926c0-0.207,0.516-2.027,1.539-5.467
			c1.025-3.439,1.898-5.339,2.617-5.697c0.719-0.359,1.85-2.386,3.389-6.082c1.539-3.695,2.719-6.107,3.541-7.236l14.184-20.786
			c0-1.335,0.203-2.208,0.615-2.617h0.926c0.82,0,1.389-0.284,1.693-0.847c0.309-0.565,0.773-1.209,1.389-1.926
			c0-1.951,0.898-3.541,2.697-4.772s3.084-2.595,3.855-4.08c0.77-1.489,1.67-2.849,2.697-4.08l0.311-0.925
			c0.406-0.411,1.309-0.899,2.695-1.462c1.391-0.565,2.186-1.362,2.393-2.388l5.24-5.08c0.516-0.412,1.336-0.924,2.467-1.541
			c1.131-0.615,2.311-1.746,3.545-3.388l1.082-0.462h0.924l0.617-0.308c1.23-2.671,2.492-4.107,3.775-4.312
			c1.285-0.206,2.133-0.515,2.545-0.924c-0.105-3.183,1.693-4.772,5.395-4.772c0.82,0,1.436-0.207,1.848-0.616l3.701-2.925
			c0.516-0.412,1.49-2.414,2.93-6.006v-0.309l2.773,0.771l0.309-0.771l-0.615-3.388c0.309-0.408,0.924-1.82,1.848-4.233
			c0.926-2.411,1.795-3.822,2.619-4.234c0.82-0.408,1.229-0.871,1.229-1.386v-1.849l-0.307-1.848l0.615-1.231v-2.002l0.309-0.615
			c0.512-0.513,1.127-2.411,1.848-5.696c0.408-0.41,0.977-0.82,1.693-1.232l6.93-19.555c0.203-0.512,0.514-1.848,0.926-4.003
			l1.229-1.694c1.232-3.283,1.848-5.389,1.848-6.312c0-0.409-0.205-0.616-0.613-0.616c-0.412,0-1.336,0.592-2.771,1.771
			c-1.439,1.181-2.518,1.771-3.234,1.771l-2.463-0.616h-0.615c-0.617,0-1.463,0.515-2.541,1.54
			c-1.078,1.027-1.721,1.539-1.926,1.539l-1.848,0.309c-1.027,1.746-1.951,2.721-2.771,2.926l-3.852,2.463h-0.311l-2.158-1.539
			c0-0.205-0.256-0.309-0.771-0.309c-0.412,0-1.027,1.232-1.85,3.695l-4.783,2.31c-1.029-0.204-1.646-0.308-1.85-0.308
			c-1.031,0-2.01,0.95-2.934,2.849c-0.928,1.9-2.16,2.952-3.703,3.156c-0.822,0.924-2.727,1.644-5.707,2.156l-9.102,6.312
			c-1.029,0.411-1.75,0.925-2.162,1.54c-2.158,0.207-4.164,1.387-6.014,3.541l-4.168-0.309c-1.029,0-2.029,0.67-3.006,2.003
			c-0.977,1.335-1.98,2.001-3.008,2.001h-0.926l-1.852-0.309l-5.09,1.231c-1.441,0-3.652-1.103-6.633-3.312
			c-2.984-2.205-4.475-4.131-4.475-5.772l-0.924-6.929c0-0.205,0.408-0.924,1.232-2.156c0.82-1.231,1.23-2.103,1.23-2.617
			c0-0.205-0.104-0.616-0.307-1.232v-1.231c0-3.592,1.281-7.903,3.848-12.934v-0.616c0-0.409-0.307-0.616-0.924-0.616
			c-1.334,0-2.461,1.104-3.377,3.31c-0.92,2.209-1.986,3.772-3.207,4.696c-1.219,0.924-2.109,1.694-2.668,2.31
			c-0.559,0.616-1.041,0.924-1.445,0.924c-0.611-0.408-1.322-0.717-2.135-0.924c-0.201-0.204-0.559-0.82-1.068-1.848
			c-0.506-1.024-1.291-1.871-2.363-2.54c-1.064-0.667-1.6-1.821-1.6-3.465c0-1.128,1.484-2.618,4.449-4.465l1.84-1.848
			c4.703-4.72,7.875-7.237,9.512-7.545l0.918-2.155c1.432-1.128,3.195-2.695,5.293-4.696c2.096-2.002,3.963-3.412,5.6-4.234
			l8.297-7.237c2.463-2.257,5.854-3.388,10.162-3.388c3.285,0,4.928,2.105,4.928,6.313c0,4.21-0.746,7.468-2.23,9.777
			c-1.49,2.31-2.414,4.415-2.771,6.313c-0.361,1.901-1.721,4.415-4.08,7.545c-2.363,3.132-3.799,5.442-4.312,6.929
			c-0.514,1.489-1.566,3.542-3.156,6.159c-1.592,2.618-2.387,4.954-2.387,7.006c0,1.027,0.615,1.54,1.85,1.54
			c1.744,0,3.953-0.924,6.627-2.771l1.385-0.616c1.027-0.409,2.057-0.924,3.082-1.54l3.854-1.693
			c0.721-1.54,1.852-2.564,3.391-3.079l2.928-1.54c1.439-0.616,3.209-1.41,5.316-2.387c2.105-0.975,3.467-1.925,4.084-2.849
			c0.615-0.924,1.41-1.667,2.387-2.232c0.977-0.563,2.08-1.463,3.314-2.695c2.67,0,6.369-2.31,11.094-6.929
			c4.725-2.771,9.143-5.517,13.252-8.238c4.109-2.719,6.83-4.696,8.168-5.928c0.615-0.409,1.719-0.974,3.312-1.693
			c1.592-0.717,3.389-1.872,5.391-3.465c2.002-1.59,4.543-2.386,7.623-2.386c2.668,0,5.234,1,7.697,3.002
			c2.465,2.001,3.695,3.979,3.695,5.928l-0.309,7.391c0,4.723-1.285,8.726-3.85,12.01c-0.615,4.106-1.336,6.928-2.156,8.468
			l0.309,3.542C515.144,158.729,514.013,159.757,511.757,161.193z M438.822,279.139l0.771-2.156
			c0.203-0.719,0.924-1.438,2.154-2.154c1.023-4.415,2.408-7.29,4.156-8.623c0-2.259,0.1-3.541,0.307-3.85l2.154-2.002l6.002-10.162
			c0.615-1.438,1.283-2.797,2-4.08c0.717-1.284,1.281-2.54,1.691-3.771c0-1.439,1.693-4.262,5.08-8.469v-1.078
			c0-1.438-0.307-2.154-0.924-2.154c-0.615,0.717-1.643,1.436-3.078,2.154l-9.85,8.314c-0.516,0.408-1.898,2.053-4.156,4.928
			l-2.922,3.079c-1.645,1.743-2.902,2.849-3.773,3.311s-1.945,1.948-3.229,4.466c-1.283,2.515-2.385,3.771-3.311,3.771h-0.613
			c-0.105,0-0.615-0.257-1.539-0.77c-0.617,0.308-0.922,0.77-0.922,1.385l0.922,3.695c0,0.409-0.412,1.053-1.232,1.926
			c-0.82,0.871-1.514,1.82-2.076,2.849c-0.566,1.024-1.154,1.642-1.771,1.848c-0.615,0.204-1.744,2.104-3.385,5.697l-2.924,1.539
			c-0.307,6.056-2.207,10.933-5.695,14.628c-0.824,1.641-1.49,3.258-2.002,4.852c-0.516,1.59-0.977,2.59-1.387,3.002
			c-0.615,3.797-1.693,6.006-3.232,6.621c-0.412,0.205-0.617,0.512-0.617,0.924c0,0.615,0.463,1.231,1.387,1.848l0.615,0.615
			c-1.334,4.004-2.002,6.979-2.002,8.932c0,0.409,0.205,0.616,0.617,0.616l4.619-2.31c3.283-1.541,5.49-3.492,6.621-5.853
			l2.463-4.772c0.408-0.615,1.129-1.027,2.152-1.231c0.617-2.155,1.615-3.542,3.002-4.157c1.385-0.615,2.078-1.438,2.078-2.464
			s1.922-4.567,5.77-10.624C436.589,283.396,438.615,279.959,438.822,279.139z"/>
	</g>
</g>
</svg>
