<?xml version="1.0" encoding="utf-8"?>
<!-- Generator: Adobe Illustrator 16.0.0, SVG Export Plug-In . SVG Version: 6.00 Build 0)  -->
<!DOCTYPE svg PUBLIC "-//W3C//DTD SVG 1.1//EN" "http://www.w3.org/Graphics/SVG/1.1/DTD/svg11.dtd">
<svg version="1.1" id="Layer_1" xmlns="http://www.w3.org/2000/svg" xmlns:xlink="http://www.w3.org/1999/xlink" x="0px" y="0px"
	 width="471px" height="138.5px" viewBox="0 0 471 138.5" enable-background="new 0 0 471 138.5" xml:space="preserve">
<g>
	<path fill="#F6A6A8" d="M9.234,28.451l0.193,0.902c0,0.172-0.439,0.591-1.317,1.257c-0.878,0.667-1.424,0.999-1.638,0.999
		c-3.036,0-4.554-0.88-4.554-2.643l0.386-1.418l-0.128-1.611c0-0.687,0.75-1.782,2.252-3.287c0.429-0.171,1.029-0.623,1.802-1.354
		c0.771-0.73,2.015-1.375,3.731-1.934c0.171-0.086,0.428-0.451,0.771-1.096c1.072-0.602,1.887-1.01,2.445-1.225
		c0.558-0.215,1.522-0.698,2.896-1.45c1.374-0.752,2.758-1.418,4.155-1.998c1.396-0.58,2.631-1.171,3.706-1.772l1.289-0.387
		l0.967-0.773c0.343-0.215,0.751-0.365,1.225-0.452c0.472-0.085,0.945-0.258,1.418-0.516l0.387-0.129h0.773
		c0.086,0,0.279-0.117,0.58-0.354c0.3-0.235,1.515-0.472,3.642-0.709c2.127-0.235,3.233-0.354,3.32-0.354
		c1.117,0,2.137,0.677,3.062,2.03c0.923,1.354,1.386,2.912,1.386,4.674c0,1.246-0.462,2.546-1.386,3.899
		c-0.925,1.354-1.623,2.61-2.095,3.771c-0.474,1.16-0.914,1.912-1.321,2.256c-0.409,0.345-0.87,1.031-1.386,2.062l-2.127,3.352
		c-0.344,0.688-0.667,1.644-0.967,2.868c-0.301,1.225-0.902,1.988-1.805,2.288c-0.387,1.333-0.849,2.343-1.386,3.029
		c-0.538,0.688-0.87,1.301-0.999,1.837c-0.129,0.538-0.312,1.021-0.548,1.45c-0.237,0.431-0.57,1.312-0.999,2.643
		c-1.247,1.376-1.966,2.601-2.159,3.675c-0.193,1.074-0.805,1.827-1.836,2.256c-0.387,1.289-0.72,2.159-0.999,2.61
		c-0.28,0.451-0.538,1.01-0.773,1.676c-0.237,0.666-0.462,1.085-0.677,1.257l-1.869,5.285l-0.387,1.74
		c-0.559,0.773-0.914,1.505-1.063,2.191c-0.151,0.688-0.377,1.354-0.677,1.998v1.031c0,0.301-0.129,0.709-0.387,1.225l-0.387,1.16
		c0,0.988-0.322,1.654-0.967,1.998v0.129c0,0.129,0.15,0.667,0.451,1.611v0.258l-0.709,1.934v0.322l0.451,1.289l-0.193,1.869
		c0,0.688,0.279,1.578,0.838,2.675c0.558,1.096,0.945,1.644,1.161,1.644c0.085,0,0.256-0.171,0.514-0.516
		c0.903-0.258,1.601-0.612,2.094-1.062c0.493-0.451,1.084-0.763,1.771-0.936c0.085-0.085,0.203-0.3,0.354-0.645
		c0.15-0.344,0.461-0.646,0.934-0.902c0-0.085,0.085-0.129,0.258-0.129l0.708,0.129h0.129c0.085,0,0.214-0.182,0.387-0.548
		c0.171-0.364,0.45-0.697,0.837-0.999c0.387-0.301,1.073-1.096,2.062-2.385c0.987-1.289,1.996-2.191,3.027-2.707l3.93-4.834
		l1.61-1.354c0.257-1.031,0.557-1.686,0.901-1.966c0.343-0.279,0.708-0.719,1.095-1.321l0.645-0.645l0.258-0.516
		c0.815-1.375,1.502-2.385,2.061-3.029c0.558-0.645,0.88-1.139,0.966-1.482c0.085-0.344,0.504-1.063,1.256-2.159
		c0.751-1.096,1.568-2.396,2.448-3.899c0.88-1.503,1.513-2.524,1.899-3.062c0.386-0.538,0.654-1.117,0.806-1.741
		c0.15-0.622,0.611-1.234,1.385-1.837l3.285-6.188l1.868-3.158l0.387-0.387c0.257-0.258,0.471-0.751,0.644-1.482l0.838-1.805
		c0.258-0.73,0.45-1.267,0.579-1.611c0.129-0.344,0.451-0.838,0.967-1.482l0.129-0.516c0.085-0.429,0.258-0.902,0.516-1.418
		l0.967-0.387c0.171-0.387,0.29-0.924,0.354-1.611s0.354-1.278,0.87-1.772c0.516-0.493,0.988-0.741,1.418-0.741
		c0.086-0.086,0.408-0.698,0.967-1.837c0.558-1.139,1.589-1.708,3.094-1.708c1.805,0,3.449,1.053,4.931,3.158
		s2.224,3.781,2.224,5.027c0,1.289-0.752,2.085-2.256,2.385c-1.204,1.505-2.117,2.997-2.739,4.479
		c-0.624,1.482-1.171,2.633-1.644,3.448c-0.86,2.622-1.289,4.061-1.289,4.318c-0.43,0.516-0.806,1.279-1.128,2.288
		c-0.322,1.011-0.591,1.634-0.806,1.869c-0.215,0.237-0.612,1.192-1.192,2.869c-0.58,1.676-1.042,2.686-1.386,3.029v1.547
		c0,1.676-0.795,3.652-2.385,5.93l-0.387,1.482l-0.645,0.516v1.611c-0.602,0.258-0.946,0.773-1.031,1.547l-0.322,1.611
		c-0.086,0-0.129,0.087-0.129,0.258c0,0.172,0.15,0.258,0.451,0.258c0.859,0,1.547-0.666,2.064-1.998
		c0.086-0.042,0.58-0.3,1.484-0.773c0.905-0.473,1.421-0.773,1.55-0.902l0.969-0.838c0.516-0.258,0.968-0.687,1.355-1.289
		s0.871-0.944,1.453-1.031c0.581-0.086,1.001-0.354,1.259-0.806c0.258-0.451,1.098-1.021,2.519-1.708l3.422-2.771
		c0.689-0.559,1.657-0.838,2.906-0.838c0.731,0,1.098,0.451,1.098,1.354c0,0.344-0.269,0.784-0.807,1.321
		c-0.538,0.537-0.829,0.956-0.871,1.257c-0.043,0.301-0.151,0.537-0.323,0.709c-0.172,0.172-0.322,0.677-0.451,1.515
		c-0.129,0.838-0.528,1.344-1.194,1.515c-0.667,0.172-1.195,0.462-1.582,0.87c-0.387,0.409-0.763,0.655-1.129,0.741
		c-0.366,0.087-0.743,0.258-1.13,0.516c-0.387,0.258-0.807,0.483-1.258,0.677c-0.452,0.193-1.065,0.806-1.839,1.837
		c0,0.087-0.538,0.387-1.613,0.902l-1.034,0.967c-0.688,0.43-1.355,0.816-2,1.16h-0.388l-0.387,0.129
		c-0.517,0.773-1.657,1.912-3.421,3.416l-3.292,2.771c-0.602,0.516-0.936,0.999-1,1.449c-0.064,0.451-0.355,1.021-0.871,1.709
		c-0.517,0.688-0.774,1.183-0.774,1.481c0,3.095-0.582,4.856-1.745,5.286c-0.173,0.086-0.259,0.473-0.259,1.16
		c0,2.105-0.344,3.48-1.033,4.125c-0.215,0.516-0.667,1.396-1.356,2.643l-0.129,0.129l0.129,1.418c0,0.559-0.215,1.182-0.646,1.869
		c-0.431,0.688-0.646,1.268-0.646,1.74l-0.711,2.643c-0.172,0.603-0.42,1.063-0.742,1.387c-0.323,0.322-1.001,2.008-2.033,5.06
		c-0.817,1.246-1.268,1.998-1.354,2.257c-0.086,0.258-0.473,0.387-1.16,0.387l-0.773,0.129c0.042,0.172,0.161,0.451,0.354,0.838
		s0.29,0.688,0.29,0.902c0,0.987-0.215,1.825-0.645,2.514c-0.43,0.688-0.688,1.289-0.773,1.805l-0.387,0.902
		c-0.087,0.129-0.172,0.387-0.258,0.773c-0.087,0.387-0.366,0.881-0.838,1.481l-0.387,0.838c-0.172,0.517-0.603,1.03-1.289,1.548
		c-0.301,1.16-0.978,2.676-2.03,4.544c-1.054,1.869-2.009,3.126-2.869,3.771l-0.645,0.646c-0.086,0.085-0.215,0.129-0.387,0.129
		h-0.451l-0.773-0.258c-0.258,0-0.451,0.396-0.58,1.192c-0.129,0.794-0.516,1.191-1.16,1.191c-0.344,0-0.602-0.087-0.773-0.258
		c-1.118,1.16-1.945,1.782-2.481,1.869c-0.538,0.086-0.935,0.171-1.192,0.258c-0.258,0.086-0.43,0.129-0.516,0.129
		c-0.387,0-0.902-0.57-1.547-1.708c-0.645-1.14-1.139-1.752-1.482-1.837l-0.838-0.58c-0.087,0-0.506-0.753-1.257-2.256
		c-0.752-1.505-1.128-2.857-1.128-4.061l-0.387-2.644l0.258-1.032c-0.258-0.729-0.387-1.139-0.387-1.225
		c0-1.031,0.268-1.9,0.806-2.609c0.537-0.709,0.806-1.106,0.806-1.192c0-0.13-0.216-0.56-0.645-1.289v-0.322
		c0-0.344,0.429-1.567,1.289-3.674l0.387-1.289l0.258-0.129h0.516c0.085,0,0.203-0.269,0.354-0.806
		c0.15-0.539,0.396-0.914,0.741-1.129c0.343-0.215,0.516-0.408,0.516-0.58v-0.258l-0.258-0.838c0-0.172,0.214-0.474,0.645-0.902
		c0.429-0.43,0.806-1.021,1.128-1.771c0.322-0.752,0.633-1.215,0.935-1.386c0.3-0.173,0.494-0.667,0.58-1.481
		c0.773-1.506,1.74-2.257,2.9-2.257l0.387-0.387l-0.258-0.772c0-0.604,1.009-1.74,3.029-3.416l0.58-0.968
		c0.258-0.517,0.558-0.772,0.902-0.772l1.87,0.387l0.258-0.129l-0.451-1.934c0.129-0.13,0.279-0.236,0.451-0.322
		c0.129-0.215,0.29-0.678,0.483-1.387c0.193-0.709,0.419-1.062,0.677-1.062c0.085,0,0.58,0.258,1.482,0.773l0.516-0.517
		c0-0.172-0.087-0.397-0.258-0.677c-0.172-0.279-0.258-0.506-0.258-0.678c0-1.03,0.923-1.74,2.771-2.127
		c0.343-0.43,0.601-0.955,0.773-1.58c0.171-0.621,0.558-1.03,1.16-1.225c0.601-0.193,1.354-0.762,2.256-1.708
		c0.902-0.944,1.354-1.589,1.354-1.935c0-0.857,0.387-1.953,1.16-3.286c0.773-0.388,1.16-0.646,1.16-0.773s-0.172-0.407-0.516-0.838
		c-0.086,0-0.129-0.085-0.129-0.258c0-0.772,0.365-1.246,1.096-1.418l0.129-0.129l-0.258-1.869c0.816-1.16,1.375-2.707,1.676-4.641
		v-0.773c0-0.258,0.171-0.558,0.516-0.902c0.344-0.344,0.709-1.053,1.096-2.127l-0.129-1.354c0-0.172,0.3-0.773,0.903-1.805
		l0.129-0.709c-0.645,0.344-1.161,0.881-1.547,1.611l-0.709,0.645c-0.516,0.645-0.86,1.139-1.031,1.482
		c-0.172,0.345-0.419,0.645-0.741,0.902c-0.322,0.257-0.57,0.57-0.741,0.935c-0.172,0.365-0.387,0.655-0.645,0.87
		c-0.258,0.216-0.43,0.538-0.516,0.967l-0.387,0.645c-0.687,0.216-1.095,0.538-1.224,0.967l-1.417,2.771
		c-1.159,0.345-1.738,1.183-1.738,2.514v0.517c-0.086,0.043-0.387,0.118-0.901,0.226c-0.516,0.106-0.772,0.377-0.772,0.806
		c0,0.258-0.193,0.667-0.579,1.225c-0.516-0.084-1.395,0.883-2.64,2.9l-0.645,0.902c-0.387,0.431-0.944,0.772-1.674,1.031
		c-0.472,0.73-0.901,1.172-1.288,1.32c-0.387,0.151-0.579,0.377-0.579,0.678l0.129,1.225c0,0.345-0.537,0.56-1.609,0.645
		c-0.429,0.346-0.687,0.999-0.772,1.967c-0.086,0.968-0.559,1.451-1.417,1.451c-0.3,0-0.751,0.301-1.352,0.901
		c-0.429,0.086-0.827,0.354-1.191,0.806c-0.364,0.451-0.633,0.698-0.805,0.741s-0.387,0.149-0.644,0.322l-0.901-0.259
		c-0.429,0.773-0.751,1.16-0.965,1.16l-1.674-0.129l-0.966,0.258c-0.945,0-2.244-0.623-3.896-1.869
		c-1.653-1.245-2.801-2.385-3.444-3.416c-0.645-1.031-1.203-1.75-1.675-2.159c-0.473-0.407-0.73-0.849-0.772-1.321
		c-0.043-0.472-0.301-1.009-0.773-1.611c-0.474-0.601-0.773-1.61-0.902-3.028L5.82,75.566v-0.516l0.258-1.611l-0.129-1.16
		l1.096-4.382l-0.129-1.418c0-0.171,0.214-0.622,0.645-1.354l0.258-1.289c0-0.429,0.171-1.009,0.516-1.74l0.258-1.418
		c0-0.558,0.226-1.073,0.677-1.547c0.451-0.473,0.848-0.709,1.192-0.709c0.258,0,0.472-0.129,0.645-0.387
		c-0.516-0.344-0.773-0.666-0.773-0.967c0-0.516,0.129-0.967,0.387-1.354c0.258-0.387,0.429-1.031,0.516-1.934l3.545-6.962
		c0.258-0.601,0.472-1.225,0.645-1.869c0.171-0.645,0.451-1.213,0.838-1.708c0.387-0.493,0.687-0.902,0.902-1.225
		c0.214-0.322,0.387-0.633,0.516-0.935c0.129-0.3,0.279-0.697,0.451-1.192c0.171-0.493,0.645-1.084,1.418-1.772l0.387-0.967
		c0.258-0.601,0.88-1.396,1.869-2.385l0.387-1.289c0.086-0.429,0.461-0.999,1.128-1.708c0.666-0.709,1.042-1.214,1.128-1.515
		c0.601-2.062,1.192-3.426,1.772-4.093c0.58-0.666,1.084-1.45,1.515-2.353l0.773-0.773h1.225c0.085,0,0.129-0.086,0.129-0.258
		c0-0.086-0.087-0.279-0.258-0.58c-0.172-0.301-0.258-0.537-0.258-0.709c0-1.16,0.387-1.74,1.16-1.74
		c0.171,0,0.322,0.064,0.451,0.193s0.3,0.193,0.516,0.193c0.085,0,0.171-0.043,0.258-0.129v-0.516l-0.258-0.838v-0.129
		c0-0.258,0.129-0.87,0.387-1.837c0.258-0.967,0.387-1.536,0.387-1.708c0-0.215-0.119-0.58-0.354-1.096
		c-0.237-0.516-0.527-0.773-0.87-0.773c-0.086,0-0.43,0.107-1.031,0.322h-0.129l-0.773-0.58h-0.129c-0.172,0-0.258,0.193-0.258,0.58
		c-0.387,0.516-0.752,0.773-1.096,0.773l-0.902-0.387c-0.087,0-0.527,0.215-1.321,0.645c-0.796,0.43-1.279,0.645-1.45,0.645h-0.129
		l-1.096-0.258c-0.344,0-0.58,0.29-0.709,0.87c-0.129,0.58-0.902,0.913-2.32,0.999c-0.344,0.516-0.763,0.892-1.257,1.128
		c-0.494,0.236-2.31,1.45-5.446,3.642l-0.516,0.258c-0.301,0.945-0.881,1.795-1.74,2.546c-0.86,0.752-1.289,1.622-1.289,2.61
		L9.234,28.451z M34.562,102.381l0.385-0.258c-0.085-0.172-0.128-0.346-0.128-0.516c0-0.387,0.213-0.926,0.642-1.611
		c-0.086-0.172-0.128-0.43-0.128-0.773c0-0.172,0.257-0.666,0.771-1.481l0.129-1.16c0.084-0.731,0.288-1.204,0.609-1.418
		c0.321-0.216,0.503-0.538,0.545-0.968s0.214-1.021,0.514-1.771c0.3-0.752,0.45-1.3,0.45-1.645L39.25,87.3
		c-2.441,2.836-3.95,4.522-4.528,5.06c-0.578,0.539-1.061,1.192-1.445,1.967c-0.386,0.773-1.028,1.805-1.927,3.094
		s-1.66,2.385-2.28,3.287c-0.621,0.902-1.071,1.729-1.349,2.48c-0.278,0.752-0.858,1.987-1.738,3.707
		c-0.881,1.717-1.461,2.985-1.74,3.803c-0.28,0.816-0.495,1.837-0.645,3.062c-0.151,1.226-0.72,2.095-1.708,2.61
		c-0.086,0-0.129,0.086-0.129,0.258c0,0.086,0.129,0.215,0.387,0.387l0.258,0.387v1.354c0,0.259-0.172,0.517-0.516,0.772v0.773
		c0,0.473-0.215,1.547-0.645,3.225c0.429,0.687,0.645,1.566,0.645,2.643l-0.258,0.645c0,0.086,0.085,0.215,0.258,0.388l0.387,0.772
		c0,0.172,0.042,0.258,0.129,0.258c0.171,0,0.343-0.258,0.516-0.772l0.838-0.901c0.258-0.346,0.677-1.097,1.257-2.257
		c0.58-1.159,1.084-1.892,1.515-2.192c0.429-0.301,0.645-0.537,0.645-0.709s-0.043-0.58-0.129-1.225v-0.129
		c0-0.516,0.192-0.881,0.578-1.096c0.385-0.215,0.578-0.408,0.578-0.58l0.45-0.967c0.427-1.031,0.642-1.912,0.642-2.644
		c0.171-0.258,0.492-0.602,0.964-1.03c0.471-0.431,0.707-0.859,0.707-1.289l-0.129-1.226c0-0.944,0.962-2.965,2.89-6.06l0.963,0.13
		c0.085,0,0.129-0.087,0.129-0.259l-0.514-0.387c-0.386,0-0.578-0.279-0.578-0.838C33.728,103.195,34.005,102.725,34.562,102.381z"
		/>
	<path fill="#F6A6A8" d="M88.668,82.464l-3.032,2.644c-0.172-0.172-0.345-0.258-0.516-0.258c-0.43,0-0.957,0.387-1.581,1.16
		s-1.064,1.16-1.322,1.16l-0.645-0.129c-1.076,0.816-1.849,1.289-2.322,1.418s-1.042,0.365-1.709,0.709s-1.269,0.537-1.807,0.58
		s-0.978,0.227-1.322,0.548c-0.345,0.322-1.183,0.483-2.515,0.483l-1.032-0.129c-0.559,0.258-0.924,0.387-1.096,0.387
		c-0.344,0-0.711-0.184-1.098-0.548c-0.387-0.365-0.807-0.569-1.258-0.612s-0.914-0.344-1.387-0.902
		c-0.474-0.559-0.914-0.944-1.321-1.16c-0.409-0.215-0.742-0.516-1-0.901l-0.903-0.772c-0.731-0.517-1.441-1.461-2.129-2.838
		c-0.688-1.373-1.031-2.449-1.031-3.223v-0.258l0.129-1.225l-0.129-1.418c0.171-0.172,0.387-0.537,0.645-1.097v-2.062l1.547-5.156
		c0.086-0.215-0.086-0.493-0.516-0.838c-0.43,0.645-0.861,1.031-1.293,1.16s-0.724,0.43-0.875,0.902
		c-0.151,0.474-0.4,0.709-0.747,0.709l-0.779-0.258c-0.087,0.087-0.282,0.526-0.585,1.321c-0.303,0.796-0.823,1.191-1.558,1.191
		c-0.78,0-1.169-0.3-1.169-0.902l0.13-1.159l-0.39-1.611c0-0.344,0.344-1.021,1.033-2.03c0.689-1.009,1.323-1.589,1.904-1.74
		c0.582-0.15,1.077-0.558,1.486-1.225c0.409-0.666,1.301-1.472,2.679-2.417c0.774-0.171,1.442-0.729,2.002-1.676
		c0.603-0.473,1.387-0.859,2.356-1.16c0.969-0.301,1.7-0.741,2.195-1.321s1.959-1.482,4.391-2.707
		c2.432-1.225,4.208-1.837,5.327-1.837c0.344,0,0.817-0.097,1.421-0.29c0.602-0.193,1.162-0.365,1.679-0.516
		c0.516-0.15,1.054-0.387,1.613-0.709c0.56-0.322,1.012-0.483,1.357-0.483l1.872,0.645c1.378,0.387,2.217,0.666,2.519,0.838
		c0.086,0.086,0.527,0.269,1.324,0.548c0.795,0.279,1.613,0.655,2.453,1.128c0.839,0.473,1.259,1.354,1.259,2.643
		c-0.732,1.074-1.098,1.654-1.098,1.74c0,0.172,0.495,0.43,1.485,0.773c0.345,0.645,0.861,1.482,1.55,2.514l0.709,2.256l0.129,5.285
		l-0.129,0.516c-0.474,0.43-0.709,0.709-0.709,0.838l0.193,1.289l-0.516,1.805c-0.129,0.56-0.345,0.925-0.646,1.097
		c-0.301,0.172-0.494,0.387-0.58,0.645l-0.387,0.516c-0.086,0.129-0.27,0.506-0.549,1.129c-0.28,0.623-0.591,1.106-0.936,1.449
		c-0.344,0.346-0.559,0.753-0.645,1.225c-0.086,0.475-0.301,0.817-0.646,1.031c-0.344,0.217-0.591,0.441-0.741,0.678
		C89.258,82.089,89.011,82.293,88.668,82.464z M68.639,84.141l0.258,1.482l0.129,0.129h1.029l0.321,0.129
		c0.857,0.172,1.5,0.258,1.93,0.258c1.329,0,2.39-0.332,3.183-0.998c0.793-0.666,1.425-1,1.897-1c0.472,0,0.867-0.322,1.189-0.968
		c0.321-0.646,0.525-0.967,0.611-0.967h0.9l0.257-0.129c0-0.987,0.439-1.696,1.318-2.127c0.878-0.429,1.5-0.999,1.865-1.708
		c0.364-0.709,0.782-1.245,1.254-1.611c0.471-0.363,0.793-0.848,0.965-1.449l0.514-0.773c0.171-0.172,0.258-0.493,0.258-0.967
		l1.221-2.32c0.258-1.073,0.387-1.911,0.387-2.514c0-0.902-0.461-1.611-1.384-2.127c-0.922-0.516-1.382-1.524-1.382-3.029
		c0-0.988,0.503-1.901,1.511-2.739c1.008-0.838,1.513-1.343,1.513-1.515c0-0.258-0.129-0.387-0.387-0.387
		c-0.129,0-0.622,0.172-1.479,0.516c-0.3,0.603-1.823,1.396-4.566,2.385c-0.9-0.429-1.394-0.645-1.479-0.645
		c-0.258,0-0.515,0.258-0.771,0.773c-0.258,0.516-0.515,0.881-0.772,1.096h-0.836c-0.085,0-0.364,0.28-0.836,0.838
		c-0.471,0.559-1.071,0.838-1.801,0.838l-0.771,0.773c0.042,0.688-0.385,1.396-1.286,2.127l-0.708,0.838
		c-0.429,0.516-0.986,1.118-1.672,1.805l-1.158,2.9c-0.471,1.117-0.707,1.955-0.707,2.514c-0.129,0.258-0.419,0.526-0.87,0.806
		c-0.451,0.28-0.677,0.635-0.677,1.063c0,0.086,0.15,0.302,0.451,0.645c0.3,0.345,0.451,0.604,0.451,0.773l-0.258,0.838
		l-0.258,2.385L68.639,84.141z"/>
	<path fill="#F6A6A8" d="M93.634,63.063l0.907,0.387c0.086-0.73,0.497-1.354,1.23-1.869h0.518c0.431,0,0.992-0.58,1.683-1.74
		l1.101-0.645c0.172,0.086,0.431,0.129,0.777,0.129c0.258,0,0.506-0.172,0.744-0.516c0.237-0.344,0.831-1.01,1.781-1.998h0.259
		c0.259,0,0.572-0.193,0.939-0.58c0.366-0.387,0.852-0.58,1.456-0.58l2.202-0.58c0.688-0.172,1.075-0.258,1.161-0.258
		c0.387-0.129,1.332,0.655,2.836,2.353c1.504,1.697,2.256,3.342,2.256,4.931c0,0.902-0.473,1.44-1.418,1.611l-0.322,0.258v1.289
		l-1.096,2.385c-0.301,0.645-0.667,1.054-1.096,1.225c-0.387,0.688-0.667,1.16-0.838,1.418l-0.902,0.129l-0.387,0.387v1.611
		c-0.387,0.516-0.946,1.645-1.676,3.384c-0.731,1.74-1.096,2.849-1.096,3.319c0,0.816,0.171,1.225,0.516,1.225
		c0.258,0,0.516-0.105,0.773-0.322c0.258-0.214,0.612-0.461,1.063-0.74c0.451-0.278,0.784-0.568,0.998-0.87
		c0.214-0.3,0.666-0.568,1.353-0.806c0.687-0.235,1.332-0.678,1.933-1.322c0.601-0.644,1.03-1.072,1.288-1.288
		c0.258-0.214,0.537-0.505,0.838-0.87c0.3-0.364,0.494-0.549,0.579-0.549c0.258,0,0.666-0.084,1.225-0.258
		c0.084-0.472,0.17-0.814,0.257-1.03l1.546-0.773l3.736-3.352l0.515-0.645c0.687-0.171,1.117-0.3,1.288-0.387
		c0.343-1.16,0.923-1.998,1.739-2.514c0-0.171,0.214-0.3,0.645-0.387c0.342-0.687,0.783-1.234,1.319-1.644
		c0.537-0.408,0.977-0.912,1.321-1.515l1.481-1.225c0.429-0.171,0.73-0.429,0.901-0.773c2.233-1.977,3.618-3.104,4.154-3.384
		c0.537-0.279,1.407-0.419,2.609-0.419s2.179,0.462,2.93,1.386c0.751,0.924,1.568,1.622,2.449,2.095
		c0.88,0.473,1.321,1.376,1.321,2.707c0,1.247-0.967,3.632-2.9,7.154c-1.247,3.696-1.891,5.962-1.934,6.8s-0.237,1.32-0.58,1.449
		c-0.344,0.129-0.516,0.28-0.516,0.451v0.258c0,1.031,0.171,1.547,0.516,1.547c0.258,0,0.612-0.213,1.063-0.645
		c0.451-0.429,1.363-0.902,2.735-1.418l0.578,0.129c1.241-1.89,2.076-2.91,2.505-3.062c0.428-0.149,0.856-0.536,1.284-1.16
		c0.428-0.622,0.953-0.956,1.574-0.999c0.621-0.042,1.017-0.15,1.188-0.322c0.042-1.031,0.887-2.191,2.536-3.479
		c1.649-1.289,2.602-1.934,2.859-1.934c0.428,0,0.771,0.322,1.027,0.967c0.256,0.645,0.524,1.086,0.803,1.321
		c0.278,0.236,0.418,0.441,0.418,0.612v1.16c0,0.559-0.279,0.925-0.836,1.096c-0.429,0.946-0.816,1.505-1.158,1.676l-1.157-0.129
		c-0.215,0.258-0.398,0.495-0.548,0.709c-0.15,0.217-0.247,0.303-0.289,0.258c-0.342,0.088-0.954,0.656-1.833,1.709
		s-1.662,1.924-2.348,2.609l-0.257,0.387c-0.343,0.258-0.665,0.432-0.965,0.516l-1.158,0.968c-0.429-0.258-0.686-0.388-0.771-0.388
		c-0.087,0-0.269,0.174-0.547,0.517c-0.279,0.345-0.837,0.785-1.673,1.321c-0.836,0.537-1.469,1.15-1.896,1.837l-1.029,1.03
		l-1.351,0.193c-0.129,0-0.343,0.193-0.644,0.581l-1.157,1.481c-0.558,0.73-1.437,1.097-2.638,1.097
		c-0.258,0-0.59-0.226-0.997-0.677s-0.792-0.838-1.157-1.16c-0.365-0.322-1.181-1.29-2.447-2.901
		c-1.267-1.61-1.899-2.459-1.899-2.546l0.387-2.256l-0.129-1.547c0-0.301,0.203-0.762,0.612-1.387
		c0.408-0.621,0.612-0.954,0.612-0.998l-0.129-2.514c0.085-0.087,0.171-0.216,0.258-0.388l0.902-1.481
		c-0.087-0.43-0.129-0.902-0.129-1.418l0.258-2.127c-0.773,0.345-1.451,1.042-2.031,2.095c-0.58,1.054-1.344,1.58-2.289,1.58
		c-0.817,1.461-1.441,2.17-1.87,2.127c-0.172,0.173-0.301,0.345-0.387,0.516l-0.902,0.516l-1.096-0.129l-0.388,1.611
		c-0.946,0.516-1.558,0.979-1.837,1.386c-0.28,0.409-0.72,0.828-1.321,1.257l-1.097,1.031h-1.031c-0.172,1.16-0.839,2.127-1.999,2.9
		l-0.516,0.645l-1.161-0.129c-0.43,1.376-0.968,2.214-1.612,2.514c-0.731,0-1.73,0.668-2.998,2s-2.159,1.998-2.675,1.998
		c-3.74,0-6.77-2.343-9.09-7.026c-0.086-0.171-0.29-0.493-0.612-0.968c-0.322-0.472-0.483-1.201-0.483-2.19
		c0-1.676,0.226-2.813,0.677-3.416c0.451-0.601,1.031-1.729,1.74-3.384c0.709-1.653,1.235-2.374,1.58-2.159
		c0.085-0.171,0.129-0.429,0.129-0.773c0.687-0.815,1.031-1.439,1.031-1.869c0-0.171-0.087-0.258-0.258-0.258
		c-0.087,0-0.345,0.129-0.773,0.387L98.3,66.995c-0.389,0.087-0.669,0.258-0.842,0.516c-0.173,0.258-0.476,0.506-0.907,0.741
		c-0.432,0.236-0.778,0.441-1.036,0.612h-0.194c-0.26-0.258-0.432-0.387-0.519-0.387c-0.26,0.688-0.476,1.118-0.647,1.289
		l-0.778,0.129c-0.951,0.989-1.555,1.482-1.813,1.482c-0.173,0-0.562-0.15-1.167-0.451c-0.604-0.3-0.906-0.602-0.906-0.902
		l0.453-2.514v-1.16c0-0.086,0.172-0.258,0.518-0.516c0.087,0,0.432-0.461,1.037-1.386C92.103,63.525,92.814,63.063,93.634,63.063z"
		/>
	<path fill="#F6A6A8" d="M158.29,15.496l1.096-0.902l1.289,0.129c0.73,0,1.354-0.193,1.87-0.58s0.935-0.602,1.257-0.645
		c0.322-0.043,0.708-0.258,1.159-0.645s1.105-0.655,1.966-0.806c0.859-0.15,1.482-0.419,1.869-0.806
		c0.387-0.387,0.827-0.634,1.321-0.741c0.494-0.107,1.063-0.291,1.708-0.549l5.864-1.805c0.086,0,0.322,0.087,0.709,0.258h0.258
		c0.516,0,1.021-0.203,1.514-0.612c0.494-0.407,1.085-0.612,1.772-0.612c0.429,0,1.267-0.258,2.514-0.773l0.387,0.387
		c0.687-0.773,1.267-1.16,1.74-1.16h0.387c0.085,0,0.472,0.087,1.159,0.258c1.073-0.343,1.955-0.516,2.643-0.516l1.482-0.129
		c0.085,0,0.214,0.044,0.387,0.129c0.343-0.387,0.816-0.622,1.418-0.709h0.709l2.642-0.645l0.773,0.258
		c0.516-0.429,1.311-0.646,2.385-0.646h0.645l0.645,0.129c0.086,0,0.482-0.129,1.191-0.387s2.438-0.387,5.189-0.387l1.676,0.258
		c1.073-0.429,1.652-0.645,1.739-0.645l1.805,0.387l0.709-0.258h0.258c0.085,0,0.3,0.087,0.645,0.258h0.129l4.64-0.646
		c0.085,0,0.258,0.044,0.516,0.129c0.343-0.3,0.601-0.451,0.773-0.451l1.225,0.322c0.344,0,0.945-0.235,1.805-0.709l0.387,0.387
		l4.382-0.516l1.611,0.129l1.418-0.258c1.417,0,2.48,0.377,3.189,1.128c0.709,0.753,1.063,1.515,1.063,2.288l0.258,1.998
		l-0.387,1.096l-0.129,1.289c-0.215,0.516-0.537,0.86-0.966,1.031c0,0.087-0.193,0.184-0.58,0.291
		c-0.387,0.107-0.772,0.29-1.159,0.548c-0.387,0.258-1.654,0.387-3.801,0.387c-1.074,0-1.761-0.333-2.061-1
		c-0.301-0.665-0.624-1.041-0.967-1.128l-2.77-1.16c-0.087-0.085-0.344-0.129-0.772-0.129h-0.516l-2.641,0.258
		c-0.087,0-0.322-0.042-0.709-0.129c-0.558,0.258-0.859,0.387-0.901,0.387l-4.767-0.258l-1.933,0.129l-1.353-0.258
		c-0.172,0-0.474,0.064-0.903,0.193s-1.331,0.237-2.705,0.322c-1.374,0.087-2.061,0.516-2.061,1.289
		c0,0.474,0.183,0.989,0.547,1.548c0.365,0.559,0.548,1.01,0.548,1.354c-0.645,0.902-0.967,1.482-0.967,1.74
		c-0.171,0.129-0.472,0.408-0.901,0.838c-0.43,0.43-1.225,1.106-2.384,2.03c-1.159,0.924-1.954,1.772-2.383,2.546
		c-0.429,0.773-0.944,1.16-1.546,1.16c-0.773,0.73-1.31,1.396-1.61,1.998l-0.516,0.516c-0.085,0.087-0.128,0.28-0.128,0.58
		c0,0.258-0.129,0.516-0.387,0.773l-0.58,1.547c-0.301,0.129-1.181,1.247-2.641,3.352l-0.773,0.387l-0.772,0.902h-0.902
		c-0.387,0-0.579,0.258-0.579,0.773l0.258,1.869c-0.645,0.559-1.16,1.312-1.546,2.256l-0.773,1.289
		c-0.902,0.902-1.353,1.397-1.353,1.482c0,0.216-0.43,1.14-1.288,2.771l-0.129,0.645c0,0.731-1.503,2.836-4.509,6.317
		c-0.43,0.816-0.688,2.062-0.773,3.738c-1.288,2.535-2.168,3.76-2.641,3.674c-0.086,1.633-0.354,2.965-0.806,3.996
		c-0.452,1.031-1.031,2.546-1.74,4.544s-1.45,3.427-2.224,4.286l-0.258,0.516c-0.172,0.345-0.387,0.688-0.645,1.031
		c-0.087,1.16-0.495,3.009-1.225,5.543l-0.387,2.771l-1.289,3.608c-0.129,0.258-0.193,0.517-0.193,0.772
		c0,0.174,0.139,0.506,0.419,1c0.279,0.494,0.419,0.957,0.419,1.387c0,0.602-0.108,1.085-0.322,1.449
		c-0.216,0.365-0.322,0.85-0.322,1.451c0,1.332-0.709,2.213-2.127,2.643h-0.516l-1.354,0.129c-1.805,0-3.438-0.859-4.898-2.578
		c-1.461-1.719-2.191-4.082-2.191-7.091c0-0.171,0.129-0.826,0.387-1.966c0.258-1.139,0.408-1.879,0.451-2.225
		c0.042-0.343,0.15-0.697,0.322-1.062c0.171-0.364,0.258-0.891,0.258-1.579c0-2.104,0.526-3.933,1.579-5.479
		c1.053-1.547,1.75-2.664,2.095-3.352c0.086-0.3,0.236-0.493,0.451-0.58c-0.129-0.344-0.193-0.773-0.193-1.289
		c0-1.246,0.537-2.256,1.611-3.029c0.086-0.344,0.236-0.741,0.451-1.192c0.215-0.451,0.666-1.547,1.354-3.287
		c0.687-1.74,1.589-2.761,2.708-3.062c-0.043-0.086,0.214-0.43,0.773-1.031l-0.258-2.256c0-0.344,0.387-0.924,1.16-1.74l1.096-1.806
		c0.171-0.729,0.73-1.396,1.676-1.998c0.258-0.429,0.537-0.687,0.838-0.773c0.042-0.171,0.226-0.709,0.548-1.611
		c0.322-0.902,1.009-2.03,2.062-3.384c1.052-1.354,2.062-2.76,3.029-4.222c0.967-1.46,1.847-2.213,2.643-2.256
		c0.795-0.042,1.235-0.493,1.321-1.354l0.387-2.385c1.246-1.073,1.999-1.826,2.256-2.256l0.902-1.031
		c0.171-0.602,0.396-0.999,0.677-1.192c0.279-0.193,0.633-0.59,1.063-1.192c0.429-0.602,0.967-1.139,1.611-1.611
		c0.558-1.762,1.826-3.287,3.803-4.576l1.031-1.096c0.73-1.031,1.332-1.729,1.805-2.095c0.472-0.365,0.827-0.849,1.063-1.45
		c0.236-0.602,0.698-1.053,1.386-1.354c0.687-0.301,1.031-0.646,1.031-1.032c0-0.171-0.172-0.258-0.516-0.258
		c-0.344,0-0.924,0.129-1.74,0.387h-0.516l-1.16,0.258h-0.387l-1.096-0.258c-0.773,0.258-1.375,0.387-1.805,0.387
		c-0.086,0.087-0.366,0.28-0.838,0.581h-1.418l-0.773,0.773l-0.58,0.129l-1.676-0.258c-0.516,0-1.139,0.258-1.869,0.773
		c0,0.086-0.699,0.236-2.095,0.451c-1.396,0.215-2.718,0.612-3.964,1.192c-1.247,0.58-1.998,0.87-2.256,0.87l-1.16-0.258h-0.129
		c-0.559,0-1.075,0.279-1.547,0.838c-0.473,0.559-1.16,0.902-2.062,1.031h-0.773c-0.645,0-1.516,0.258-2.611,0.773
		c-1.095,0.515-1.687,0.773-1.773,0.773l-1.162-0.129c-0.517,0.344-0.958,0.58-1.323,0.709c-0.365,0.129-0.72,0.333-1.064,0.612
		c-0.344,0.279-0.688,0.483-1.032,0.612c-0.345,0.129-0.743,0.365-1.194,0.709c-0.451,0.344-0.807,0.516-1.064,0.516h-0.258
		l-0.775-0.129c-0.302,0-0.688,0.269-1.162,0.806c-0.473,0.538-0.915,0.87-1.323,0.999s-0.795,0.333-1.161,0.612
		c-0.367,0.28-0.743,0.441-1.13,0.483c-0.216,0.216-0.517,0.688-0.903,1.418c-0.387,0.731-0.882,1.364-1.485,1.901
		c-0.602,0.538-1.001,0.957-1.194,1.257c-0.193,0.301-0.376,0.451-0.548,0.451c-2.109,0-3.162-1.311-3.162-3.932l1.289-2.771
		c0.902-2.191,2.277-3.523,4.124-3.996c0.472,0,1.697-0.473,3.674-1.418L158.29,15.496z"/>
	<path fill="#F6A6A8" d="M177.561,63.063l0.907,0.387c0.086-0.73,0.497-1.354,1.23-1.869h0.518c0.431,0,0.992-0.58,1.683-1.74
		L183,59.196c0.172,0.086,0.431,0.129,0.777,0.129c0.258,0,0.506-0.172,0.744-0.516c0.237-0.344,0.831-1.01,1.781-1.998h0.259
		c0.259,0,0.572-0.193,0.939-0.58c0.366-0.387,0.852-0.58,1.456-0.58l2.202-0.58c0.688-0.172,1.075-0.258,1.161-0.258
		c0.387-0.129,1.332,0.655,2.836,2.353c1.504,1.697,2.256,3.342,2.256,4.931c0,0.902-0.473,1.44-1.418,1.611l-0.322,0.258v1.289
		l-1.096,2.385c-0.301,0.645-0.667,1.054-1.096,1.225c-0.387,0.688-0.667,1.16-0.838,1.418l-0.902,0.129l-0.387,0.387v1.611
		c-0.387,0.516-0.946,1.645-1.676,3.384c-0.731,1.74-1.096,2.849-1.096,3.319c0,0.816,0.171,1.225,0.516,1.225
		c0.258,0,0.516-0.105,0.773-0.322c0.258-0.214,0.612-0.461,1.063-0.74c0.451-0.278,0.784-0.568,0.998-0.87
		c0.214-0.3,0.666-0.568,1.353-0.806c0.687-0.235,1.332-0.678,1.933-1.322c0.601-0.644,1.03-1.072,1.288-1.288
		c0.258-0.214,0.537-0.505,0.838-0.87c0.3-0.364,0.494-0.549,0.579-0.549c0.258,0,0.666-0.084,1.225-0.258
		c0.084-0.472,0.17-0.814,0.257-1.03l1.546-0.773l3.736-3.352l0.515-0.645c0.687-0.171,1.117-0.3,1.288-0.387
		c0.343-1.16,0.923-1.998,1.739-2.514c0-0.171,0.214-0.3,0.645-0.387c0.342-0.687,0.783-1.234,1.319-1.644
		c0.537-0.408,0.977-0.912,1.321-1.515l1.481-1.225c0.429-0.171,0.73-0.429,0.901-0.773c2.233-1.977,3.618-3.104,4.154-3.384
		c0.537-0.279,1.407-0.419,2.609-0.419c1.202,0,2.179,0.462,2.93,1.386c0.751,0.924,1.568,1.622,2.449,2.095
		c0.88,0.473,1.321,1.376,1.321,2.707c0,1.247-0.967,3.632-2.9,7.154c-1.247,3.696-1.891,5.962-1.934,6.8s-0.237,1.32-0.58,1.449
		c-0.344,0.129-0.516,0.28-0.516,0.451v0.258c0,1.031,0.171,1.547,0.516,1.547c0.258,0,0.612-0.213,1.063-0.645
		c0.451-0.429,1.363-0.902,2.735-1.418l0.578,0.129c1.241-1.89,2.076-2.91,2.505-3.062c0.428-0.149,0.856-0.536,1.284-1.16
		c0.428-0.622,0.953-0.956,1.574-0.999c0.621-0.042,1.017-0.15,1.188-0.322c0.042-1.031,0.887-2.191,2.536-3.479
		c1.648-1.289,2.602-1.934,2.859-1.934c0.428,0,0.771,0.322,1.026,0.967s0.524,1.086,0.804,1.321
		c0.277,0.236,0.418,0.441,0.418,0.612v1.16c0,0.559-0.279,0.925-0.836,1.096c-0.43,0.946-0.816,1.505-1.158,1.676l-1.158-0.129
		c-0.215,0.258-0.397,0.495-0.547,0.709c-0.15,0.217-0.248,0.303-0.289,0.258c-0.342,0.088-0.955,0.656-1.833,1.709
		s-1.662,1.924-2.348,2.609l-0.257,0.387c-0.343,0.258-0.665,0.432-0.965,0.516l-1.158,0.968c-0.429-0.258-0.686-0.388-0.771-0.388
		c-0.087,0-0.269,0.174-0.547,0.517c-0.279,0.345-0.837,0.785-1.673,1.321c-0.836,0.537-1.469,1.15-1.896,1.837l-1.029,1.03
		l-1.351,0.193c-0.129,0-0.343,0.193-0.644,0.581l-1.157,1.481c-0.558,0.73-1.437,1.097-2.638,1.097
		c-0.258,0-0.59-0.226-0.997-0.677c-0.407-0.451-0.792-0.838-1.157-1.16c-0.365-0.322-1.181-1.29-2.447-2.901
		c-1.267-1.61-1.899-2.459-1.899-2.546l0.387-2.256l-0.129-1.547c0-0.301,0.203-0.762,0.612-1.387
		c0.408-0.621,0.612-0.954,0.612-0.998l-0.129-2.514c0.085-0.087,0.171-0.216,0.258-0.388l0.902-1.481
		c-0.087-0.43-0.129-0.902-0.129-1.418l0.258-2.127c-0.773,0.345-1.451,1.042-2.031,2.095c-0.58,1.054-1.344,1.58-2.289,1.58
		c-0.817,1.461-1.441,2.17-1.87,2.127c-0.172,0.173-0.301,0.345-0.387,0.516l-0.902,0.516l-1.096-0.129l-0.388,1.611
		c-0.946,0.516-1.558,0.979-1.837,1.386c-0.28,0.409-0.72,0.828-1.321,1.257l-1.097,1.031h-1.031c-0.172,1.16-0.839,2.127-1.999,2.9
		l-0.516,0.645l-1.161-0.129c-0.43,1.376-0.968,2.214-1.612,2.514c-0.731,0-1.73,0.668-2.998,2
		c-1.268,1.332-2.159,1.998-2.675,1.998c-3.74,0-6.77-2.343-9.09-7.026c-0.086-0.171-0.29-0.493-0.612-0.968
		c-0.322-0.472-0.483-1.201-0.483-2.19c0-1.676,0.226-2.813,0.677-3.416c0.451-0.601,1.031-1.729,1.74-3.384
		c0.709-1.653,1.235-2.374,1.58-2.159c0.085-0.171,0.129-0.429,0.129-0.773c0.687-0.815,1.031-1.439,1.031-1.869
		c0-0.171-0.087-0.258-0.258-0.258c-0.087,0-0.345,0.129-0.773,0.387l-0.907,0.387c-0.389,0.087-0.669,0.258-0.842,0.516
		c-0.173,0.258-0.476,0.506-0.907,0.741c-0.432,0.236-0.778,0.441-1.036,0.612h-0.194c-0.26-0.258-0.432-0.387-0.519-0.387
		c-0.26,0.688-0.476,1.118-0.647,1.29l-0.778,0.129c-0.951,0.988-1.555,1.481-1.813,1.481c-0.173,0-0.562-0.149-1.167-0.451
		c-0.604-0.3-0.906-0.602-0.906-0.901l0.453-2.515v-1.16c0-0.086,0.172-0.258,0.518-0.516c0.087,0,0.432-0.461,1.037-1.386
		C176.029,63.525,176.741,63.063,177.561,63.063z"/>
	<path fill="#F6A6A8" d="M252.484,86.396l-0.45,0.901c-0.173,0.474-0.603,0.709-1.289,0.709c-0.086,0-0.795,0.259-2.127,0.773
		c-1.333,0.516-2.427,0.772-3.284,0.772l-1.729,0.129c-1.025,0-2.028-0.289-3.01-0.869c-0.982-0.58-1.688-1.106-2.117-1.58
		c-0.431-0.473-1.021-1.891-1.772-4.254c-0.752-2.362-1.128-3.78-1.128-4.254c0-1.677,0.451-2.6,1.354-2.771
		c0-0.258-0.205-0.741-0.611-1.45c-0.409-0.709-0.612-1.104-0.612-1.192c0-2.664,0.58-4.727,1.74-6.188
		c-0.517-1.676-0.773-2.6-0.773-2.771c0-0.086,0.107-0.44,0.322-1.063c0.214-0.622,0.364-1.192,0.451-1.708
		c0.085-0.516,0.214-0.944,0.387-1.289l0.129-1.096c0.085-0.516,0.408-0.773,0.968-0.773c0.256,0,0.385-0.172,0.385-0.516v-0.516
		l-0.127-0.838c0-1.203,0.297-2.073,0.896-2.61c0.597-0.537,0.992-1.332,1.185-2.385c0.191-1.053,0.438-1.708,0.736-1.966
		c0.299-0.258,0.533-0.709,0.704-1.354l0.896-1.806l0.705-2.385c0.086-0.472,0.342-0.773,0.77-0.902
		c0.427-0.129,0.641-0.322,0.641-0.58l-0.128-0.773c0.343-0.902,0.578-1.547,0.707-1.934c0.13-0.387,0.517-0.709,1.16-0.967
		c0.601-1.46,1.128-2.491,1.579-3.094c0.451-0.601,0.807-1.289,1.062-2.062c0.258-0.773,0.902-1.524,1.935-2.256
		c0.085-0.171,0.269-0.612,0.548-1.321s0.634-1.105,1.062-1.192c0.43-0.086,0.646-0.258,0.646-0.516l-0.258-0.516
		c0-0.344,0.321-0.967,0.967-1.869l0.772-1.418c0.388-0.429,0.816-0.751,1.289-0.967c0.603-1.202,1.375-2.406,2.321-3.609
		c0.944-1.203,1.761-2.492,2.449-3.867c0.987-1.16,1.911-1.998,2.771-2.514l2.127-2.643c0.517-1.074,1.031-1.612,1.547-1.612
		c0.816-1.547,1.826-2.556,3.029-3.029c0.215-0.085,0.827-0.548,1.838-1.386c1.008-0.838,1.901-1.257,2.674-1.257
		c0.688,0,1.567,0.753,2.644,2.256c1.073,1.505,1.611,2.771,1.611,3.803c0,0.258-0.142,0.635-0.419,1.129
		c-0.28,0.494-0.441,1.01-0.483,1.547c-0.044,0.537-0.302,2.052-0.772,4.544c-0.475,2.492-0.883,3.91-1.226,4.254l-1.739,3.352
		c-0.174,0.516-0.367,0.816-0.58,0.902c-0.217,0.087-0.475,0.43-0.773,1.031l0.322,1.354h-0.129c-0.475,0.516-0.967,1.482-1.483,2.9
		c-0.688,1.031-1.279,2.009-1.772,2.933c-0.494,0.925-0.74,1.537-0.74,1.837l-0.387,0.902c-0.947,1.418-1.57,2.558-1.869,3.416
		c-0.431,0.345-0.764,0.817-1,1.418c-0.236,0.603-0.547,1.043-0.935,1.321c-0.387,0.28-0.634,0.764-0.741,1.45
		c-0.107,0.688-0.226,1.096-0.354,1.225l-1.289-0.129v0.129l0.129,1.869c0,0.173-0.205,0.366-0.611,0.581
		c-0.41,0.215-0.765,0.677-1.063,1.386c-0.302,0.709-0.839,1.106-1.611,1.192c-0.387,0.258-0.624,0.516-0.709,0.773l0.259,1.225
		c-0.088,0.086-0.42,0.537-1,1.354c-0.58,0.817-0.935,1.246-1.062,1.289l-1.354,0.129c-0.259,0.086-0.388,0.838-0.388,2.256
		c0,0.945-0.431,1.59-1.289,1.934c-2.233,3.438-3.535,5.35-3.899,5.736c-0.365,0.387-1.062,0.688-2.095,0.902
		c0,0.087-0.086,0.129-0.258,0.129c-0.431,0-1.354-0.622-2.771-1.869h-0.129c-0.557,2.492-0.994,3.91-1.313,4.254
		c-0.32,0.345-0.479,0.731-0.479,1.16l0.64,1.16v0.193c0,1.203-0.214,2.687-0.64,4.447v0.387l0.256,1.354v2.385l-0.129,1.418
		c0.342,0.604,0.513,1.141,0.513,1.611c0,1.376,0.341,2.062,1.024,2.062c0.342,0,0.879-0.43,1.61-1.289l0.772-0.387
		c0.773-0.344,1.516-1.117,2.225-2.32c0.709-1.202,1.062-2.233,1.062-3.094c0-0.902-0.881-1.354-2.643-1.354
		c-0.859-0.171-1.289-1.096-1.289-2.771c0-0.773,0.322-1.473,0.967-2.096c0.646-0.621,1.203-1.277,1.676-1.966
		c1.031-1.589,2.127-2.385,3.287-2.385l3.287-1.16c0.344,0,0.678,0.064,0.999,0.193c0.322,0.129,0.742,0.28,1.257,0.451
		c1.375-0.516,2.084-0.773,2.127-0.773c1.504,0,2.515,0.773,3.029,2.32c0,0.301,0.344,0.451,1.031,0.451
		c1.503,0,2.76-0.461,3.771-1.386c1.008-0.924,2.084-1.676,3.223-2.256c1.138-0.58,2.062-1.182,2.771-1.805
		c0.709-0.622,1.148-0.935,1.321-0.935h0.967c0.085,0,0.343-0.279,0.773-0.838c0.429-0.558,1.225-0.838,2.385-0.838
		c0.429,0,0.646,0.172,0.646,0.516c0,2.278-0.334,3.62-1,4.028c-0.666,0.409-1.473,1.344-2.416,2.804l-0.709,0.387
		c-0.432,0.387-0.817,0.816-1.16,1.289c-0.346,0.474-0.688,0.752-1.031,0.838c-0.989,1.505-1.741,2.256-2.256,2.256
		c-0.258,0-0.549-0.106-0.87-0.322c-0.322-0.215-0.526-0.322-0.612-0.322c-0.258,0-0.473,0.517-0.645,1.547
		c-0.258,0.388-0.967,1.012-2.127,1.869c-0.172,0-0.473-0.258-0.902-0.772c0-0.085-0.043-0.13-0.129-0.13
		c-0.688,0-1.107,0.388-1.258,1.16c-0.15,0.773-0.633,1.205-1.449,1.289l-2.578,0.451l-1.482-0.129
		c-0.345,0-1.086,1.055-2.224,3.158c-1.139,2.105-1.837,3.202-2.095,3.287c-1.332,0.431-2.256,1.225-2.771,2.386L252.484,86.396z
		 M274.463,12.467v-0.773c-0.988,0.258-1.697,1.182-2.127,2.771l-0.516,0.516c-0.817,0.516-1.461,1.235-1.934,2.159
		c-0.474,0.924-1.248,2.052-2.32,3.384l-0.258,0.773l-1.482,1.869l-0.258,1.225c-0.088,0.172-0.409,0.451-0.967,0.838
		c-0.56,0.387-0.936,0.913-1.129,1.579c-0.192,0.667-0.666,1.461-1.418,2.385c-0.752,0.925-1.268,1.547-1.547,1.869
		s-0.785,1.473-1.515,3.448l-0.388,0.646c0,0.387-0.215,0.709-0.645,0.967l-2.385,2.9c0,0.173-0.086,0.796-0.258,1.869
		c-0.646,0.087-1.053,0.345-1.225,0.773l-1.031,2.385c-0.086,0.258-0.301,0.56-0.646,0.902c-0.56,2.062-1.354,3.567-2.385,4.513
		l-1.482,3.029c-0.172,0.344-0.301,0.816-0.387,1.418l-0.129,0.387c-0.517,0.988-0.772,1.74-0.772,2.256
		c0,0.172-0.043,0.709-0.13,1.611h0.13c0.084,0,0.258-0.107,0.516-0.322c0.258-0.215,0.601-0.462,1.031-0.741
		c0.429-0.279,0.772-0.806,1.03-1.579c0.259-0.773,0.677-1.321,1.257-1.644c0.58-0.323,0.957-0.655,1.129-0.999l3.866-5.157
		c0.259-0.343,0.612-0.741,1.063-1.192c0.451-0.451,0.677-0.806,0.677-1.063l0.517-0.902c0.258-0.258,0.697-0.729,1.32-1.418
		c0.623-0.687,1.105-1.16,1.451-1.418c0.343-0.258,0.537-0.665,0.58-1.225c0.042-0.558,0.279-1.138,0.709-1.74l0.258-0.516
		c0.473-0.558,0.859-0.967,1.16-1.225c0.3-0.258,0.472-0.536,0.516-0.838c0.042-0.3,0.537-0.858,1.482-1.676
		c0.085-0.645,0.59-1.686,1.515-3.126c0.923-1.439,1.622-2.739,2.095-3.899c0.473-1.16,0.936-1.966,1.387-2.417
		c0.451-0.451,0.74-1.257,0.869-2.417l0.646-1.031l1.999-5.543l-0.322-1.354L274.463,12.467z"/>
	<path fill="#F6A6A8" d="M275.145,63.063l0.906,0.387c0.088-0.73,0.496-1.354,1.23-1.869h0.518c0.432,0,0.992-0.58,1.684-1.74
		l1.102-0.645c0.172,0.086,0.432,0.129,0.777,0.129c0.258,0,0.505-0.172,0.742-0.516c0.237-0.344,0.832-1.01,1.781-1.998h0.26
		c0.258,0,0.571-0.193,0.938-0.58c0.367-0.387,0.854-0.58,1.457-0.58l2.201-0.58c0.688-0.172,1.074-0.258,1.16-0.258
		c0.388-0.129,1.332,0.655,2.836,2.353c1.505,1.697,2.257,3.342,2.257,4.931c0,0.902-0.474,1.44-1.418,1.611l-0.322,0.258v1.289
		l-1.096,2.385c-0.302,0.645-0.667,1.054-1.097,1.225c-0.387,0.688-0.666,1.16-0.838,1.418l-0.902,0.129l-0.387,0.387v1.611
		c-0.387,0.516-0.944,1.645-1.676,3.384c-0.73,1.74-1.096,2.849-1.096,3.319c0,0.816,0.171,1.225,0.516,1.225
		c0.258,0,0.516-0.105,0.773-0.322c0.258-0.214,0.611-0.461,1.062-0.74c0.451-0.278,0.783-0.568,0.998-0.87
		c0.215-0.3,0.666-0.568,1.354-0.806c0.687-0.235,1.33-0.678,1.933-1.322c0.603-0.644,1.03-1.072,1.288-1.288
		c0.258-0.214,0.537-0.505,0.838-0.87c0.301-0.364,0.493-0.549,0.579-0.549c0.259,0,0.666-0.084,1.226-0.258
		c0.084-0.472,0.17-0.814,0.256-1.03l1.547-0.773l3.736-3.352l0.515-0.645c0.687-0.171,1.116-0.3,1.288-0.387
		c0.344-1.16,0.924-1.998,1.738-2.514c0-0.171,0.215-0.3,0.646-0.387c0.343-0.687,0.782-1.234,1.319-1.644
		c0.537-0.408,0.977-0.912,1.32-1.515l1.481-1.225c0.429-0.171,0.729-0.429,0.901-0.773c2.231-1.977,3.616-3.104,4.153-3.384
		c0.537-0.28,1.407-0.419,2.609-0.419c1.2,0,2.179,0.462,2.93,1.386c0.751,0.924,1.567,1.622,2.449,2.095
		c0.881,0.473,1.321,1.376,1.321,2.707c0,1.247-0.967,3.632-2.9,7.154c-1.247,3.696-1.893,5.962-1.934,6.8
		c-0.043,0.838-0.236,1.32-0.58,1.449c-0.346,0.129-0.516,0.28-0.516,0.451v0.258c0,1.031,0.17,1.547,0.516,1.547
		c0.258,0,0.611-0.213,1.062-0.645c0.451-0.429,1.362-0.902,2.735-1.418l0.577,0.129c1.242-1.89,2.076-2.91,2.506-3.062
		c0.428-0.149,0.855-0.536,1.283-1.16c0.429-0.622,0.953-0.956,1.574-0.999c0.62-0.042,1.018-0.15,1.188-0.322
		c0.043-1.031,0.888-2.191,2.536-3.479c1.648-1.289,2.602-1.934,2.859-1.934c0.428,0,0.771,0.322,1.026,0.967
		s0.524,1.086,0.804,1.321c0.276,0.236,0.418,0.441,0.418,0.612v1.16c0,0.559-0.279,0.925-0.836,1.096
		c-0.43,0.946-0.816,1.505-1.158,1.676l-1.158-0.129c-0.215,0.258-0.396,0.495-0.547,0.709c-0.15,0.217-0.248,0.303-0.289,0.258
		c-0.344,0.088-0.955,0.656-1.834,1.709s-1.661,1.924-2.348,2.609l-0.257,0.387c-0.344,0.258-0.664,0.432-0.965,0.516l-1.158,0.968
		c-0.429-0.258-0.687-0.388-0.771-0.388c-0.086,0-0.27,0.174-0.547,0.517c-0.278,0.345-0.838,0.785-1.674,1.321
		c-0.836,0.537-1.468,1.15-1.896,1.837l-1.029,1.03l-1.35,0.193c-0.13,0-0.345,0.193-0.644,0.581l-1.158,1.481
		c-0.559,0.73-1.438,1.097-2.638,1.097c-0.258,0-0.591-0.226-0.997-0.677s-0.793-0.838-1.156-1.16
		c-0.365-0.322-1.182-1.29-2.447-2.901c-1.268-1.61-1.899-2.459-1.899-2.546l0.388-2.256l-0.129-1.547
		c0-0.301,0.203-0.762,0.611-1.387c0.408-0.621,0.612-0.954,0.612-0.998l-0.13-2.514c0.087-0.087,0.172-0.216,0.259-0.388
		l0.901-1.481c-0.086-0.43-0.129-0.902-0.129-1.418l0.258-2.127c-0.772,0.345-1.45,1.042-2.03,2.095
		c-0.58,1.054-1.345,1.58-2.288,1.58c-0.818,1.461-1.441,2.17-1.87,2.127c-0.173,0.173-0.302,0.345-0.387,0.516l-0.902,0.516
		l-1.096-0.129l-0.388,1.611c-0.946,0.516-1.56,0.979-1.838,1.386c-0.279,0.409-0.721,0.828-1.322,1.257l-1.096,1.031h-1.031
		c-0.172,1.16-0.84,2.127-2,2.9l-0.516,0.645l-1.16-0.129c-0.43,1.376-0.968,2.214-1.611,2.514c-0.731,0-1.73,0.668-2.998,2
		s-2.159,1.998-2.676,1.998c-3.739,0-6.77-2.343-9.09-7.026c-0.086-0.171-0.289-0.493-0.611-0.968
		c-0.322-0.472-0.483-1.201-0.483-2.19c0-1.676,0.226-2.813,0.677-3.416c0.451-0.601,1.031-1.729,1.74-3.384
		c0.709-1.653,1.234-2.374,1.579-2.159c0.085-0.171,0.129-0.429,0.129-0.773c0.687-0.815,1.031-1.439,1.031-1.869
		c0-0.171-0.087-0.258-0.258-0.258c-0.087,0-0.345,0.129-0.773,0.387l-0.905,0.387c-0.39,0.087-0.67,0.258-0.844,0.516
		c-0.173,0.258-0.475,0.506-0.906,0.741c-0.433,0.236-0.777,0.441-1.035,0.612h-0.194c-0.261-0.258-0.433-0.387-0.519-0.387
		c-0.261,0.688-0.477,1.118-0.647,1.29l-0.776,0.129c-0.951,0.988-1.557,1.481-1.814,1.481c-0.174,0-0.562-0.149-1.167-0.451
		c-0.604-0.3-0.906-0.602-0.906-0.901l0.453-2.515v-1.16c0-0.086,0.172-0.258,0.519-0.516c0.086,0,0.432-0.461,1.036-1.386
		C273.611,63.525,274.324,63.063,275.145,63.063z"/>
	<path fill="#F6A6A8" d="M333.493,73.893v-0.453c0-0.601,0.042-1.072,0.129-1.418c-0.258-0.687-0.388-1.311-0.388-1.869
		c0-0.086,0.215-0.687,0.646-1.804l0.58-1.998c0.3-0.773,0.474-1.182,0.517-1.225c-0.259-0.687-0.388-1.073-0.388-1.16
		c0-0.988,0.279-1.805,0.837-2.449c0.559-0.644,1.031-1.547,1.418-2.707l1.288-3.932l2.125-5.156
		c0.042-0.129,0.247-0.473,0.611-1.031s0.666-1.042,0.901-1.451c0.235-0.407,0.569-0.999,1-1.772l0.645-0.129
		c0.171-0.171,0.258-0.343,0.258-0.516c0-0.085-0.087-0.429-0.258-1.031l2.256-3.738l1.354-2.771
		c0.43-0.729,0.902-1.202,1.418-1.418c0.859-1.589,1.611-2.556,2.257-2.9c0.258-0.815,0.729-1.697,1.418-2.643l1.225-0.129
		c0.216-0.602,0.431-1.053,0.646-1.354l0.129-1.289c0,0.258,0.107,0.184,0.322-0.226c0.215-0.408,0.537-1.17,0.967-2.288l1.74-1.998
		l0.516-0.902c0.215-0.301,0.559-0.881,1.031-1.74c0.645-0.258,1.182-0.73,1.61-1.418l1.354-1.096
		c-0.086-0.473,0.43-1.525,1.547-3.158c0.73-0.301,1.396-0.688,1.999-1.16l0.901-0.258c0-1.504,0.537-2.535,1.611-3.095l0.773-0.516
		c0.687-0.343,1.072-0.516,1.16-0.516l0.451-0.129c0.516-0.171,1.115-0.258,1.805-0.258c1.589,0,3.029,0.592,4.318,1.773
		c1.288,1.181,1.934,2.524,1.934,4.028c0,0.602-0.322,1.225-0.967,1.869l-0.258,0.516c-0.604,2.363-1.031,3.545-1.289,3.545
		c-0.174,0-0.41,0.129-0.709,0.387c-0.088,1.418-0.174,2.214-0.259,2.385c-0.772,0.129-1.159,1.096-1.159,2.9
		c-0.088,0.258-0.398,0.699-0.936,1.321c-0.538,0.623-0.957,1.482-1.258,2.578c-0.301,1.096-0.623,1.644-0.967,1.644h-0.709
		l0.193,0.967c0,0.603-0.29,1.192-0.87,1.772c-0.579,0.58-0.935,1.192-1.063,1.837c-0.127,0.645-0.645,1.418-1.547,2.32
		l-0.645,1.031c-0.258,0.431-0.604,0.882-1.031,1.354c-0.431,0.474-0.796,1.204-1.097,2.191l-1.676,3.094
		c-1.16,2.106-2.041,3.116-2.644,3.03c-0.387,1.676-0.645,2.643-0.772,2.9c-0.128,0.257-0.431,0.494-0.902,0.709
		c-0.472,0.215-0.838,0.591-1.096,1.128c-0.259,0.537-0.537,0.935-0.839,1.192l-1.159,2.385c-0.688,0.301-1.183,0.859-1.481,1.676
		c-0.688,0.172-1.119,0.752-1.289,1.74c-0.173,0.172-0.388,0.559-0.646,1.16l-2.256,2.256c-1.16,0.816-1.783,1.751-1.869,2.804
		c-0.087,1.054-0.646,1.579-1.677,1.579c-0.73,0-1.805-0.322-3.223-0.967h-0.129c-0.129,0.603-0.43,1.268-0.902,1.998l0.259,1.74
		c0,0.217-0.345,1.569-1.031,4.061c0.345,0.646,0.517,1.097,0.517,1.354l-0.129,1.418l0.321,1.74
		c0.215,1.418,0.729,2.127,1.547,2.127l1.546,0.258c0.086,0,0.622-0.321,1.61-0.967l2.383-1.289c0.086,0,0.129,0.044,0.129,0.129
		c0.429,0.173,0.772,0.259,1.03,0.259c0.429,0,0.645-0.344,0.645-1.031v-0.838c0.258-0.43,0.569-0.688,0.935-0.773
		c0.364-0.085,0.698-0.278,0.999-0.58c0.3-0.3,0.537-0.451,0.707-0.451h0.646c0.644,0,0.966-0.751,0.966-2.256
		c0.172-0.085,0.387-0.258,0.646-0.516h0.772c0.344,0,0.719-0.42,1.127-1.258c0.407-0.838,0.697-1.343,0.869-1.515
		c0.772-0.086,1.311-0.215,1.61-0.387c1.374-2.491,2.426-3.738,3.155-3.738h0.388c0.729-0.687,1.127-1.299,1.19-1.837
		c0.064-0.537,0.279-0.892,0.645-1.063c0.364-0.171,0.698-0.387,0.999-0.645c0.3-0.258,0.493-0.387,0.58-0.387
		c0.644,0,0.966,0.236,0.966,0.709l-0.193,1.805l0.451,1.934c0,0.172-0.184,0.506-0.548,0.999c-0.364,0.494-0.547,1.042-0.547,1.644
		c0,1.247-0.216,1.913-0.646,1.998c-0.429,0.087-0.782,0.377-1.062,0.87c-0.28,0.495-0.741,0.946-1.386,1.354
		c-0.645,0.409-1.139,0.999-1.48,1.772l-1.096,0.258l-0.645,0.387c-0.516,1.333-1.062,2.149-1.644,2.449
		c-0.58,0.303-1.299,1.204-2.157,2.707c-0.129,0-0.193,0.044-0.193,0.129l-1.029-0.129c-0.387,0.688-0.773,1.096-1.16,1.225
		s-0.708,0.377-0.966,0.741c-0.259,0.366-0.72,0.677-1.386,0.937c-0.666,0.258-1.084,0.559-1.256,0.902s-0.43,0.536-0.772,0.579
		s-0.666,0.204-0.966,0.483c-0.301,0.279-0.559,0.419-0.772,0.419c-0.087,0-0.387-0.043-0.901-0.129h-0.258
		c-0.73,0.516-1.332,0.772-1.804,0.772c-0.56,0-0.967,0.086-1.224,0.258c-0.258-0.172-0.655-0.301-1.192-0.387
		s-1.149-0.301-1.836-0.645c-0.729,0.172-1.183,0.258-1.353,0.258c-0.73,0-1.653-0.721-2.771-2.159
		c-1.116-1.438-1.675-2.847-1.675-4.223c0-0.042-0.248-0.375-0.741-0.999c-0.495-0.622-0.741-1.299-0.741-2.03v-0.646l0.129-0.772
		v-1.226l0.129-0.387c0.646-0.084,0.968-0.17,0.968-0.258L333.493,73.893z M346.572,56.812l1.354-0.773
		c0.172-0.688,0.73-1.515,1.676-2.481c0.944-0.967,1.611-1.45,1.998-1.45h0.517c0-0.301,0.063-0.602,0.192-0.902
		s0.193-0.709,0.193-1.225c0-0.258,0.58-0.967,1.74-2.127l0.516-1.161c0.387-1.116,1.354-2.04,2.9-2.771
		c0.602-1.245,1.053-1.869,1.354-1.869l0.516-0.129c0.172-0.645,0.517-1.225,1.031-1.74l0.258-0.387v-1.031
		c0-0.085,0.291-0.439,0.871-1.063c0.58-0.622,0.998-1.202,1.256-1.74c0.259-0.536,0.612-0.955,1.063-1.257
		c0.452-0.3,0.763-0.838,0.937-1.611l1.031-0.129c0-0.558,0.041-0.924,0.129-1.096l0.129-0.645c0.213-0.516,0.967-1.869,2.256-4.061
		l1.031-2.385c0-0.258,0.182-0.569,0.547-0.935c0.365-0.364,0.549-0.892,0.549-1.579l0.516-2.127c0-0.988-0.173-1.482-0.516-1.482
		c-0.432,0.301-0.828,0.516-1.192,0.645c-0.366,0.129-0.721,0.902-1.063,2.32c-1.289,0.301-2.029,0.913-2.224,1.837
		c-0.192,0.925-0.721,1.708-1.579,2.353l-0.451,0.773c-0.086,0.474-0.494,0.967-1.226,1.482s-1.418,1.396-2.062,2.643
		c-2.148,2.965-3.33,4.556-3.545,4.77l-0.646,0.773l-0.967-0.129c0.172,0.688,0.258,1.075,0.258,1.16
		c0,0.258-0.129,0.506-0.388,0.741c-0.258,0.237-0.45,0.527-0.579,0.87c-0.13,0.345-0.388,0.741-0.773,1.192
		s-0.741,1.183-1.063,2.191c-0.321,1.011-0.611,1.602-0.869,1.772l-0.902-0.129c-0.559,0.345-0.838,0.688-0.838,1.031l0.193,0.902
		c0,0.173-0.119,0.377-0.354,0.612c-0.235,0.237-0.462,0.699-0.677,1.387c-0.216,0.688-0.752,1.729-1.611,3.126
		c-0.859,1.396-1.537,2.879-2.029,4.447c-0.494,1.568-0.979,2.567-1.45,2.997c0.086,0.086,0.215,0.129,0.387,0.129
		C345.52,58.552,346.057,57.972,346.572,56.812z"/>
	<path fill="#F6A6A8" d="M404.304,72.538l1.028-0.902c0.643,0,1.027-0.29,1.156-0.87s0.589-1.041,1.382-1.386
		c0.793-0.344,1.532-1.041,2.218-2.095c0.686-1.053,1.393-1.579,2.12-1.579c0.257,0,0.557,0.216,0.899,0.645
		c0.342,0.43,0.515,0.773,0.515,1.031c0,1.418-0.431,2.879-1.289,4.384l-0.257,1.805l-0.451,0.838
		c-0.645,0.345-1.062,0.709-1.257,1.096s-0.698,0.86-1.515,1.418l-0.646,0.902c-0.945,0.302-1.579,0.796-1.901,1.482
		c-0.321,0.688-0.771,1.074-1.353,1.159c-0.58,0.087-1.213,0.517-1.9,1.289c-0.43,0.216-0.944,0.409-1.547,0.58l-0.129,0.646
		c-0.43,0.431-1.105,0.772-2.03,1.03c-0.923,0.259-1.609,0.507-2.062,0.741c-0.451,0.237-0.762,0.355-0.935,0.355
		c-0.815,0-1.567-0.162-2.256-0.484c-0.687-0.322-1.396-0.525-2.125-0.612c-0.259-0.258-0.408-0.536-0.451-0.838
		c-0.043-0.3-0.258-0.696-0.646-1.192c-0.388-0.492-0.579-1.17-0.579-2.029l0.258-1.225c0-0.172-0.107-0.388-0.322-0.646
		s-0.321-0.472-0.321-0.646c0-0.17,0.042-0.3,0.129-0.387c0.086-0.085,0.129-0.214,0.129-0.387c0-0.214-0.043-0.451-0.129-0.709
		c-0.087-0.258-0.129-0.473-0.129-0.645l0.387-3.158c0-0.258-0.087-0.387-0.258-0.387c-0.172,0-0.483,0.215-0.935,0.645
		c-0.451,0.431-0.979,0.645-1.58,0.645c-0.344,0.258-0.623,0.797-0.838,1.611c-0.346,0.431-0.773,0.816-1.289,1.16l-0.258,0.387
		c-0.088,0.303-0.41,0.548-0.968,0.741c-0.56,0.192-0.944,0.44-1.159,0.741l-0.646,0.645l-1.226-0.129
		c-0.086,0.087-0.322,0.463-0.709,1.128c-0.388,0.667-0.883,1.215-1.482,1.644l-4.899,3.996c-0.516,0.346-1.269,0.774-2.256,1.291
		l-0.387,0.387c-3.438,2.277-5.867,3.416-7.285,3.416c-1.161,0-2.515-0.322-4.062-0.967c-1.547-0.646-2.386-1.418-2.515-2.32
		l-0.646-2.645c-0.387-0.601-0.579-1.438-0.579-2.514c0-0.516,0.042-0.857,0.129-1.031v-0.387l-0.129-2.127
		c0-0.516,0.407-0.773,1.225-0.773l-0.129-1.74c0-0.17,0.376-0.848,1.128-2.029s1.258-1.857,1.516-2.03l0.645-0.838
		c-0.043-0.517,0.258-1.063,0.902-1.644c0.646-0.58,1.162-1.17,1.55-1.772c0.387-0.602,1.118-1.267,2.194-1.998l1.937-1.934
		c1.505-1.504,3.14-2.707,4.903-3.609c0.259-0.086,0.785-0.516,1.58-1.289c0.797-0.773,1.701-1.343,2.711-1.708
		c1.013-0.365,2-0.827,2.969-1.386c0.968-0.559,1.732-0.838,2.293-0.838h0.516c0.172,0,1.312-0.537,3.42-1.611h0.389
		c0.171,0,0.58,0.172,1.226,0.516h0.129l1.033-0.516c0.171-0.086,0.388-0.129,0.646-0.129c2.666,0,4.129,1.848,4.389,5.543
		c0.086,0.773,0.302,1.16,0.646,1.16c0.43,0,1.043-0.784,1.838-2.353c0.796-1.568,2.483-2.353,5.062-2.353
		c1.847,0,2.771,1.182,2.771,3.545c0,2.794-1.247,5.437-3.737,7.928c-0.173,0.345-0.303,0.731-0.388,1.16l-0.901,2.643v0.129
		c0,0.259-0.185,0.613-0.548,1.063c-0.366,0.451-0.549,0.849-0.549,1.192l0.13,1.611l-0.259,1.805c0,0.816,0.149,1.354,0.45,1.611
		c1.37-0.344,2.366-0.912,2.987-1.709c0.622-0.793,1.061-1.233,1.316-1.32l0.644-0.258C403.34,73.505,403.79,72.969,404.304,72.538z
		 M382.9,72.538c0.173-0.944,0.699-1.665,1.58-2.159c0.881-0.493,1.406-0.999,1.58-1.515c0.814-0.602,1.985-1.676,3.513-3.223
		c1.524-1.547,2.288-2.491,2.288-2.836c0-0.129-0.086-0.193-0.258-0.193h-0.129l-0.516,0.322l-1.16-0.129l-1.226,0.129l-0.902-0.451
		l-0.838,0.129l-1.289-0.258c-0.688,0-1.278,0.14-1.772,0.419c-0.494,0.28-1.439,0.591-2.838,0.935
		c-1.396,0.345-2.652,0.935-3.771,1.772c-1.117,0.838-1.935,1.257-2.449,1.257c-0.301,0.645-1.312,1.569-3.028,2.771
		c-1.033,0.346-1.699,1.096-2,2.256c-1.117,0.902-1.676,1.418-1.676,1.547l-0.451,1.097c-0.345,0.302-0.772,0.548-1.289,0.741
		c-0.516,0.192-0.815,0.645-0.901,1.354c-0.087,0.709-0.377,1.354-0.87,1.934c-0.494,0.58-0.741,1.043-0.741,1.387
		c0,2.105,0.408,3.158,1.226,3.158c0.344,0,1.062-0.227,2.158-0.678s1.729-0.762,1.901-0.935c0.171-0.171,0.517-0.343,1.031-0.517
		l1.226-0.645c0.172-0.171,0.364-0.277,0.58-0.322c0.215-0.042,0.43-0.182,0.645-0.419c0.215-0.235,0.603-0.493,1.16-0.772
		c0.56-0.278,0.988-0.654,1.289-1.129c0.73-0.429,1.913-1.096,3.547-1.998l1.354-1.03c0.945-0.429,1.525-0.794,1.74-1.097
		C381.826,73.141,382.256,72.84,382.9,72.538z"/>
	<path fill="#F6A6A8" d="M424.062,57.907l0.968-0.258l0.387-0.838c2.105-1.246,3.609-2.428,4.514-3.545
		c0.085-0.172,0.278-0.344,0.58-0.516c0.3-0.172,0.622-0.473,0.967-0.902c1.59-1.59,3.48-2.385,5.673-2.385
		c2.577,0,3.952,1.568,4.125,4.705l0.387,0.967c0.344,0.602,0.827,1.826,1.45,3.674c0.622,1.848,0.935,2.987,0.935,3.416
		c0,1.16-0.365,2.32-1.096,3.48c-0.604,0.301-2.042,1.912-4.318,4.834l-0.645,0.451c-0.346,0.773-0.796,1.547-1.354,2.32
		c-0.859,0.301-1.289,0.623-1.289,0.967v1.16c0,0.086-0.097,0.258-0.29,0.516c-0.192,0.258-0.463,0.753-0.806,1.482l-0.516,0.772
		c-0.174,0.173-0.346,0.526-0.517,1.063c-0.173,0.537-0.419,1.021-0.741,1.449c-0.321,0.432-0.482,0.773-0.482,1.031
		c0,0.645,0.838,0.967,2.514,0.967c0.085,0,0.407-0.129,0.967-0.387l0.902,0.258c0.085,0,0.3-0.139,0.646-0.419
		c0.343-0.278,0.869-0.504,1.578-0.677c0.709-0.171,1.331-0.43,1.869-0.773c0.537-0.343,1.183-0.645,1.934-0.902
		c0.751-0.256,1.472-0.676,2.158-1.256c0.688-0.58,1.363-1,2.03-1.258c0.666-0.258,1.289-0.654,1.869-1.191
		c0.58-0.536,1.234-1.041,1.966-1.516c0.73-0.472,1.892-1.502,3.48-3.094c1.029-0.814,1.739-1.268,2.126-1.354
		c0.086,0,0.462-0.569,1.128-1.708c0.666-1.138,1.429-1.708,2.288-1.708c0.901,0,1.354,0.43,1.354,1.289
		c0,0.474-0.215,0.925-0.645,1.354v0.387l0.129,1.031c0.086,0.129,0.129,0.322,0.129,0.58c0,0.172-0.161,0.43-0.483,0.773
		c-0.321,0.345-0.548,0.785-0.677,1.32c-0.129,0.538-0.536,0.893-1.224,1.063c-0.258,0.946-0.591,1.481-0.999,1.61
		s-0.979,0.561-1.708,1.289c-0.731,0.731-1.764,1.592-3.094,2.578c-1.331,0.989-2.245,1.752-2.738,2.288
		c-0.494,0.538-0.828,0.806-0.999,0.806c-0.087,0-0.258-0.084-0.517-0.258c-0.258-0.171-0.43-0.258-0.516-0.258
		c-0.258,0-0.429,0.303-0.515,0.902l-0.258,0.645c-0.56,0.346-0.882,0.516-0.968,0.516l-0.387-0.129h-0.258
		c-0.516,0-0.773,0.193-0.773,0.582l0.388,0.645v0.129c0,0.602-0.346,0.902-1.031,0.902c-0.475,0-1.849,0.795-4.124,2.385
		l-1.869,0.387l-1.546,0.838c-0.516-0.301-0.838-0.451-0.967-0.451l-1.031,0.322l-1.869,0.129c-0.044,0-0.828-0.43-2.353-1.289
		c-1.525-0.858-2.438-1.719-2.738-2.578c-0.302-0.858-0.688-1.729-1.16-2.61c-0.474-0.88-0.709-1.492-0.709-1.837
		c0-2.062,0.171-3.533,0.516-4.415c0.344-0.88,0.559-1.535,0.646-1.966c0.085-0.43,0.332-0.892,0.741-1.387
		c0.406-0.492,0.74-1.299,0.999-2.416c1.245-2.492,2.104-4.019,2.578-4.577c0.472-0.558,0.838-1.246,1.096-2.062l0.838-1.16
		c0.085-0.086,0.214-0.419,0.387-0.999c0.171-0.58,0.388-0.912,0.646-0.999c0.343-0.602,0.516-0.988,0.516-1.16
		c0-1.246-0.56-1.869-1.676-1.869c-0.216,0-0.451,0.226-0.709,0.677c-0.258,0.451-0.851,0.893-1.772,1.321
		c-0.925,0.43-1.494,0.752-1.708,0.967c-0.216,0.216-0.678,0.483-1.387,0.806c-0.709,0.323-1.321,0.828-1.837,1.515l-1.097,0.516
		c-0.345,0.816-0.646,1.268-0.903,1.354c-0.258,0.087-1.053,0.301-2.385,0.645c-0.086,0.043-0.302,0.301-0.646,0.773
		c-0.344,0.474-0.838,0.709-1.481,0.709c-0.517,0.516-1.032,1.118-1.549,1.804c-0.172,0-0.622,0.173-1.354,0.517l-1.29,0.322
		c-0.345,0.258-0.72,0.667-1.128,1.225c-0.409,0.56-1.171,0.838-2.289,0.838c-0.645,0-0.967-0.516-0.967-1.547
		c0-2.104,0.741-3.78,2.224-5.027c1.482-1.246,2.567-1.911,3.255-1.998c0.688-0.086,1.118-0.344,1.29-0.773
		c0.171-0.429,0.59-0.783,1.257-1.063c0.666-0.279,1.439-0.902,2.32-1.869c0.881-0.967,1.837-1.622,2.868-1.966L424.062,57.907z"/>
</g>
</svg>
