<?xml version="1.0" encoding="utf-8"?>
<!-- Generator: Adobe Illustrator 16.2.1, SVG Export Plug-In . SVG Version: 6.00 Build 0)  -->
<!DOCTYPE svg PUBLIC "-//W3C//DTD SVG 1.1//EN" "http://www.w3.org/Graphics/SVG/1.1/DTD/svg11.dtd">
<svg version="1.1" id="Layer_1" xmlns="http://www.w3.org/2000/svg" xmlns:xlink="http://www.w3.org/1999/xlink" x="0px" y="0px"
	 width="500px" height="500px" viewBox="0 0 500 500" enable-background="new 0 0 500 500" xml:space="preserve">
<g>
	<path fill="#EE224F" d="M222.774,193.366c0.022,0.255-0.454,1.278-3.472,3.054l-4.258,4.965c-1.907,1.429-3.058,3.137-4.859,4.305
		l-1.134,0.794l-1.101,0.474c-1.317,2.393-4.369,6.012-9.156,10.856l-8.94,8.939c-1.633,1.66-2.488,3.159-2.563,4.493
		c-0.074,1.336-0.782,3.078-2.121,5.22c-1.341,2.142-1.969,3.656-1.894,4.53c0.776,9.058-0.485,14.362-3.781,15.911
		c-0.486,0.294-0.64,1.449-0.468,3.46c0.528,6.164-0.134,10.274-1.989,12.334c-0.5,1.562-1.603,4.255-3.307,8.076l-0.345,0.408
		l0.732,4.118c0.14,1.635-0.332,3.512-1.422,5.634c-1.087,2.12-1.572,3.872-1.454,5.255l-1.417,7.913
		c-0.353,1.808-0.963,3.218-1.823,4.247c-0.865,1.024-2.428,6.129-4.682,15.318c-2.078,3.852-3.21,6.166-3.397,6.946
		c-0.187,0.775-1.288,1.249-3.298,1.422l-2.231,0.571c0.167,0.492,0.585,1.28,1.248,2.363c0.661,1.086,1.021,1.941,1.075,2.569
		c0.248,2.89-0.171,5.396-1.258,7.521c-1.086,2.12-1.69,3.945-1.81,5.476l-0.907,2.738c-0.221,0.397-0.406,1.175-0.561,2.329
		c-0.157,1.152-0.851,2.67-2.081,4.546l-0.923,2.55c-0.373,1.556-1.506,3.17-3.384,4.853c-0.59,3.474-2.192,8.079-4.801,13.811
		c-2.618,5.736-5.096,9.653-7.453,11.756l-1.726,2.053c-0.23,0.27-0.597,0.43-1.1,0.474l-1.32,0.112l-2.327-0.561
		c-0.755,0.064-1.221,1.272-1.399,3.637c-0.179,2.354-1.211,3.616-3.097,3.778c-1.007,0.086-1.783-0.104-2.327-0.561
		c-2.98,3.676-5.246,5.703-6.793,6.093c-1.553,0.388-2.694,0.734-3.424,1.054c-0.732,0.314-1.226,0.484-1.479,0.507
		c-1.131,0.097-2.782-1.442-4.956-4.611c-2.174-3.174-3.774-4.843-4.799-5.007l-2.599-1.485c-0.255,0.022-1.67-2.078-4.246-6.288
		c-2.578-4.215-4.019-8.082-4.32-11.604l-1.794-7.641l0.496-3.086c-0.938-2.069-1.419-3.235-1.441-3.487
		c-0.259-3.019,0.309-5.63,1.706-7.84c1.394-2.209,2.082-3.44,2.061-3.691c-0.033-0.382-0.774-1.585-2.212-3.612l-0.081-0.944
		c-0.086-1.006,0.861-4.695,2.851-11.076l0.809-3.87l0.724-0.441l1.51-0.13c0.249-0.021,0.527-0.838,0.834-2.447
		c0.305-1.615,0.93-2.773,1.886-3.489c0.95-0.716,1.408-1.326,1.365-1.827l-0.064-0.756l-0.966-2.388
		c-0.043-0.504,0.509-1.44,1.662-2.804c1.148-1.363,2.103-3.19,2.856-5.468c0.755-2.281,1.55-3.715,2.39-4.29
		c0.836-0.579,1.279-2.077,1.326-4.485c1.884-4.599,4.528-7.039,7.922-7.33l1.037-1.229l-0.949-2.195
		c-0.151-1.766,2.517-5.347,8.009-10.76l1.455-2.979c0.625-1.577,1.439-2.399,2.446-2.485l5.571,0.661l0.723-0.442l-1.805-5.546
		c0.346-0.412,0.758-0.762,1.24-1.056c0.323-0.662,0.679-2.057,1.065-4.181c0.388-2.123,0.961-3.215,1.715-3.279
		c0.249-0.021,1.763,0.608,4.531,1.893l1.383-1.644c-0.043-0.503-0.355-1.142-0.926-1.916c-0.574-0.773-0.883-1.415-0.926-1.919
		c-0.258-3.014,2.266-5.324,7.578-6.92c0.898-1.344,1.52-2.946,1.866-4.818c0.345-1.861,1.375-3.156,3.089-3.876
		c1.711-0.716,3.771-2.569,6.175-5.565c2.402-2.99,3.564-4.991,3.478-6.002c-0.215-2.51,0.644-5.813,2.572-9.909
		c2.165-1.33,3.232-2.181,3.2-2.555c-0.032-0.374-0.605-1.149-1.72-2.324c-0.25,0.021-0.398-0.216-0.441-0.722
		c-0.194-2.261,0.755-3.739,2.851-4.425l0.345-0.41l-1.224-5.406c2.098-3.601,3.346-8.268,3.742-14.005l-0.194-2.263
		c-0.065-0.755,0.361-1.677,1.284-2.77c0.921-1.094,1.811-3.261,2.676-6.501l-0.717-3.931c-0.043-0.502,0.684-2.338,2.19-5.51
		l0.199-2.109c-1.802,1.17-3.178,2.871-4.124,5.104l-1.914,2.066c-1.349,2.019-2.231,3.55-2.647,4.596
		c-0.416,1.054-1.064,1.993-1.941,2.828c-0.878,0.832-1.526,1.81-1.936,2.923c-0.411,1.109-0.967,2.014-1.669,2.706
		c-0.7,0.698-1.123,1.683-1.268,2.961l-0.97,1.984c-1.957,0.806-3.071,1.85-3.341,3.137l-3.452,8.466
		c-3.307,1.301-4.791,3.9-4.457,7.795l0.129,1.512c-0.24,0.146-1.103,0.443-2.581,0.886c-1.483,0.441-2.166,1.297-2.058,2.551
		c0.064,0.754-0.397,2-1.387,3.729c-1.531-0.117-3.861,2.935-7,9.152l-1.662,2.804c-1.024,1.358-2.569,2.498-4.64,3.438
		c-1.199,2.258-2.345,3.657-3.439,4.189c-1.096,0.54-1.601,1.249-1.525,2.129l0.684,3.552c0.086,1.009-1.431,1.773-4.548,2.29
		c-1.169,1.119-1.76,3.097-1.766,5.951c-0.009,2.854-1.272,4.387-3.783,4.602c-0.88,0.076-2.123,1.069-3.731,2.979
		c-1.236,0.358-2.333,1.244-3.285,2.657c-0.953,1.412-1.678,2.203-2.17,2.371s-1.094,0.534-1.805,1.105l-2.701-0.532
		c-1.063,2.372-1.908,3.584-2.533,3.639l-4.933,0.042l-2.762,0.997c-2.766,0.237-6.726-1.262-11.874-4.495
		c-5.15-3.229-8.797-6.277-10.937-9.133c-2.146-2.857-3.96-4.822-5.445-5.901c-1.486-1.073-2.349-2.3-2.591-3.674
		c-0.244-1.369-1.133-2.878-2.667-4.522c-1.539-1.638-2.667-4.52-3.4-8.638l-0.998-2.769l-0.129-1.508l0.351-4.781l-0.668-3.364
		l2.108-13.103l-0.733-4.117c-0.043-0.5,0.469-1.875,1.548-4.125l0.431-3.838c-0.107-1.255,0.249-2.997,1.074-5.222l0.399-4.216
		c-0.14-1.632,0.392-3.197,1.594-4.698c1.202-1.497,2.305-2.288,3.311-2.374c0.756-0.064,1.35-0.496,1.791-1.294
		c-1.597-0.878-2.429-1.756-2.504-2.637c-0.129-1.511,0.135-2.864,0.793-4.061c0.658-1.198,0.997-3.125,1.024-5.79l8.631-21.268
		c0.604-1.824,1.073-3.704,1.419-5.631c0.337-1.931,1.014-3.664,2.024-5.209c1.008-1.54,1.784-2.814,2.333-3.813
		c0.544-0.997,0.975-1.95,1.276-2.867c0.302-0.909,0.641-2.11,1.02-3.601c0.378-1.486,1.616-3.334,3.708-5.543l0.889-2.928
		c0.604-1.824,2.226-4.307,4.873-7.449l0.809-3.87c0.144-1.278,1.099-3.04,2.875-5.283c1.771-2.242,2.746-3.814,2.921-4.717
		c1.242-6.187,2.63-10.327,4.161-12.425c1.531-2.095,2.809-4.517,3.843-7.268l2.07-2.457l3.584-0.308
		c0.249-0.021,0.357-0.283,0.314-0.787c-0.022-0.252-0.326-0.795-0.901-1.633c-0.579-0.838-0.89-1.506-0.933-2.011
		c-0.291-3.395,0.695-5.19,2.958-5.384c0.502-0.043,0.96,0.107,1.37,0.452c0.409,0.346,0.926,0.489,1.559,0.435
		c0.249-0.021,0.489-0.168,0.723-0.442l-0.129-1.511l-0.965-2.388l-0.032-0.377c-0.064-0.754,0.159-2.579,0.671-5.474
		c0.514-2.896,0.749-4.594,0.706-5.096c-0.054-0.63-0.495-1.668-1.312-3.121c-0.822-1.449-1.736-2.13-2.74-2.044
		c-0.252,0.022-1.231,0.421-2.937,1.203l-0.378,0.032l-2.409-1.504l-0.377,0.033c-0.502,0.043-0.706,0.628-0.609,1.763
		c-1.004,1.606-2.007,2.451-3.015,2.538L95.506,52c-0.254,0.022-1.488,0.762-3.704,2.22c-2.223,1.458-3.583,2.209-4.084,2.252
		l-0.376,0.032l-3.273-0.48c-1.006,0.086-1.625,0.995-1.857,2.723c-0.231,1.731-2.41,2.899-6.539,3.506
		c-0.878,1.597-2.01,2.803-3.398,3.616c-1.386,0.816-6.396,4.825-15.027,12.026l-1.445,0.887c-0.644,2.84-2.129,5.475-4.455,7.887
		c-2.329,2.417-3.366,5.072-3.118,7.964l-0.199,4.591l0.79,2.591c0.043,0.503-1.137,1.839-3.54,4.009
		c-2.402,2.172-3.917,3.281-4.542,3.334c-8.888,0.762-13.551-1.433-13.994-6.594l0.774-4.247l-0.78-4.683
		c-0.172-2.01,1.749-5.403,5.769-10.187c1.211-0.608,2.854-2.082,4.934-4.416c2.074-2.33,5.553-4.53,10.436-6.597
		c0.478-0.293,1.141-1.427,1.982-3.4c2.987-2.031,5.27-3.43,6.849-4.2c1.579-0.769,4.281-2.425,8.114-4.97
		c3.832-2.546,7.717-4.842,11.661-6.891c3.94-2.047,7.407-4.087,10.403-6.116l3.676-1.455l2.636-2.505
		c0.95-0.717,2.107-1.259,3.473-1.631c1.36-0.367,2.7-0.991,4.02-1.865l1.102-0.475l2.263-0.194
		c0.251-0.021,0.786-0.412,1.608-1.183c0.819-0.763,4.315-1.762,10.481-2.989c6.167-1.221,9.376-1.846,9.63-1.868
		c3.269-0.28,6.425,1.447,9.472,5.173c3.041,3.734,4.787,8.177,5.229,13.335c0.312,3.647-0.713,7.568-3.078,11.759
		c-2.369,4.196-4.096,8.047-5.187,11.563c-1.097,3.515-2.197,5.826-3.3,6.935c-1.112,1.113-2.289,3.236-3.541,6.383l-5.385,10.345
		c-0.834,2.101-1.54,4.979-2.111,8.639c-0.573,3.661-2.142,6.044-4.71,7.15c-0.799,3.998-1.897,7.07-3.298,9.213
		c-1.401,2.149-2.218,4.025-2.462,5.627c-0.243,1.608-0.657,3.067-1.241,4.383c-0.585,1.319-1.338,3.983-2.261,7.986
		c-3.305,4.341-5.102,8.107-5.397,11.297c-0.296,3.193-1.898,5.55-4.808,7.064c-0.81,3.87-1.567,6.501-2.27,7.892
		c-0.707,1.389-1.321,3.09-1.843,5.1c-0.527,2.008-1.081,3.291-1.666,3.849l-4.146,15.938l-0.695,5.19
		c-1.443,2.404-2.298,4.633-2.562,6.679c-0.271,2.053-0.764,4.059-1.481,6.019l0.258,3.017c0.076,0.882-0.2,2.107-0.825,3.684
		l-0.843,3.492c0.248,2.893-0.526,4.923-2.329,6.091l0.032,0.377c0.032,0.378,0.606,1.914,1.724,4.604l0.065,0.754l-1.59,5.838
		l0.081,0.943l1.644,3.66l-0.097,5.519c0.172,2.012,1.212,4.549,3.124,7.619c1.909,3.068,3.178,4.574,3.811,4.52
		c0.248-0.021,0.706-0.564,1.374-1.637c2.58-0.982,4.532-2.195,5.863-3.637c1.329-1.444,2.982-2.505,4.95-3.183
		c0.227-0.27,0.518-0.928,0.874-1.975c0.353-1.044,1.188-2.006,2.508-2.875c-0.021-0.25,0.216-0.399,0.721-0.443l2.106,0.201
		l0.376-0.032c0.249-0.021,0.581-0.586,0.996-1.702c0.41-1.109,1.143-2.154,2.2-3.136c1.056-0.976,2.865-3.475,5.438-7.497
		c2.565-4.021,5.292-6.915,8.181-8.682l10.292-15.137l4.373-4.368c0.493-3.08,1.207-5.074,2.143-5.979
		c0.935-0.904,1.892-2.283,2.875-4.143l1.726-2.05l0.625-1.574c2.041-4.23,3.799-7.36,5.273-9.384
		c1.472-2.028,2.29-3.556,2.457-4.581c0.163-1.028,1.209-3.238,3.135-6.636c1.923-3.396,3.988-7.406,6.186-12.026
		c2.2-4.62,3.797-7.767,4.791-9.438c0.995-1.672,1.634-3.433,1.922-5.297c0.283-1.858,1.479-3.766,3.594-5.726l8.062-18.935
		l4.677-9.714l1.036-1.23c0.687-0.818,1.19-2.315,1.512-4.499l2.001-5.494c0.572-2.202,0.999-3.821,1.29-4.861
		c0.293-1.038,1.11-2.565,2.459-4.58l0.249-1.543c0.141-1.276,0.528-2.705,1.155-4.28l2.732-1.375
		c0.404-1.176,0.618-2.778,0.633-4.805c0.014-2.026,0.715-3.829,2.102-5.405c1.388-1.572,2.706-2.417,3.964-2.524
		c0.23-0.272,1.02-2.146,2.369-5.62c1.348-3.474,4.224-5.397,8.629-5.775c5.284-0.453,10.36,2.217,15.226,8.007
		c4.866,5.789,7.457,10.51,7.769,14.156c0.324,3.772-1.678,6.291-6.004,7.548c-3.147,4.706-5.444,9.303-6.894,13.796
		c-1.454,4.495-2.768,8-3.947,10.506c-1.861,7.889-2.754,12.209-2.69,12.962c-1.129,1.619-2.039,3.945-2.728,6.979
		c-0.69,3.042-1.321,4.932-1.891,5.673c-0.57,0.749-1.492,3.644-2.769,8.698c-1.278,5.051-2.376,8.124-3.298,9.212l0.388,4.53
		c0.42,4.905-1.412,10.888-5.494,17.954l-0.761,4.436l-1.759,1.673l0.404,4.716c-1.698,0.906-2.575,2.499-2.629,4.786l-0.539,4.796
		c-0.251,0.021-0.356,0.287-0.313,0.788c0.043,0.503,0.504,0.717,1.386,0.641c2.515-0.215,3.218-2.549,5.833-6.202
		c0.241-0.144,1.33-1.187,3.856-2.798c2.532-1.613,3.88-3.616,4.227-4.025l2.625-2.698c1.446-0.884,1.559-1.883,2.541-3.742
		 M140.711,309.269l1.062-0.852c-0.292-0.48-0.461-0.979-0.504-1.476c-0.097-1.136,0.392-2.766,1.475-4.878
		c-0.294-0.481-0.482-1.226-0.568-2.232c-0.043-0.503,0.584-2.014,1.884-4.528l0.087-3.429c0.062-2.163,0.541-3.598,1.426-4.303
		c0.886-0.714,1.338-1.702,1.354-2.97c0.015-1.27,0.37-3.041,1.059-5.316c0.69-2.274,0.992-3.916,0.905-4.925l1.759-10.41
		c-6.434,8.913-10.428,14.229-11.985,15.945c-1.558,1.722-2.807,3.756-3.737,6.119c-0.936,2.361-2.555,5.54-4.864,9.538
		c-2.307,4-4.261,7.396-5.849,10.194c-1.59,2.798-2.702,5.328-3.326,7.598c-0.626,2.272-2.014,6.034-4.158,11.288
		c-2.147,5.246-3.527,9.104-4.139,11.565c-0.615,2.463-0.988,5.504-1.12,9.124c-0.136,3.626-1.582,6.312-4.344,8.069
		c-0.251,0.022-0.356,0.284-0.313,0.787c0.021,0.252,0.432,0.596,1.229,1.036l0.852,1.065l0.34,3.965
		c0.065,0.758-0.374,1.556-1.315,2.392l0.194,2.264c0.118,1.384-0.243,4.581-1.081,9.601c1.428,1.9,2.282,4.423,2.552,7.572
		l-0.595,1.951c0.022,0.253,0.302,0.608,0.854,1.071l1.325,2.162c0.043,0.504,0.188,0.746,0.442,0.725
		c0.501-0.043,0.939-0.842,1.316-2.392l2.227-2.847c0.668-1.079,1.707-3.382,3.114-6.923c1.408-3.539,2.698-5.81,3.885-6.797
		c1.179-0.989,1.751-1.734,1.708-2.238c-0.043-0.502-0.271-1.686-0.685-3.552l-0.032-0.377c-0.129-1.511,0.342-2.627,1.417-3.352
		c1.074-0.727,1.59-1.341,1.547-1.843l1.074-2.944c0.992-3.125,1.4-5.756,1.216-7.898c0.437-0.797,1.291-1.884,2.563-3.258
		c1.271-1.377,1.854-2.69,1.746-3.949l-0.685-3.556c-0.237-2.764,2.072-8.919,6.939-18.462l2.852,0.14
		c0.249-0.022,0.355-0.287,0.312-0.791l-1.601-1.002c-1.13,0.097-1.762-0.674-1.903-2.309
		C138.475,311.862,139.167,310.415,140.711,309.269z"/>
	<path fill="#EE224F" d="M192.277,199.718c6.085-6.708,3.88-5.957,9.688-9.206c1.558-0.133,4.662-6.266,10.924-9.944l7.986-4.305
		l3.954-2.049l3.702-1.178c2.411-0.207,4.417-1.02,6.012-2.444c1.594-1.425,2.917-2.254,3.967-2.486
		c1.052-0.232,2.264-1.052,3.646-2.458c1.38-1.407,3.464-2.474,6.262-3.218c2.795-0.738,4.778-1.803,5.944-3.189
		c1.17-1.388,2.553-2.328,4.153-2.821c1.602-0.493,3.429-1.262,5.486-2.296l18.851-7.621c0.284-0.024,1.089,0.196,2.413,0.65
		l0.853-0.073c1.703-0.146,3.313-0.957,4.826-2.448c1.518-1.484,3.409-2.328,5.678-2.522c1.418-0.122,4.111-1.211,8.084-3.263
		l1.387,1.168c2.05-2.748,3.854-4.19,5.418-4.325l1.278-0.109c0.279-0.023,1.583,0.155,3.898,0.525
		c3.448-1.438,6.31-2.257,8.582-2.452l4.855-0.845c0.282-0.024,0.721,0.085,1.317,0.316c1.021-1.374,2.518-2.286,4.482-2.743
		l2.339-0.2l8.542-2.877l2.627,0.633c1.582-1.562,4.146-2.502,7.691-2.806l2.13-0.182l2.167,0.245
		c0.283-0.024,1.553-0.563,3.82-1.615c2.27-1.052,7.943-1.967,17.027-2.746l5.607,0.378c3.421-1.72,5.271-2.598,5.558-2.622
		l6.07,0.767l2.269-1.053l0.852-0.072c0.281-0.024,1.017,0.202,2.204,0.669l0.424-0.036l15.142-3.444
		c0.277-0.023,0.864,0.072,1.739,0.281c1.047-1.09,1.857-1.66,2.425-1.709l4.136,0.716c1.135-0.097,3.055-1.043,5.758-2.852
		l1.39,1.169l14.321-2.945l5.358-0.029l4.609-1.253c4.679-0.4,8.296,0.543,10.851,2.822c2.553,2.285,3.939,4.703,4.157,7.255
		l1.416,6.524l-0.967,3.729l-0.064,4.292c-0.562,1.766-1.526,2.992-2.895,3.679c0.023,0.286-0.586,0.663-1.834,1.125
		c-1.246,0.462-2.467,1.175-3.67,2.137c-1.206,0.963-5.352,1.747-12.444,2.355c-3.545,0.304-5.907-0.602-7.087-2.72
		c-1.182-2.11-2.357-3.26-3.513-3.45l-9.476-3.047c-0.311-0.255-1.172-0.329-2.587-0.208l-1.701,0.146l-8.649,1.599
		c-0.287,0.024-1.074-0.048-2.378-0.225c-1.768,1.008-2.726,1.521-2.865,1.533l-15.812,0.497l-6.349,0.971l-4.539-0.468
		c-0.568,0.049-1.546,0.345-2.927,0.893c-1.382,0.546-4.329,1.161-8.842,1.83c-4.513,0.676-6.661,2.285-6.442,4.84
		c0.134,1.563,0.886,3.212,2.246,4.956c1.363,1.743,2.097,3.179,2.193,4.316c-1.875,3.161-2.775,5.167-2.702,6.018
		c-0.527,0.476-1.441,1.482-2.737,3.023c-1.298,1.541-3.732,3.999-7.298,7.378c-3.565,3.377-5.95,6.404-7.149,9.081
		c-1.197,2.674-2.789,4.099-4.776,4.269c-2.345,2.628-3.931,4.98-4.75,7.053l-1.557,1.851c-0.257,0.311-0.344,0.96-0.259,1.949
		c0.073,0.854-0.282,1.742-1.06,2.665l-1.478,5.271c-0.957,0.511-3.547,4.453-7.772,11.816l-2.442,1.496l-2.293,3.198l-2.98,0.256
		c-1.275,0.109-1.838,1.015-1.691,2.717l1.381,6.097c-1.973,2.028-3.46,4.66-4.468,7.888l-2.187,4.475
		c-2.726,3.234-4.074,4.994-4.05,5.276c0.062,0.713-1.098,3.887-3.469,9.514l-0.242,2.168c0.207,2.414-4.161,9.788-13.104,22.135
		c-1.187,2.813-1.687,7.002-1.492,12.56c-3.536,8.736-6.096,13.03-7.681,12.882c0.177,5.415-0.331,9.89-1.53,13.424
		c-1.202,3.529-2.687,8.697-4.461,15.496c-1.774,6.798-3.818,11.726-6.133,14.778l-0.706,1.779c-0.467,1.188-1.084,2.38-1.835,3.587
		c0.039,3.856-0.786,10.076-2.479,18.649l-0.491,9.263l-3.237,12.28c-0.352,0.887-0.492,1.759-0.419,2.604
		c0.05,0.575,0.603,1.633,1.667,3.185c1.06,1.552,1.654,3.041,1.777,4.461c0.169,1.985-0.049,3.612-0.655,4.876
		c-0.608,1.267-0.824,2.897-0.653,4.883c0.376,4.397-1.713,7.508-6.274,9.327l-1.704,0.146l-4.435,0.809
		c-5.96,0.512-11.595-1.864-16.902-7.126c-5.311-5.263-8.39-12.86-9.242-22.795c-0.048-0.565,0.193-2.765,0.721-6.601
		c0.531-3.833,0.817-6.319,0.86-7.475c0.041-1.144,0.298-2.344,0.761-3.598c0.464-1.252,0.601-3.015,0.406-5.288
		c-0.595-6.949,0.625-13.135,3.664-18.54c3.038-5.407,5.024-9.29,5.968-11.661c0.199-1.015,0.639-1.694,1.327-2.043
		c-0.522-1.097-0.855-2.497-1.001-4.202c-0.353-4.115,1.132-7.601,4.461-10.456c0.187-1.161,0.569-2.514,1.152-4.063
		c0.582-1.55,1.761-5.298,3.542-11.237c1.776-5.94,4.466-9.568,8.075-10.878c-0.168-0.271,0.586-1.48,2.263-3.623l-1.494-7.377
		c-0.099-1.136,1.02-3.16,3.341-6.074l3.106-6.272c0.359-2.457,2.016-4.816,4.971-7.071c0.727-1.49,1.578-2.42,2.547-2.789
		c0.089-0.576,0.547-2.406,1.353-5.476c0.81-3.071,2.758-6.989,5.852-11.758c3.092-4.769,6.027-9.696,8.809-14.8
		c2.778-5.094,5.473-7.83,8.09-8.196c2.611-0.364,3.936-1.978,3.978-4.845l0.604-7.983c3.812-3.896,6.083-6.595,6.811-8.088
		l2.687-3.659c0.393-2.037,1.023-3.412,1.898-4.129c0.866-0.716,1.921-2.127,3.174-4.237c1.244-2.11,2.868-4.034,4.862-5.776
		c1.345-5.976,5.101-11.37,11.263-16.186l3.095-3.91c2.118-3.612,3.91-6.087,5.368-7.429c1.454-1.338,2.488-3.037,3.099-5.088
		c0.608-2.055,2.006-3.675,4.191-4.863c2.185-1.19,3.223-2.425,3.114-3.701c-0.049-0.564-0.639-0.803-1.777-0.706
		c-1.135,0.098-3.014,0.688-5.634,1.771l-1.705,0.146l-3.758,1.18l-1.277,0.109l-3.692-0.542c-2.48,1.071-4.431,1.667-5.851,1.789
		c-0.259,0.311-1.13,1.027-2.602,2.155l-4.684,0.401l-2.335,2.772l-1.878,0.589l-5.607-0.377c-1.702,0.146-3.688,1.174-5.951,3.082
		c0.023,0.284-2.243,0.977-6.792,2.081c-4.55,1.106-8.801,2.791-12.752,5.06c-3.953,2.266-6.351,3.436-7.201,3.509l-3.906-0.522
		l-0.425,0.036c-1.846,0.158-3.471,1.225-4.87,3.204c-1.404,1.98-3.576,3.308-6.518,3.99l-2.552,0.219
		c-2.129,0.182-4.934,1.279-8.405,3.291c-3.468,2.011-5.35,3.029-5.635,3.054l-3.874-0.097c-1.607,1.281-2.999,2.188-4.167,2.716
		c-1.17,0.53-2.284,1.303-3.339,2.321c-1.059,1.018-2.135,1.789-3.236,2.312c-1.102,0.524-2.349,1.416-3.741,2.679
		c-1.393,1.265-2.52,1.933-3.368,2.005l-0.852,0.073l-2.597-0.207c-0.996,0.085-2.196,1.083-3.607,2.99
		c-1.411,1.911-2.776,3.134-4.088,3.674c-1.31,0.542-2.53,1.325-3.661,2.349c-1.131,1.028-1.693,2.877-2.959,3.127
		c-0.651,0.775-2.146,1.206-3.214,3.726c-1.071,2.525-4.09,3.79-5.929,5.734c-1.834,1.947-3.759,4.814-4.728,5.734"/>
</g>
</svg>
