<?xml version="1.0" encoding="utf-8"?>
<!-- Generator: Adobe Illustrator 16.2.1, SVG Export Plug-In . SVG Version: 6.00 Build 0)  -->
<!DOCTYPE svg PUBLIC "-//W3C//DTD SVG 1.1//EN" "http://www.w3.org/Graphics/SVG/1.1/DTD/svg11.dtd">
<svg version="1.1" id="Layer_1" xmlns="http://www.w3.org/2000/svg" xmlns:xlink="http://www.w3.org/1999/xlink" x="0px" y="0px"
	 width="500px" height="434.111px" viewBox="0 0 500 434.111" enable-background="new 0 0 500 434.111" xml:space="preserve">
<g>
	<path fill="#EE224F" d="M218.608,177.922c0.024,0.282-0.502,1.416-3.844,3.382l-4.715,5.498c-2.11,1.582-3.385,3.473-5.379,4.766
		l-1.255,0.879l-1.219,0.525c-1.458,2.649-4.837,6.657-10.138,12.02l-9.898,9.896c-1.808,1.838-2.754,3.497-2.838,4.974
		c-0.082,1.48-0.866,3.408-2.348,5.779c-1.485,2.372-2.18,4.048-2.097,5.016c0.859,10.029-0.537,15.901-4.186,17.616
		c-0.539,0.326-0.708,1.604-0.519,3.831c0.585,6.825-0.148,11.376-2.202,13.655c-0.554,1.73-1.774,4.711-3.661,8.942l-0.382,0.451
		l0.811,4.561c0.155,1.81-0.368,3.888-1.575,6.237c-1.204,2.347-1.741,4.287-1.61,5.817l-1.569,8.761
		c-0.39,2.002-1.066,3.562-2.019,4.703c-0.958,1.134-2.688,6.785-5.184,16.96c-2.301,4.264-3.555,6.826-3.762,7.69
		c-0.207,0.857-1.426,1.382-3.652,1.574l-2.47,0.632c0.185,0.545,0.648,1.418,1.381,2.616c0.732,1.203,1.13,2.149,1.19,2.846
		c0.274,3.199-0.19,5.975-1.393,8.326c-1.202,2.347-1.871,4.368-2.003,6.062l-1.004,3.031c-0.245,0.439-0.449,1.301-0.621,2.579
		c-0.174,1.275-0.942,2.956-2.304,5.033l-1.022,2.822c-0.413,1.723-1.668,3.51-3.747,5.373c-0.653,3.846-2.427,8.945-5.316,15.29
		c-2.898,6.352-5.642,10.688-8.251,13.017l-1.911,2.272c-0.255,0.298-0.661,0.475-1.218,0.524l-1.462,0.124l-2.577-0.621
		c-0.835,0.072-1.352,1.409-1.549,4.026c-0.198,2.607-1.341,4.004-3.428,4.184c-1.115,0.096-1.974-0.115-2.577-0.621
		c-3.3,4.069-5.808,6.314-7.521,6.746c-1.72,0.43-2.983,0.813-3.792,1.166c-0.811,0.349-1.357,0.537-1.637,0.562
		c-1.252,0.107-3.08-1.597-5.486-5.104c-2.407-3.515-4.178-5.362-5.313-5.544l-2.877-1.646c-0.282,0.026-1.849-2.3-4.7-6.962
		c-2.854-4.666-4.45-8.947-4.784-12.846l-1.986-8.459l0.549-3.417c-1.039-2.291-1.571-3.582-1.596-3.861
		c-0.287-3.342,0.342-6.233,1.889-8.68c1.543-2.446,2.305-3.81,2.281-4.088c-0.036-0.423-0.856-1.755-2.449-3.999l-0.089-1.045
		c-0.096-1.114,0.954-5.199,3.157-12.264l0.895-4.285l0.801-0.488l1.671-0.144c0.276-0.023,0.584-0.928,0.924-2.71
		c0.337-1.788,1.03-3.07,2.088-3.863c1.051-0.792,1.559-1.469,1.511-2.022l-0.071-0.837l-1.069-2.644
		c-0.048-0.559,0.563-1.595,1.839-3.104c1.272-1.51,2.329-3.533,3.163-6.055c0.836-2.525,1.716-4.113,2.646-4.749
		c0.925-0.642,1.417-2.301,1.468-4.967c2.086-5.091,5.013-7.793,8.771-8.115l1.148-1.361l-1.051-2.431
		c-0.167-1.955,2.787-5.92,8.867-11.913l1.611-3.298c0.691-1.745,1.593-2.656,2.708-2.751l6.168,0.732l0.8-0.49l-1.998-6.141
		c0.382-0.456,0.838-0.843,1.372-1.169c0.358-0.732,0.751-2.276,1.18-4.629c0.43-2.35,1.064-3.559,1.899-3.63
		c0.275-0.023,1.952,0.673,5.017,2.096l1.531-1.819c-0.048-0.558-0.393-1.265-1.025-2.122c-0.635-0.856-0.978-1.567-1.025-2.124
		c-0.286-3.337,2.509-5.896,8.39-7.662c0.994-1.487,1.682-3.262,2.066-5.334c0.382-2.062,1.523-3.495,3.42-4.293
		c1.895-0.793,4.176-2.844,6.837-6.16c2.659-3.311,3.946-5.527,3.85-6.646c-0.238-2.779,0.712-6.437,2.847-10.971
		c2.396-1.472,3.579-2.415,3.542-2.829c-0.035-0.414-0.67-1.272-1.904-2.573c-0.276,0.023-0.441-0.239-0.488-0.799
		c-0.215-2.502,0.836-4.14,3.156-4.899l0.382-0.454l-1.355-5.985c2.323-3.987,3.705-9.154,4.143-15.506l-0.214-2.505
		c-0.072-0.836,0.4-1.857,1.421-3.066c1.02-1.212,2.005-3.611,2.963-7.198l-0.794-4.352c-0.048-0.557,0.757-2.589,2.425-6.101
		l0.22-2.335c-1.995,1.296-3.519,3.178-4.565,5.651l-2.119,2.287c-1.493,2.235-2.47,3.931-2.93,5.089
		c-0.461,1.167-1.179,2.207-2.149,3.13c-0.973,0.921-1.69,2.004-2.143,3.237c-0.456,1.229-1.071,2.229-1.848,2.996
		c-0.775,0.773-1.243,1.863-1.404,3.279l-1.074,2.197c-2.167,0.893-3.4,2.048-3.699,3.474l-3.821,9.374
		c-3.661,1.44-5.305,4.318-4.935,8.631l0.143,1.674c-0.266,0.162-1.221,0.49-2.857,0.981c-1.642,0.488-2.397,1.435-2.279,2.824
		c0.072,0.835-0.439,2.215-1.535,4.129c-1.696-0.129-4.275,3.25-7.75,10.133l-1.839,3.104c-1.134,1.504-2.844,2.766-5.138,3.806
		c-1.328,2.5-2.596,4.05-3.807,4.638c-1.213,0.599-1.773,1.383-1.689,2.358l0.757,3.933c0.096,1.116-1.584,1.963-5.035,2.535
		c-1.294,1.239-1.949,3.428-1.955,6.589c-0.01,3.16-1.409,4.856-4.188,5.095c-0.975,0.084-2.351,1.184-4.131,3.298
		c-1.369,0.396-2.583,1.377-3.637,2.941c-1.055,1.563-1.857,2.439-2.403,2.625c-0.545,0.187-1.211,0.592-1.998,1.224l-2.991-0.589
		c-1.178,2.626-2.112,3.968-2.804,4.028l-5.462,0.046l-3.058,1.104c-3.063,0.263-7.447-1.396-13.146-4.977
		c-5.702-3.576-9.739-6.949-12.108-10.111c-2.377-3.164-4.385-5.339-6.029-6.533c-1.645-1.188-2.601-2.547-2.869-4.068
		c-0.269-1.516-1.254-3.186-2.952-5.007c-1.704-1.813-2.952-5.004-3.764-9.563l-1.105-3.065l-0.143-1.669l0.388-5.294l-0.74-3.725
		L29,202.133l-0.812-4.559c-0.048-0.554,0.52-2.075,1.714-4.567l0.477-4.25c-0.119-1.389,0.275-3.318,1.189-5.781l0.442-4.668
		c-0.155-1.808,0.434-3.54,1.765-5.201c1.331-1.658,2.551-2.534,3.666-2.629c0.837-0.071,1.495-0.549,1.982-1.433
		c-1.768-0.972-2.688-1.944-2.773-2.919c-0.143-1.673,0.15-3.171,0.879-4.497c0.728-1.326,1.103-3.46,1.134-6.41l9.557-23.547
		c0.669-2.02,1.188-4.102,1.571-6.235c0.374-2.138,1.123-4.057,2.241-5.768c1.117-1.705,1.976-3.116,2.583-4.222
		c0.603-1.104,1.079-2.159,1.412-3.174c0.334-1.006,0.709-2.337,1.129-3.987c0.418-1.645,1.79-3.692,4.105-6.137l0.984-3.242
		c0.669-2.019,2.464-4.768,5.395-8.248l0.895-4.284c0.159-1.416,1.217-3.366,3.183-5.849c1.96-2.481,3.041-4.222,3.234-5.222
		c1.375-6.85,2.912-11.434,4.606-13.756c1.694-2.319,3.109-5,4.254-8.046l2.292-2.72l3.968-0.341
		c0.275-0.023,0.396-0.312,0.349-0.872c-0.025-0.278-0.361-0.88-0.998-1.808c-0.641-0.928-0.985-1.667-1.033-2.227
		c-0.322-3.758,0.769-5.746,3.274-5.961c0.556-0.047,1.063,0.119,1.516,0.501c0.453,0.383,1.025,0.542,1.726,0.482
		c0.275-0.024,0.541-0.187,0.8-0.49l-0.143-1.672l-1.069-2.644l-0.036-0.418c-0.071-0.834,0.176-2.855,0.743-6.06
		c0.568-3.207,0.829-5.085,0.781-5.642c-0.059-0.698-0.548-1.847-1.453-3.456c-0.91-1.604-1.922-2.359-3.033-2.264
		c-0.279,0.024-1.364,0.467-3.251,1.332l-0.419,0.036l-2.667-1.666l-0.418,0.037c-0.556,0.047-0.781,0.695-0.674,1.951
		c-1.111,1.779-2.223,2.714-3.337,2.81l-3.031-1.005c-0.281,0.024-1.646,0.843-4.101,2.458c-2.461,1.614-3.967,2.445-4.522,2.493
		l-0.417,0.036l-3.624-0.532c-1.114,0.096-1.799,1.102-2.057,3.015c-0.256,1.917-2.668,3.209-7.24,3.882
		c-0.972,1.768-2.226,3.103-3.762,4.003c-1.534,0.904-7.082,5.342-16.637,13.315l-1.6,0.981c-0.713,3.145-2.357,6.062-4.933,8.732
		c-2.578,2.677-3.726,5.617-3.452,8.818l-0.221,5.083l0.875,2.869c0.048,0.557-1.258,2.036-3.918,4.438
		c-2.66,2.405-4.336,3.632-5.029,3.692c-9.84,0.844-15.003-1.586-15.494-7.3L2.43,72.69l-0.863-5.185
		c-0.191-2.226,1.936-5.982,6.387-11.278c1.341-0.673,3.16-2.305,5.463-4.889c2.296-2.579,6.148-5.015,11.554-7.304
		c0.529-0.325,1.263-1.58,2.195-3.765c3.307-2.249,5.834-3.798,7.582-4.65c1.748-0.851,4.74-2.685,8.983-5.502
		c4.243-2.819,8.543-5.361,12.91-7.629c4.363-2.267,8.2-4.526,11.518-6.772l4.07-1.611l2.919-2.773
		c1.052-0.793,2.332-1.394,3.845-1.807c1.505-0.406,2.989-1.097,4.451-2.065l1.219-0.525l2.506-0.215
		c0.278-0.023,0.871-0.456,1.78-1.309c0.907-0.845,4.778-1.951,11.605-3.31c6.828-1.352,10.38-2.044,10.662-2.068
		c3.619-0.31,7.113,1.602,10.487,5.727c3.367,4.134,5.3,9.053,5.789,14.764c0.346,4.039-0.79,8.379-3.408,13.02
		c-2.623,4.646-4.535,8.91-5.742,12.803c-1.214,3.892-2.433,6.45-3.654,7.678c-1.231,1.233-2.534,3.583-3.92,7.067l-5.962,11.454
		c-0.923,2.326-1.704,5.513-2.337,9.564c-0.635,4.053-2.371,6.692-5.214,7.916c-0.885,4.427-2.101,7.828-3.651,10.2
		c-1.551,2.379-2.456,4.457-2.726,6.23c-0.269,1.78-0.727,3.396-1.374,4.853c-0.647,1.461-1.481,4.411-2.503,8.842
		c-3.659,4.806-5.648,8.976-5.975,12.508c-0.329,3.535-2.102,6.145-5.323,7.821c-0.897,4.285-1.735,7.197-2.513,8.737
		c-0.783,1.538-1.463,3.422-2.04,5.646c-0.583,2.224-1.197,3.644-1.844,4.262l-4.59,17.646l-0.77,5.747
		c-1.598,2.661-2.545,5.129-2.837,7.395c-0.299,2.273-0.846,4.494-1.64,6.664l0.287,3.34c0.083,0.977-0.221,2.333-0.914,4.079
		l-0.933,3.866c0.274,3.203-0.583,5.451-2.578,6.744l0.036,0.418c0.036,0.418,0.671,2.119,1.908,5.097l0.072,0.834l-1.76,6.465
		l0.089,1.043l1.82,4.053l-0.107,6.111c0.191,2.227,1.342,5.036,3.459,8.435c2.113,3.397,3.518,5.064,4.219,5.004
		c0.275-0.024,0.782-0.625,1.522-1.812c2.856-1.087,5.018-2.431,6.491-4.026c1.472-1.599,3.302-2.773,5.48-3.523
		c0.251-0.298,0.573-1.027,0.968-2.187c0.391-1.156,1.314-2.221,2.777-3.183c-0.024-0.276,0.24-0.442,0.798-0.491l2.333,0.223
		l0.417-0.035c0.276-0.024,0.643-0.649,1.103-1.884c0.454-1.229,1.265-2.386,2.435-3.473c1.169-1.08,3.172-3.847,6.02-8.299
		c2.841-4.452,5.86-7.656,9.057-9.613l11.395-16.759l4.841-4.836c0.546-3.41,1.336-5.617,2.373-6.619
		c1.035-1.001,2.095-2.527,3.183-4.586l1.911-2.27l0.691-1.743c2.26-4.684,4.206-8.148,5.838-10.389
		c1.63-2.245,2.536-3.938,2.72-5.071c0.18-1.138,1.339-3.585,3.47-7.347c2.13-3.76,4.416-8.2,6.849-13.315
		c2.436-5.114,4.204-8.6,5.304-10.45c1.102-1.852,1.81-3.801,2.129-5.865c0.313-2.058,1.638-4.169,3.979-6.339l8.926-20.964
		l5.178-10.755l1.146-1.362c0.761-0.906,1.318-2.564,1.675-4.981l2.216-6.083c0.633-2.438,1.106-4.23,1.428-5.382
		c0.324-1.149,1.229-2.84,2.723-5.07l0.275-1.709c0.155-1.413,0.585-2.994,1.278-4.738l3.024-1.522
		c0.448-1.302,0.684-3.076,0.702-5.32c0.016-2.244,0.792-4.239,2.327-5.984c1.536-1.74,2.996-2.675,4.389-2.795
		c0.255-0.302,1.129-2.376,2.623-6.222c1.493-3.846,4.677-5.975,9.554-6.394c5.85-0.501,11.471,2.455,16.857,8.865
		c5.387,6.409,8.256,11.636,8.602,15.673c0.358,4.177-1.858,6.965-6.647,8.356c-3.484,5.21-6.028,10.3-7.632,15.275
		c-1.61,4.976-3.064,8.857-4.37,11.632c-2.061,8.734-3.049,13.517-2.979,14.351c-1.25,1.792-2.257,4.368-3.02,7.727
		c-0.763,3.367-1.463,5.46-2.093,6.28c-0.63,0.829-1.652,4.034-3.065,9.63c-1.415,5.592-2.631,8.994-3.651,10.2l0.43,5.016
		c0.465,5.43-1.564,12.055-6.083,19.878l-0.843,4.911l-1.947,1.853l0.447,5.221c-1.88,1.003-2.851,2.766-2.911,5.298l-0.596,5.311
		c-0.279,0.024-0.396,0.317-0.348,0.873c0.048,0.558,0.558,0.793,1.535,0.71c2.784-0.239,3.563-2.822,6.458-6.866
		c0.267-0.16,1.473-1.314,4.269-3.098c2.803-1.787,4.296-4.003,4.68-4.457l2.906-2.988c1.601-0.978,1.726-2.084,2.813-4.143
		 M127.752,306.245l1.175-0.943c-0.324-0.531-0.511-1.083-0.558-1.633c-0.108-1.258,0.434-3.062,1.633-5.4
		c-0.326-0.534-0.533-1.357-0.628-2.473c-0.048-0.557,0.646-2.229,2.086-5.013l0.097-3.797c0.069-2.395,0.599-3.983,1.579-4.764
		c0.98-0.79,1.481-1.884,1.499-3.288c0.017-1.405,0.41-3.366,1.172-5.887c0.764-2.518,1.098-4.335,1.002-5.452l1.947-11.525
		c-7.124,9.868-11.546,15.753-13.269,17.654c-1.725,1.906-3.107,4.158-4.137,6.775c-1.036,2.614-2.829,6.133-5.386,10.559
		c-2.555,4.43-4.717,8.189-6.476,11.287c-1.761,3.098-2.992,5.899-3.683,8.412c-0.693,2.516-2.23,6.681-4.604,12.497
		c-2.377,5.809-3.905,10.08-4.582,12.806c-0.681,2.727-1.094,6.094-1.241,10.102c-0.15,4.015-1.751,6.989-4.81,8.935
		c-0.278,0.024-0.394,0.313-0.346,0.871c0.023,0.279,0.478,0.66,1.36,1.147l0.943,1.18l0.376,4.39
		c0.072,0.839-0.414,1.722-1.456,2.647l0.215,2.507c0.131,1.531-0.269,5.071-1.196,10.629c1.581,2.104,2.526,4.896,2.825,8.384
		l-0.659,2.16c0.024,0.28,0.335,0.674,0.945,1.186l1.467,2.395c0.048,0.558,0.208,0.825,0.49,0.802
		c0.555-0.047,1.04-0.932,1.458-2.648l2.466-3.15c0.74-1.195,1.889-3.744,3.447-7.665c1.559-3.919,2.988-6.433,4.302-7.525
		c1.305-1.096,1.939-1.921,1.891-2.478c-0.047-0.557-0.299-1.867-0.757-3.934l-0.036-0.416c-0.143-1.674,0.379-2.909,1.569-3.712
		c1.189-0.804,1.76-1.484,1.712-2.039l1.189-3.261c1.098-3.46,1.55-6.372,1.346-8.745c0.483-0.882,1.429-2.085,2.838-3.606
		c1.407-1.524,2.053-2.979,1.933-4.372l-0.758-3.938c-0.262-3.06,2.294-9.874,7.684-20.44l3.157,0.155
		c0.275-0.024,0.394-0.318,0.346-0.876l-1.772-1.109c-1.252,0.107-1.951-0.746-2.107-2.556
		C125.275,309.117,126.042,307.514,127.752,306.245z"/>
	<path fill="#EE224F" d="M184.843,184.954c6.738-7.427,4.296-6.594,10.726-10.192c1.726-0.147,5.161-6.938,12.095-11.01l8.842-4.766
		l4.377-2.268l4.098-1.304c2.67-0.229,4.89-1.129,6.656-2.706c1.765-1.577,3.229-2.495,4.393-2.752
		c1.165-0.257,2.507-1.165,4.037-2.722c1.528-1.558,3.835-2.739,6.933-3.562c3.095-0.817,5.291-1.996,6.581-3.531
		c1.296-1.537,2.826-2.577,4.599-3.123c1.773-0.546,3.796-1.397,6.074-2.542l20.871-8.437c0.314-0.026,1.205,0.217,2.672,0.72
		l0.943-0.081c1.885-0.162,3.669-1.059,5.343-2.71c1.681-1.644,3.775-2.578,6.287-2.792c1.57-0.135,4.552-1.341,8.949-3.612
		l1.536,1.293c2.269-3.043,4.268-4.64,5.999-4.788l1.414-0.121c0.31-0.026,1.753,0.172,4.317,0.581
		c3.816-1.592,6.985-2.499,9.501-2.714l5.376-0.936c0.312-0.026,0.798,0.095,1.458,0.35c1.132-1.521,2.788-2.53,4.963-3.036
		l2.59-0.222l9.458-3.186l2.907,0.701c1.752-1.73,4.59-2.771,8.516-3.107l2.359-0.202l2.398,0.271
		c0.313-0.027,1.719-0.624,4.229-1.789c2.513-1.165,8.795-2.178,18.853-3.04l6.207,0.418c3.789-1.904,5.837-2.875,6.154-2.903
		l6.721,0.849l2.512-1.166l0.942-0.08c0.312-0.027,1.126,0.224,2.44,0.741l0.469-0.04l16.765-3.813
		c0.308-0.025,0.957,0.08,1.926,0.312c1.159-1.207,2.056-1.838,2.685-1.892l4.579,0.793c1.257-0.107,3.382-1.155,6.375-3.158
		l1.538,1.294l15.855-3.261l5.933-0.033l5.104-1.388c5.18-0.443,9.184,0.602,12.013,3.125c2.826,2.53,4.362,5.207,4.604,8.033
		l1.566,7.223l-1.07,4.129l-0.07,4.751c-0.622,1.955-1.69,3.312-3.206,4.074c0.027,0.316-0.648,0.733-2.029,1.245
		c-1.38,0.512-2.731,1.301-4.063,2.366c-1.336,1.066-5.926,1.934-13.778,2.607c-3.925,0.336-6.54-0.666-7.846-3.011
		c-1.309-2.336-2.61-3.609-3.889-3.819l-10.492-3.374c-0.344-0.283-1.297-0.364-2.863-0.229l-1.885,0.162l-9.575,1.771
		c-0.317,0.027-1.19-0.053-2.633-0.25c-1.958,1.116-3.018,1.684-3.173,1.698l-17.507,0.549l-7.028,1.076l-5.025-0.518
		c-0.629,0.054-1.712,0.382-3.241,0.988c-1.529,0.605-4.792,1.286-9.788,2.026c-4.997,0.749-7.376,2.53-7.134,5.359
		c0.148,1.731,0.981,3.556,2.487,5.486c1.51,1.93,2.321,3.52,2.428,4.779c-2.075,3.499-3.072,5.72-2.991,6.663
		c-0.584,0.527-1.597,1.641-3.03,3.347c-1.437,1.707-4.133,4.427-8.08,8.168c-3.948,3.74-6.588,7.09-7.916,10.054
		c-1.325,2.96-3.087,4.538-5.288,4.727c-2.597,2.91-4.352,5.514-5.259,7.809l-1.724,2.049c-0.284,0.344-0.381,1.063-0.286,2.158
		c0.081,0.945-0.312,1.929-1.173,2.95l-1.636,5.835c-1.061,0.566-3.928,4.93-8.605,13.083l-2.704,1.656l-2.54,3.541l-3.3,0.283
		c-1.411,0.121-2.034,1.124-1.872,3.008l1.528,6.75c-2.183,2.245-3.83,5.159-4.946,8.733l-2.421,4.955
		c-3.018,3.58-4.511,5.529-4.483,5.842c0.068,0.789-1.215,4.303-3.84,10.532l-0.269,2.401c0.229,2.672-4.607,10.836-14.509,24.506
		c-1.313,3.115-1.867,7.752-1.652,13.905c-3.915,9.673-6.748,14.427-8.504,14.263c0.196,5.995-0.366,10.949-1.694,14.862
		c-1.331,3.907-2.975,9.629-4.938,17.156c-1.965,7.526-4.228,12.982-6.79,16.362l-0.781,1.97c-0.518,1.315-1.2,2.635-2.031,3.971
		c0.043,4.271-0.871,11.157-2.745,20.649l-0.544,10.254l-3.584,13.597c-0.389,0.982-0.545,1.948-0.464,2.883
		c0.056,0.637,0.667,1.808,1.846,3.525c1.173,1.719,1.832,3.367,1.969,4.939c0.187,2.198-0.055,4-0.727,5.398
		c-0.674,1.402-0.912,3.207-0.723,5.406c0.416,4.868-1.897,8.312-6.947,10.326l-1.887,0.162l-4.91,0.895
		c-6.599,0.567-12.837-2.063-18.713-7.889c-5.879-5.826-9.289-14.238-10.232-25.238c-0.053-0.625,0.213-3.061,0.799-7.308
		c0.587-4.243,0.904-6.996,0.952-8.275c0.045-1.266,0.33-2.595,0.843-3.982c0.514-1.387,0.666-3.338,0.45-5.855
		c-0.659-7.693,0.691-14.542,4.057-20.526c3.363-5.987,5.562-10.285,6.607-12.911c0.22-1.124,0.708-1.876,1.469-2.262
		c-0.579-1.215-0.947-2.766-1.109-4.652c-0.39-4.557,1.254-8.416,4.939-11.577c0.207-1.285,0.63-2.782,1.275-4.498
		c0.645-1.717,1.95-5.866,3.921-12.442c1.967-6.576,4.944-10.593,8.94-12.043c-0.186-0.301,0.649-1.64,2.506-4.011l-1.654-8.168
		c-0.109-1.258,1.129-3.499,3.698-6.726l3.439-6.944c0.398-2.721,2.231-5.333,5.504-7.829c0.805-1.65,1.747-2.68,2.819-3.088
		c0.099-0.638,0.605-2.665,1.497-6.062c0.897-3.401,3.054-7.739,6.479-13.019c3.424-5.279,6.674-10.735,9.753-16.387
		c3.076-5.639,6.06-8.668,8.957-9.074c2.892-0.403,4.356-2.189,4.404-5.364l0.668-8.839c4.221-4.313,6.734-7.302,7.54-8.955
		l2.975-4.051c0.435-2.255,1.133-3.777,2.102-4.571c0.96-0.792,2.127-2.355,3.515-4.69c1.377-2.336,3.175-4.466,5.383-6.395
		c1.488-6.616,5.647-12.588,12.47-17.92l3.426-4.329c2.346-3.999,4.329-6.739,5.943-8.226c1.609-1.481,2.755-3.363,3.432-5.633
		c0.673-2.276,2.22-4.069,4.641-5.384c2.418-1.317,3.567-2.684,3.447-4.097c-0.054-0.625-0.707-0.889-1.968-0.781
		c-1.256,0.107-3.337,0.761-6.237,1.96l-1.889,0.163l-4.159,1.306l-1.415,0.121l-4.088-0.6c-2.746,1.186-4.905,1.846-6.478,1.981
		c-0.286,0.344-1.251,1.137-2.88,2.386l-5.187,0.444l-2.584,3.069l-2.079,0.653l-6.209-0.418c-1.885,0.162-4.083,1.301-6.589,3.413
		c0.026,0.314-2.483,1.081-7.52,2.303c-5.037,1.225-9.744,3.091-14.119,5.602c-4.376,2.509-7.03,3.804-7.973,3.885l-4.325-0.578
		l-0.47,0.04c-2.044,0.175-3.843,1.356-5.392,3.547c-1.555,2.193-3.96,3.662-7.217,4.417l-2.824,0.242
		c-2.357,0.202-5.463,1.416-9.307,3.644c-3.839,2.226-5.923,3.354-6.239,3.381l-4.289-0.108c-1.779,1.419-3.32,2.422-4.614,3.007
		c-1.295,0.586-2.528,1.442-3.697,2.569c-1.172,1.127-2.364,1.981-3.583,2.561c-1.22,0.58-2.601,1.566-4.141,2.966
		c-1.542,1.4-2.79,2.14-3.729,2.22l-0.943,0.081l-2.875-0.229c-1.103,0.095-2.431,1.199-3.993,3.311
		c-1.562,2.116-3.074,3.47-4.526,4.068c-1.45,0.6-2.8,1.467-4.053,2.6c-1.252,1.138-1.875,3.186-3.277,3.462
		c-0.721,0.858-2.376,1.335-3.558,4.125c-1.186,2.795-4.528,4.195-6.564,6.348c-2.03,2.156-4.162,5.33-5.234,6.348"/>
</g>
</svg>
