<?xml version="1.0" encoding="utf-8"?>
<!-- Generator: Adobe Illustrator 16.2.1, SVG Export Plug-In . SVG Version: 6.00 Build 0)  -->
<!DOCTYPE svg PUBLIC "-//W3C//DTD SVG 1.1//EN" "http://www.w3.org/Graphics/SVG/1.1/DTD/svg11.dtd">
<svg version="1.1" id="Layer_1" xmlns="http://www.w3.org/2000/svg" xmlns:xlink="http://www.w3.org/1999/xlink" x="0px" y="0px"
	 width="535.5px" height="330.5px" viewBox="0 0 535.5 330.5" enable-background="new 0 0 535.5 330.5" xml:space="preserve">
<g id="Layer_1_1_">
	<g>
		<path d="M114.268,170.962l1.234-3.08l4.006-4.465c2.055-3.388,3.749-5.39,5.086-6.005c0.205-0.82,0.513-1.591,0.924-2.311
			c0.409-0.717,0.717-1.848,0.924-3.387l1.386-2.464c0.409-0.409,0.616-0.717,0.616-0.924c0-0.205-0.412-0.82-1.232-1.848
			l-0.77-3.233c0-0.82-2.723-3.542-8.166-8.161h-1.234l-11.096-5.389l-0.618-1.54l-1.232-0.308l-1.542,0.616h-0.308l-5.24-1.54
			c-4.213-1.128-6.987-2.002-8.322-2.618c-0.207,0.207-0.515,0.308-0.924,0.308l-6.167-1.386c-1.747-0.409-2.8-0.847-3.159-1.309
			c-0.361-0.462-1.234-0.924-2.62-1.386c-1.388-0.462-2.288-0.897-2.697-1.309c-0.412-0.409-1.234-0.616-2.466-0.616l-3.854,0.924
			c0-0.308-1.439-0.82-4.314-1.54c-0.414-1.025-0.722-1.54-0.926-1.54l-4.467,0.616c-2.981-1.437-4.523-2.156-4.625-2.156
			c-0.515,0-2.314-0.282-5.394-0.847c-3.08-0.563-5.082-1.155-6.005-1.771c-0.924-0.616-2.31-1.232-4.157-1.848l-0.924-0.924
			c-0.207-0.205-0.77-0.409-1.694-0.616H31.52c-0.616,0-1.463-0.513-2.541-1.54c-1.078-1.025-2.463-2.052-4.157-3.08
			c-1.694-1.025-3.183-2.642-4.465-4.85c-1.285-2.206-1.978-4.439-2.079-6.698c-0.207-0.205-0.308-0.409-0.308-0.616l0.924-4.927
			c0.924-6.26,3.85-12.061,8.777-17.399c0.82-2.771,2.514-4.773,5.081-6.005l0.616-2.156c2.976-2.565,5.105-4.62,6.39-6.159
			c1.282-1.54,2.745-2.795,4.388-3.772c1.641-0.974,2.926-1.872,3.85-2.694l2.788-1.232c-0.104-0.924,2.185-3.104,6.867-6.544
			c4.682-3.438,8.332-5.697,10.949-6.775c2.618-1.078,4.362-1.872,5.235-2.387c0.871-0.512,3.412-1.282,7.622-2.31
			c1.025-2.771,2.668-4.157,4.927-4.157h2.31l3.08-3.08l4.157,0.308c0.205-0.205,0.77-0.847,1.694-1.925
			c0.924-1.078,2.464-1.617,4.619-1.617l18.631-5.697h1.232l1.231,0.308c0.82,0,1.872-0.717,3.157-2.156
			c1.282-1.436,2.95-2.156,5.004-2.156c0.409,0,1.179,0.412,2.31,1.232c0,0.207,0.101,0.308,0.308,0.308l4.003-1.232l4.773,0.308
			l6.005-1.54c3.796,0,7.133,0.924,10.008,2.771l0.308-0.616V9.903c0-1.744,0.974-2.618,2.925-2.618c0.82,0,1.333,0.207,1.54,0.616
			l1.848,1.078h1.078c0.205,0,1.54,0.616,4.003,1.848c1.54-1.025,2.514-1.54,2.926-1.54c1.949,0,3.488,0.823,4.619,2.463
			l2.618-0.308c0.82-0.82,1.333-1.231,1.54-1.231c0.616,0,1.437,0.823,2.464,2.463l0.924,0.308h3.849
			c0.205,0,0.616,0.308,1.232,0.924l1.694,1.386c0.82,0.823,1.386,1.489,1.693,2.001c0.308,0.515,0.667,0.977,1.078,1.386
			c2.668-1.128,4.104-1.693,4.311-1.693c1.025,0,1.795,0.873,2.31,2.617c0,1.439,0.897,2.849,2.695,4.234
			c1.795,1.386,2.694,2.849,2.694,4.389c2.257,1.027,3.388,2.67,3.388,4.927l2.925,7.544l-0.616,2.618
			c0.82,1.643,1.232,2.567,1.232,2.771l-0.616,5.697l0.616,6.005c0,3.183-1.489,5.904-4.465,8.161c-0.616,0-1.617,0.438-3.002,1.309
			c-1.386,0.873-2.182,1.309-2.387,1.309c-2.67,0-4.441-0.64-5.312-1.925c-0.874-1.282-1.72-2.232-2.541-2.848
			c-0.823-0.616-1.232-1.437-1.232-2.464c0-2.36,1.59-4.67,4.773-6.929c1.437,0,2.464-0.462,3.08-1.386
			c0-2.156-0.462-3.643-1.386-4.465c-0.924-0.82-1.925-1.949-3.002-3.388c-1.078-1.436-2.232-2.591-3.464-3.464
			c-1.232-0.871-2.233-1.975-3.002-3.312c-0.77-1.333-1.463-2.001-2.079-2.001l-2.155,0.308l-4.465-0.924
			c-4.723-0.616-9.034-1.693-12.934-3.233h-3.08l-8.314-1.232c-1.439,0.616-3.491,0.924-6.159,0.924l-10.162,1.54l-4.158-0.308
			c-0.308,0-3.132,0.874-8.468,2.618l-1.54,0.308h-4.157c-0.207,0-1.516,0.515-3.926,1.54c-2.413,1.027-4.441,1.747-6.082,2.156
			l-1.386,0.616c-0.207,0.207-0.515,0.308-0.924,0.308l-2.464-0.308l-13.55,6.621l-2.156-1.232c-1.747-0.82-2.721-1.231-2.925-1.231
			c-1.439,0-2.156,0.719-2.156,2.155l-0.308,2.926c-1.335,0.823-2.208,1.438-2.617,1.848c-0.412,0.411-0.924,0.719-1.54,0.924
			h-1.848c-1.232,0-2.387,0.539-3.464,1.617c-1.077,1.078-2.028,1.67-2.849,1.771c-0.823,0.104-2.001,0.565-3.542,1.386
			c-0.207,0.411-1.027,0.823-2.463,1.231c-1.439,0.412-2.541,1.362-3.311,2.849c-0.77,1.489-1.67,2.233-2.695,2.233l-3.079-0.616
			l-1.694,3.08c-2.156,0.515-3.388,0.823-3.695,0.924c-1.335,1.747-2.671,3.08-4.003,4.003c-1.335,0.924-2.644,1.925-3.926,3.002
			c-1.285,1.078-2.209,2.182-2.772,3.311c-0.565,1.131-1.412,2.028-2.541,2.694c-1.131,0.669-2.105,2.028-2.925,4.081l-1.54,1.54
			c-2.567,2.156-3.849,4.465-3.849,6.929c0,1.747,1.232,3.029,3.695,3.849c2.463,0.823,4.003,1.489,4.619,2.002
			c0.616,0.515,1.54,0.77,2.771,0.77c1.232,0,2.411,0.258,3.542,0.77c1.128,0.515,3.027,1.335,5.697,2.464
			c0.512,1.643,1.025,2.463,1.54,2.463c0.205,0,0.616-0.409,1.232-1.232c0.616-0.82,1.538-1.231,2.769-1.231
			c1.333,0,2.618,0.823,3.85,2.463l1.229-0.924H65.9l2.001,0.616h0.308l1.848-0.924c0.205-0.204,0.513-0.308,0.921-0.308
			c0.308,0,1.898,0.515,4.773,1.54h0.308c0.204,0,1.025-0.205,2.461-0.616c1.54,0.411,2.411,0.719,2.618,0.924l2.153,1.231
			c0,0.308,0.205,0.462,0.616,0.462c0.409,0,1.025-0.231,1.848-0.693c0.82-0.462,1.59-0.693,2.31-0.693
			c0.818,0,1.742,0.565,2.77,1.694c1.641-0.717,2.564-1.078,2.771-1.078c0.921,0,2.512,0.77,4.771,2.31l2.923,0.616h3.387
			l5.079,0.924c1.434,1.54,2.923,2.721,4.463,3.542c0.205-1.128,0.924-1.694,2.156-1.694c1.641,0,4.152,0.669,7.54,2.002
			l1.232,0.308l1.232,0.924c1.744-0.409,2.822-0.616,3.231-0.616c2.052,0,3.08,0.72,3.08,2.156c0,1.232-0.308,2.825-0.924,4.773
			c0.205,0,0.512,0.207,0.924,0.616c0.513-0.616,1.078-1.025,1.694-1.232l2.461-1.386c0.409-0.409,0.717-0.616,0.924-0.616
			c2.358,0,5.695,1.643,10.006,4.927c4.311,3.286,6.775,7.032,7.391,11.24c0,1.231,0.409,2.67,1.232,4.311l-0.616,2.002l0.308,2.463
			c0,0.207-0.207,0.924-0.616,2.156l-0.308,2.31c-0.207,0.412-0.515,0.77-0.924,1.078c-0.412,0.308-0.719,0.669-0.924,1.078
			l0.924,2.618v0.616c0,0.411-0.385,0.977-1.155,1.693c-0.77,0.719-1.258,1.386-1.463,2.002c-0.207,0.615-0.565,1.258-1.078,1.924
			c-0.515,0.67-0.874,1.463-1.078,2.388c-0.207,0.923-1.208,1.977-3.002,3.156c-1.797,1.182-2.694,2.078-2.694,2.694
			s0.205,0.924,0.616,0.924c1.229,0,2.536-0.59,3.922-1.771c1.383-1.18,2.435-1.873,3.151-2.08c0.717-0.204,1.946-0.82,3.69-1.848
			l14.457-6.775c10.764-5.131,16.759-7.698,17.991-7.698c1.641,0,2.461,0.823,2.461,2.464c0,0.615-0.719,1.797-2.155,3.541
			c-0.207,4.826-2.31,7.648-6.313,8.469c-1.54,1.027-2.721,2.105-3.539,3.233h-1.232c-2.567,2.875-5.493,4.312-8.777,4.312h-0.924
			c-3.799,3.799-8.418,5.903-13.855,6.312c-3.595,3.595-6.571,5.39-8.931,5.39l-2.464,0.616c-2.567,1.026-4.364,1.539-5.389,1.539
			c-0.207,0-0.616,0.412-1.231,1.231l-2.308,1.693c-1.951,0.411-4.056,1.54-6.313,3.389c-2.259,1.848-3.979,2.9-5.158,3.155
			c-1.181,0.259-2.439,0.693-3.772,1.31c-1.335,0.615-6.725,4.106-16.165,10.471l-2.002,0.615c-4.003,1.849-6.52,3.363-7.545,4.543
			c-1.027,1.181-2.259,2.182-3.693,3.002h-0.616c-2.363,0-5.134,1.539-8.315,4.619c-0.207,0.516-2.439,1.361-6.698,2.541
			c-4.261,1.179-8.341,3.002-12.239,5.466c-2.463,0.616-5.493,1.437-9.084,2.464c-3.594,1.025-6.212,1.641-7.853,1.848
			l-10.776,2.311c-2.363,0.408-5.082,1.024-8.161,1.848c-1.848-0.615-3.438-0.924-4.771-0.924l-2.771,0.309
			c-0.412,0-1.054-0.361-1.925-1.078c-0.874-0.72-2.028-1.412-3.464-2.078c-1.439-0.668-2.156-2.439-2.156-5.312
			c0-2.566,2.825-5.105,8.476-7.622c5.649-2.514,9.349-4.285,11.096-5.312c0.82-1.129,2.232-1.795,4.237-2.002
			c2.004-0.205,3.724-0.819,5.163-1.848c1.438-1.025,3.647-1.949,6.628-2.771l6.164-3.234c0.308-0.204,0.563-0.308,0.77-0.308h2.158
			c0.717,0,1.797-0.562,3.236-1.693c1.439-1.129,2.928-1.949,4.47-2.464h1.848c0.205,0,0.512-0.255,0.924-0.771
			c0.412-0.513,1.338-1.179,2.776-2.002l0.462-0.308h1.54c1.131-0.924,2.466-1.694,4.008-2.31c1.54-0.616,3.029-1.438,4.468-2.465
			l12.022-4.619l2.774,0.309c0.616,0,1.41-0.486,2.387-1.463c0.977-0.975,3.262-1.975,6.859-3.002
			c0.512-0.82,1.59-1.795,3.236-2.926c1.643-1.129,3.594-2.771,5.856-4.928L114.268,170.962z M60.544,209.455l-2.161-0.309
			c-1.443,0.823-2.858,1.285-4.246,1.387c-1.391,0.104-3.551,1.054-6.484,2.849c-2.933,1.798-6.303,3.519-10.109,5.158
			c-3.806,1.644-5.709,2.721-5.709,3.233c5.042-0.616,10.29-2.002,15.744-4.157l11.113-3.08c1.439-0.408,2.442-0.82,3.01-1.231
			c0.565-0.408,1.672-0.975,3.318-1.693l2.471-1.848c0.512-0.205,1.643-0.615,3.392-1.231c1.749-0.615,2.625-1.231,2.625-1.849
			c0-0.408-0.207-0.615-0.616-0.615c-3.705,0-6.638,0.565-8.798,1.693C61.933,208.893,60.749,209.455,60.544,209.455z"/>
		<path d="M184.107,147.095l2.166,0.924c0.207-1.744,1.186-3.233,2.94-4.465h1.236c1.03,0,2.37-1.386,4.021-4.157l2.629-1.54
			c0.412,0.207,1.03,0.308,1.857,0.308c0.616,0,1.208-0.409,1.775-1.232c0.568-0.82,1.985-2.411,4.256-4.773h0.619
			c0.618,0,1.366-0.462,2.242-1.386c0.875-0.924,2.035-1.386,3.479-1.386l5.259-1.386c1.644-0.409,2.567-0.616,2.774-0.616
			c0.924-0.308,3.181,1.566,6.775,5.62c3.592,4.056,5.389,7.982,5.389,11.779c0,2.156-1.13,3.44-3.387,3.85l-0.77,0.616v3.079
			l-2.618,5.697c-0.719,1.54-1.592,2.517-2.617,2.926c-0.924,1.644-1.593,2.771-2.002,3.388l-2.156,0.308l-0.924,0.924v3.85
			c-0.924,1.231-2.259,3.927-4.003,8.084c-1.747,4.157-2.617,6.802-2.617,7.931c0,1.951,0.409,2.924,1.231,2.924
			c0.616,0,1.232-0.254,1.848-0.77c0.616-0.513,1.463-1.102,2.541-1.771c1.078-0.667,1.872-1.359,2.384-2.079
			c0.513-0.717,1.59-1.359,3.231-1.926c1.641-0.562,3.18-1.615,4.617-3.155s2.461-2.563,3.077-3.079
			c0.616-0.514,1.282-1.206,2.001-2.079c0.717-0.871,1.179-1.31,1.384-1.31c0.616,0,1.59-0.203,2.925-0.615
			c0.202-1.128,0.407-1.948,0.613-2.463l3.693-1.848l8.925-8.008l1.23-1.54c1.641-0.409,2.668-0.717,3.077-0.924
			c0.82-2.771,2.207-4.773,4.154-6.005c0-0.409,0.514-0.717,1.541-0.924c0.818-1.641,1.869-2.949,3.15-3.926
			c1.283-0.974,2.334-2.18,3.158-3.618l3.539-2.926c1.022-0.409,1.744-1.025,2.151-1.848c5.334-4.72,8.644-7.415,9.925-8.083
			c1.282-0.667,3.36-1.001,6.233-1.001c2.869,0,5.203,1.104,6.998,3.311c1.795,2.208,3.746,3.876,5.853,5.004
			c2.102,1.131,3.155,3.287,3.155,6.467c0,2.979-2.311,8.676-6.93,17.092c-2.979,8.829-4.518,14.242-4.619,16.244
			c-0.104,2.001-0.563,3.156-1.385,3.464c-0.822,0.309-1.232,0.669-1.232,1.078v0.616c0,2.463,0.41,3.694,1.232,3.694
			c0.615,0,1.463-0.513,2.541-1.539c1.076-1.025,3.254-2.155,6.533-3.389l1.381,0.309c2.965-4.517,4.959-6.952,5.984-7.313
			c1.021-0.358,2.045-1.282,3.065-2.771c1.023-1.486,2.277-2.283,3.763-2.387c1.479-0.102,2.43-0.358,2.838-0.771
			c0.102-2.464,2.119-5.235,6.059-8.314c3.938-3.08,6.215-4.619,6.83-4.619c1.021,0,1.84,0.77,2.453,2.309
			c0.613,1.541,1.254,2.594,1.918,3.157c0.664,0.565,0.998,1.054,0.998,1.463v2.771c0,1.335-0.666,2.208-1.996,2.617
			c-1.025,2.26-1.949,3.596-2.769,4.004l-2.764-0.309c-0.516,0.615-0.951,1.182-1.309,1.693c-0.359,0.516-0.59,0.719-0.691,0.615
			c-0.815,0.207-2.277,1.566-4.379,4.081c-2.1,2.517-3.969,4.595-5.607,6.235l-0.612,0.924c-0.82,0.615-1.588,1.027-2.306,1.232
			l-2.768,2.31c-1.023-0.616-1.639-0.924-1.842-0.924c-0.207,0-0.644,0.411-1.308,1.231c-0.666,0.822-2,1.873-3.996,3.155
			c-1.996,1.285-3.508,2.748-4.53,4.39l-2.457,2.463l-3.228,0.463c-0.309,0-0.82,0.461-1.537,1.386l-2.766,3.541
			c-1.332,1.747-3.434,2.618-6.301,2.618c-0.615,0-1.41-0.539-2.381-1.617c-0.973-1.078-1.896-2.002-2.766-2.771
			c-0.871-0.769-2.818-3.078-5.847-6.929c-3.028-3.851-4.537-5.875-4.537-6.082l0.924-5.39l-0.309-3.695
			c0-0.717,0.486-1.82,1.463-3.311c0.976-1.486,1.463-2.283,1.463-2.387l-0.309-6.006c0.204-0.203,0.409-0.513,0.616-0.924
			l2.154-3.541c-0.207-1.025-0.307-2.156-0.307-3.388l0.615-5.081c-1.848,0.823-3.467,2.489-4.853,5.004
			c-1.387,2.517-3.211,3.772-5.467,3.772c-1.953,3.491-3.443,5.185-4.469,5.082c-0.41,0.411-0.719,0.822-0.924,1.231l-2.154,1.231
			l-2.617-0.309l-0.928,3.85c-2.259,1.231-3.721,2.336-4.388,3.311c-0.669,0.979-1.72,1.979-3.157,3.003l-2.62,2.464h-2.464
			c-0.411,2.771-2.004,5.081-4.775,6.93l-1.232,1.539l-2.771-0.309c-1.027,3.286-2.312,5.288-3.852,6.005
			c-1.747,0-4.133,1.593-7.162,4.772c-3.029,3.185-5.158,4.773-6.39,4.773c-8.935,0-16.172-5.594-21.715-16.783
			c-0.207-0.408-0.693-1.179-1.463-2.31c-0.77-1.129-1.155-2.873-1.155-5.235c0-4.003,0.539-6.722,1.617-8.16
			c1.078-1.437,2.463-4.131,4.157-8.084c1.693-3.951,2.949-5.67,3.772-5.158c0.204-0.409,0.308-1.025,0.308-1.849
			c1.641-1.948,2.464-3.438,2.464-4.465c0-0.408-0.207-0.615-0.616-0.615c-0.207,0-0.823,0.308-1.848,0.924l-2.165,0.924
			c-0.929,0.207-1.6,0.615-2.011,1.231c-0.414,0.616-1.136,1.208-2.168,1.771c-1.032,0.565-1.857,1.054-2.473,1.463h-0.464
			c-0.621-0.615-1.032-0.924-1.239-0.924c-0.621,1.644-1.136,2.671-1.547,3.079l-1.857,0.309c-2.271,2.362-3.715,3.541-4.333,3.541
			c-0.414,0-1.343-0.358-2.786-1.077c-1.443-0.718-2.166-1.437-2.166-2.156l1.083-6.005v-2.771c0-0.204,0.411-0.616,1.236-1.231
			c0.207,0,1.032-1.103,2.476-3.311C180.448,148.2,182.149,147.095,184.107,147.095z"/>
		<path d="M355.902,134.777l2.311-0.616l0.924-2.002c5.027-2.976,8.623-5.798,10.779-8.469c0.205-0.409,0.668-0.82,1.387-1.231
			c0.717-0.409,1.486-1.128,2.312-2.156c3.795-3.796,8.313-5.697,13.549-5.697c6.158,0,9.443,3.749,9.854,11.24l0.925,2.31
			c0.821,1.438,1.977,4.364,3.465,8.777c1.488,4.415,2.231,7.136,2.231,8.161c0,2.771-0.873,5.543-2.616,8.314
			c-1.438,0.72-4.878,4.568-10.316,11.548l-1.539,1.078c-0.822,1.848-1.9,3.694-3.234,5.543c-2.055,0.72-3.078,1.489-3.078,2.31
			v2.771c0,0.207-0.231,0.615-0.692,1.232c-0.463,0.615-1.105,1.797-1.926,3.541l-1.23,1.848c-0.412,0.412-0.824,1.259-1.231,2.541
			c-0.412,1.283-1,2.438-1.771,3.464c-0.77,1.026-1.154,1.849-1.154,2.464c0,1.54,2.002,2.311,6.007,2.311
			c0.202,0,0.975-0.309,2.309-0.925l2.156,0.616c0.205,0,0.717-0.332,1.539-1.001c0.819-0.666,2.08-1.205,3.772-1.616
			c1.693-0.408,3.18-1.025,4.465-1.849c1.283-0.82,2.822-1.539,4.617-2.155c1.795-0.615,3.517-1.615,5.158-3.003
			c1.641-1.386,3.258-2.386,4.85-3.002c1.59-0.616,3.08-1.563,4.465-2.849c1.388-1.282,2.951-2.487,4.697-3.618
			c1.744-1.13,4.517-3.593,8.314-7.392c2.461-1.949,4.153-3.026,5.078-3.233c0.205,0,1.102-1.358,2.694-4.08
			c1.59-2.718,3.412-4.08,5.468-4.08c2.153,0,3.231,1.027,3.231,3.079c0,1.131-0.514,2.209-1.539,3.233v0.924l0.308,2.464
			c0.204,0.309,0.309,0.771,0.309,1.386c0,0.411-0.385,1.026-1.154,1.849s-1.309,1.873-1.617,3.156
			c-0.309,1.284-1.28,2.131-2.924,2.54c-0.615,2.259-1.412,3.541-2.385,3.851c-0.979,0.308-2.338,1.334-4.082,3.078
			c-1.746,1.747-4.209,3.799-7.391,6.159c-3.181,2.362-5.361,4.185-6.541,5.466c-1.183,1.285-1.979,1.926-2.388,1.926
			c-0.207,0-0.614-0.205-1.231-0.615c-0.615-0.409-1.027-0.616-1.23-0.616c-0.617,0-1.024,0.72-1.229,2.155l-0.615,1.539
			c-1.336,0.824-2.104,1.231-2.311,1.231l-0.925-0.308h-0.614c-1.232,0-1.849,0.462-1.849,1.386l0.924,1.54v0.309
			c0,1.438-0.821,2.155-2.463,2.155c-1.131,0-4.416,1.9-9.854,5.696l-4.465,0.924l-3.693,2.002
			c-1.229-0.717-2.002-1.078-2.309-1.078l-2.465,0.771l-4.466,0.308c-0.104,0-1.977-1.024-5.618-3.079
			c-3.644-2.053-5.824-4.104-6.544-6.158c-0.719-2.054-1.643-4.132-2.771-6.236c-1.131-2.104-1.693-3.565-1.693-4.389
			c0-4.928,0.41-8.441,1.232-10.548c0.82-2.103,1.332-3.669,1.539-4.696c0.205-1.023,0.795-2.129,1.771-3.311
			c0.976-1.179,1.771-3.104,2.388-5.773c2.977-5.951,5.026-9.598,6.157-10.933c1.13-1.333,2.002-2.977,2.617-4.928l2.002-2.771
			c0.205-0.205,0.515-1.001,0.924-2.387c0.41-1.386,0.925-2.18,1.541-2.387c0.82-1.436,1.23-2.36,1.23-2.771
			c0-2.976-1.334-4.465-4.002-4.465c-0.516,0-1.078,0.539-1.695,1.617c-0.615,1.078-2.026,2.132-4.233,3.157
			c-2.207,1.027-3.566,1.797-4.08,2.31c-0.515,0.515-1.619,1.155-3.312,1.925c-1.692,0.77-3.156,1.978-4.389,3.618l-2.617,1.231
			c-0.822,1.951-1.541,3.029-2.158,3.234c-0.615,0.207-2.516,0.719-5.696,1.539c-0.207,0.104-0.72,0.72-1.541,1.848
			c-0.824,1.131-2.003,1.693-3.543,1.693c-1.23,1.232-2.466,2.671-3.697,4.312c-0.41,0-1.488,0.412-3.232,1.232l-3.082,0.77
			c-0.823,0.616-1.721,1.593-2.694,2.926c-0.978,1.335-2.798,2.002-5.47,2.002c-1.539,0-2.309-1.231-2.309-3.694
			c0-5.028,1.77-9.033,5.312-12.012c3.541-2.977,6.132-4.566,7.775-4.773c1.643-0.205,2.67-0.82,3.082-1.848
			c0.408-1.025,1.408-1.872,3.002-2.541c1.59-0.667,3.438-2.156,5.543-4.465c2.104-2.31,4.389-3.874,6.853-4.696L355.902,134.777z"
			/>
		<path d="M418.758,250.721l1.541-3.388l0.924-3.849c0-0.412,0.488-1.027,1.463-1.849c0.978-0.823,1.464-1.54,1.464-2.155
			c2.463-9.547,4.979-16.066,7.543-19.556l3.696-9.237c0.41-2.054,1.361-3.695,2.849-4.929c1.487-1.231,2.231-2.31,2.231-3.233
			c0-0.615-1.051-1.512-3.156-2.693c-2.104-1.18-3.155-2.283-3.155-3.311c0-1.025,3.387-3.026,10.162-6.006
			c0-2.873,1.539-5.9,4.618-9.084c0.718-0.615,1.078-1.334,1.078-2.156c0-2.463,0.513-4.465,1.539-6.004l1.232-3.543
			c0.408-1.23,1.256-2.591,2.541-4.08c1.281-1.487,1.924-2.949,1.924-4.389v-1.231c-1.336-0.102-3.232,1.644-5.697,5.235
			c-2.565,0-4.672,1.9-6.312,5.697c-0.822,2.155-2.722,3.541-5.697,4.157c-1.332,2.463-3.541,4.157-6.621,5.081
			c-2.18-1.333-3.27-2.465-3.27-3.389l1.389-9.545c0-2.157,5.242-7.547,15.723-16.169c0.615,0,2.619-1.949,6.013-5.851l8.479-9.546
			c4.623-4.619,8.117-8.007,10.48-10.162c4.412-6.979,6.621-11.599,6.621-13.858c2.051-1.848,3.821-5.671,5.311-11.471
			c1.488-5.798,2.873-10.008,4.158-12.626c1.281-2.618,2.024-4.542,2.231-5.774c4.104-12.419,7.134-20.221,9.084-23.404l1.541-5.082
			l2.31-1.848c0.205-0.512,0.41-2.103,0.617-4.773c1.127-0.409,2.309-2.668,3.541-6.775c1.229-4.104,2.463-6.929,3.694-8.469
			c1.23-1.54,2.052-3.157,2.463-4.85c0.41-1.694,1.668-3.388,3.773-5.082c2.102-1.693,4.234-2.541,6.389-2.541
			c0.717,0,1.927,1.054,3.619,3.157c1.693,2.105,2.719,4.518,3.08,7.237c0.357,2.721,0.639,4.568,0.846,5.543
			c0.205,0.977,0.31,2.286,0.31,3.926l0.309,4.465c0,0.823-0.412,3.44-1.231,7.853c-0.822,4.415-1.412,7.571-1.771,9.469
			c-0.36,1.901-1.412,3.157-3.156,3.772c-1.745,0.616-2.616,1.232-2.616,1.848s0.407,1.104,1.231,1.463
			c0.82,0.361,1.23,0.642,1.23,0.847c0,0.412-0.593,1.771-1.771,4.081c-1.182,2.31-2.287,3.772-3.311,4.388
			c0.615,1.232,0.924,1.951,0.924,2.156c0,0.515-0.746,2.131-2.232,4.85c-1.489,2.721-2.694,4.542-3.619,5.466
			c-0.924,0.924-1.848,3.029-2.771,6.313c-0.924,3.286-3.287,6.058-7.082,8.314c-1.438,1.439-2.695,3.799-3.773,7.083
			c-1.077,3.286-2.645,5.338-4.694,6.159l-2.002,2.926v0.616c0,1.54-0.517,3.233-1.541,5.082c-1.027,1.848-2.056,4.03-3.078,6.544
			c-1.027,2.516-2.002,4.184-2.926,5.004c-0.412,2.363-1.131,4.492-2.156,6.39c-1.027,1.9-1.644,3.568-1.848,5.004l-1.078,1.232
			c-2.056,0.308-3.078,1.284-3.078,2.926l0.615,3.388c0,0.104-0.925,1.797-2.771,5.081l-0.617,3.079
			c-0.514,2.567-1.487,4.287-2.924,5.158c-1.438,0.873-2.363,2.799-2.771,5.774l-0.617,3.694c0,0.207,0.102,0.516,0.309,0.924
			c0.205,0,0.82-0.562,1.849-1.692c1.434,0.515,2.254,0.771,2.461,0.771c0.614,0,1.204-0.437,1.768-1.31
			c0.564-0.871,1.461-1.514,2.693-1.925l0.614-0.309c0.515-1.437,1.283-2.207,2.308-2.311c1.024-0.102,1.897-0.589,2.615-1.462
			c0.719-0.871,1.282-1.31,1.694-1.31c0.203,0,0.924,0.412,2.154,1.231h0.309l1.383-0.616l-0.307-2.464
			c0-1.024,0.459-1.692,1.383-2.001s1.59-0.82,2.002-1.54l5.693-3.695c2.459-1.025,4.281-2.13,5.459-3.311
			c1.18-1.179,2.463-2.026,3.848-2.541c1.388-0.513,2.461-1.155,3.23-1.925c0.771-0.77,2.488-1.256,5.156-1.463
			c2.975-2.564,5.282-4.312,6.924-5.235l1.231-1.693c0.205-0.205,0.613-0.409,1.229-0.616c0.617-0.205,1.41-0.82,2.385-1.848
			c0.976-1.025,1.871-1.54,2.695-1.54c2.049,0,3.076,1.027,3.076,3.08c0,3.387-1.539,6.108-4.613,8.161l-0.31,0.462
			c-0.512,4.106-1.795,6.159-3.846,6.159c-0.41,0-1.127,0.873-2.151,2.617c-1.13-0.204-1.796-0.308-2-0.308
			c-0.82,1.231-1.845,2.362-3.076,3.387h-0.922c-1.642,0-8.254,4.772-19.843,14.319c-0.614,0.616-1.127,1.027-1.536,1.231
			l-2.923-0.308c0,0.207-0.616,1.23-1.846,3.078c-1.539,0.517-3.229,1.489-5.078,2.926c-1.848,1.438-3.207,2.363-4.078,2.771
			c-0.873,0.411-1.67,1.104-2.387,2.079c-0.721,0.978-1.693,1.669-2.926,2.078l-2.002,1.849h-0.924
			c-0.822,0-1.824,0.514-3.002,1.539c-1.183,1.027-1.771,2.002-1.771,2.926c0,0.412,0.463,1.231,1.387,2.463
			c0.82-0.614,3.695,2.49,8.621,9.316c4.928,6.827,7.392,13.369,7.392,19.633c0,4.618-0.695,7.62-2.08,9.006
			c-1.388,1.387-2.078,2.388-2.078,3.004c0,0.408,0.153,1.59,0.463,3.541v0.615c0,1.025-0.592,1.642-1.771,1.849
			c-1.182,0.204-1.875,0.616-2.079,1.23v3.851l-0.615,1.848c-1.336,0.717-2.722,3.13-4.16,7.237
			c-3.08,3.181-5.287,4.978-6.621,5.389l-0.307,0.616l0.307,4.156c0,1.025-0.463,1.849-1.387,2.465
			c-0.926,0.615-2.185,1.925-3.773,3.926c-1.592,2.002-3.209,3.412-4.854,4.234c-0.41,1.949-1.207,3.334-2.386,4.156
			c-1.182,0.821-2.387,2.002-3.618,3.543l-0.927,0.615c-0.924,0.204-1.797,1.332-2.618,3.387l-1.23,0.31
			c-1.439,2.463-2.852,4.233-4.236,5.312c-1.387,1.078-2.387,2.08-3.004,3.004l-2.463,1.539c-0.924,1.849-2.822,3.95-5.699,6.312
			c-0.205,0-0.616-0.309-1.231-0.924h-0.461c-0.41,0-0.771,0.408-1.078,1.23c-0.31,0.821-0.871,1.592-1.693,2.311
			c-0.819,0.718-1.643,1.744-2.465,3.08l-0.615,0.615c-1.334,0-3.438,1.795-6.312,5.389c-1.949,0.41-3.644,1.129-5.082,2.156
			c-2.156,2.463-3.644,3.695-4.465,3.695c-0.103,0-1.232-0.848-3.39-2.541c-2.153-1.693-3.231-4.389-3.231-8.084
			c0-0.924-0.615-2.001-1.849-3.232c-0.204-1.131-0.409-2.771-0.614-4.928v-1.386c0-1.231,0.41-2.671,1.229-4.312l0.924-3.233
			c0.207-0.823,0.517-1.489,0.925-2.002c0.411-0.515,1.002-1.978,1.771-4.39c0.771-2.412,1.67-4.799,2.693-7.158l0.309-1.54
			c1.131-4.927,2.055-7.341,2.771-7.236c0.614-1.54,1.231-3.595,1.848-6.159c0.617-2.566,1.055-4.673,1.309-6.312
			c0.259-1.643,1.002-2.979,2.232-4.003L418.758,250.721z M450.664,221.157l0.617,6.62c0,0.41-0.849,2.388-2.541,5.929
			c-1.693,3.542-2.799,6.392-3.312,8.546c-0.516,2.156-1.643,3.232-3.387,3.232h-1.541c-0.207,0.41-0.307,0.82-0.307,1.232
			l0.307,3.387c0,1.334-0.359,3.696-1.078,7.084c-0.717,3.388-1.744,5.543-3.078,6.467l-0.924,1.078
			c-0.205,1.539-1.002,3.977-2.387,7.313c-1.387,3.334-2.541,5.951-3.465,7.853c-0.925,1.898-1.642,4.259-2.156,7.084
			c-0.512,2.82-1.178,4.643-2.002,5.466c-0.615,2.872-1.23,5.259-1.848,7.159c-0.615,1.897-1.386,4.438-2.31,7.621
			c0.207,0.41,0.514,0.617,0.924,0.617c0.615,0,1.386-1.132,2.31-3.389c0.412-0.411,1.104-0.691,2.08-0.848
			c0.977-0.153,1.821-1.258,2.539-3.311l0.309-0.615c1.131-0.207,1.951-0.797,2.465-1.771c0.514-0.977,1.076-1.566,1.693-1.771
			c0.614-0.207,1.334-0.72,2.153-1.539l1.078-0.309c0.412-0.207,0.771-0.77,1.078-1.693c0.309-0.923,0.67-1.644,1.078-2.156h2.156
			l0.615-0.308c0.819-3.286,1.819-5.415,3.002-6.391c1.18-0.978,2.08-2.132,2.694-3.464c0.615-1.335,1.359-2.362,2.232-3.08
			c0.871-0.719,1.514-2.055,1.924-4.003c1.848-2.155,3.029-3.851,3.545-5.081c0.512-1.23,1.232-2.26,2.158-3.08l0.309-1.077
			l-0.618-1.848v-0.616c0-0.822,1.204-2.875,3.62-6.159c2.412-3.286,3.929-6.03,4.546-8.237c0.614-2.209,1.18-3.979,1.694-5.312
			c0.512-1.335,0.924-2.849,1.232-4.542c0.307-1.693,0.871-3.08,1.692-4.157c0.822-1.077,1.234-2.541,1.234-4.389
			c0-3.183-1.439-7.185-4.314-12.011c-0.207-0.204-0.409-0.819-0.614-1.848c-0.207-1.025-1.207-2.231-3.006-3.617
			c-1.8-1.387-3.107-2.08-3.929-2.08l-1.231,0.617c-0.207,0.207-0.851,0.514-1.927,0.924c-1.077,0.41-1.616,1.386-1.616,2.925v0.616
			l0.307,3.388C454.67,218.54,453.336,219.723,450.664,221.157z"/>
	</g>
</g>
<g id="Layer_3">
	<g>
		<g>
			<path d="M53.738,197.842c-9.482,7.137-26.435,4.028-32.897,15.396c-0.91,1.601,0.229,3.824,2.159,3.762
				c6.508-0.213,12.358-2.218,18.262-4.842c2.941-1.307,0.396-5.614-2.523-4.316C33.65,210.104,28.614,211.816,23,212
				c0.72,1.254,1.439,2.508,2.159,3.762c2.844-5.003,9.839-6.183,14.958-7.492c5.522-1.414,11.498-2.611,16.146-6.11
				C58.804,200.245,56.317,195.9,53.738,197.842L53.738,197.842z"/>
		</g>
	</g>
	<g>
		<g>
			<path d="M302.335,177.089c-2.765,0.586-5.34,1.884-7.103,4.144c-0.838,1.074-1.053,2.484,0,3.535
				c0.873,0.875,2.694,1.076,3.535,0c1.301-1.668,2.854-2.425,4.896-2.855c1.333-0.283,2.091-1.822,1.746-3.076
				C305.033,177.464,303.667,176.809,302.335,177.089L302.335,177.089z"/>
		</g>
	</g>
	<g>
		<g>
			<path d="M436.5,286c0.051,1.846,0.323,3.5-0.658,5.238c-1.596,2.824,2.569,5.214,4.316,2.523c1.866-2.873,3.947-5.4,5.253-8.598
				c0.938-2.303-2.623-4.303-4.179-2.434c-6.463,7.767-11.031,18.492-20.494,23.109c1.254,0.719,2.508,1.438,3.762,2.158
				c0.056-1.613,0.319-2.02,1.268-3.232c-1.423-0.589-2.845-1.179-4.268-1.768c0.077-0.256,0.155-0.512,0.232-0.768
				c-2.114,2.414,1.152,5.742,3.534,3.535c1.864-1.728,3.944-3.121,5.994-4.609c2.583-1.873,0.093-6.215-2.522-4.316
				c-2.397,1.738-4.828,3.373-7.006,5.391c1.179,1.18,2.355,2.356,3.534,3.535c0.808-0.922,1.081-1.557,1.232-2.768
				c0.262-2.092-2.975-3.424-4.268-1.768c-1.771,2.265-2.632,3.83-2.732,6.768c-0.069,2.02,2.144,2.947,3.762,2.158
				c9.992-4.875,14.713-15.728,21.506-23.891c-1.393-0.812-2.784-1.621-4.179-2.434c-1.116,2.734-3.154,4.949-4.747,7.402
				c1.438,0.842,2.878,1.684,4.316,2.523c1.454-2.574,1.423-4.852,1.342-7.762C441.411,282.782,436.41,282.773,436.5,286L436.5,286z
				"/>
		</g>
	</g>
</g>
<g id="Layer_2">
	<g>
		<path fill="#FFFFFF" d="M107.268,163.962l1.234-3.08l4.006-4.465c2.055-3.388,3.749-5.39,5.086-6.005
			c0.205-0.82,0.513-1.59,0.924-2.31c0.409-0.717,0.717-1.848,0.924-3.387l1.386-2.464c0.409-0.409,0.616-0.717,0.616-0.924
			c0-0.205-0.412-0.82-1.232-1.848l-0.77-3.233c0-0.82-2.723-3.542-8.166-8.161h-1.234l-11.096-5.389l-0.618-1.54l-1.232-0.308
			l-1.542,0.616h-0.308l-5.24-1.54c-4.213-1.128-6.987-2.002-8.322-2.618c-0.207,0.207-0.515,0.308-0.924,0.308l-6.167-1.386
			c-1.747-0.409-2.8-0.847-3.159-1.309c-0.361-0.462-1.234-0.924-2.62-1.386c-1.388-0.462-2.288-0.897-2.697-1.309
			c-0.412-0.409-1.234-0.616-2.466-0.616l-3.854,0.924c0-0.308-1.439-0.82-4.314-1.54c-0.414-1.025-0.722-1.54-0.926-1.54
			l-4.467,0.616c-2.981-1.437-4.523-2.156-4.625-2.156c-0.515,0-2.314-0.282-5.394-0.847c-3.08-0.563-5.082-1.155-6.005-1.771
			c-0.924-0.616-2.31-1.232-4.157-1.848l-0.924-0.924c-0.207-0.205-0.77-0.409-1.694-0.616H24.52c-0.616,0-1.463-0.513-2.541-1.54
			c-1.078-1.025-2.463-2.052-4.157-3.08c-1.694-1.025-3.183-2.642-4.465-4.85c-1.285-2.206-1.978-4.439-2.079-6.698
			c-0.207-0.205-0.308-0.409-0.308-0.616l0.924-4.927c0.924-6.26,3.85-12.061,8.777-17.399c0.82-2.771,2.514-4.773,5.081-6.005
			l0.616-2.156c2.976-2.565,5.105-4.62,6.39-6.159c1.282-1.54,2.745-2.795,4.388-3.772c1.641-0.974,2.926-1.872,3.85-2.694
			l2.788-1.232c-0.104-0.924,2.185-3.104,6.867-6.544c4.682-3.438,8.332-5.697,10.949-6.775c2.618-1.078,4.362-1.872,5.235-2.387
			c0.871-0.512,3.412-1.282,7.622-2.31c1.025-2.771,2.668-4.157,4.927-4.157h2.31l3.08-3.08l4.157,0.308
			c0.205-0.205,0.77-0.847,1.694-1.925c0.924-1.078,2.464-1.617,4.619-1.617l18.631-5.697h1.232l1.231,0.308
			c0.82,0,1.872-0.717,3.157-2.156c1.282-1.436,2.95-2.156,5.004-2.156c0.409,0,1.179,0.412,2.31,1.232
			c0,0.207,0.101,0.308,0.308,0.308l4.003-1.232l4.773,0.308l6.005-1.54c3.796,0,7.133,0.924,10.008,2.771l0.308-0.616V2.903
			c0-1.744,0.974-2.618,2.925-2.618c0.82,0,1.333,0.207,1.54,0.616l1.848,1.078h1.078c0.205,0,1.54,0.616,4.003,1.848
			c1.54-1.025,2.514-1.54,2.926-1.54c1.949,0,3.488,0.823,4.619,2.463l2.618-0.308c0.82-0.82,1.333-1.231,1.54-1.231
			c0.616,0,1.437,0.823,2.464,2.463l0.924,0.308h3.849c0.205,0,0.616,0.308,1.232,0.924l1.694,1.386
			c0.82,0.823,1.386,1.489,1.693,2.001c0.308,0.515,0.667,0.977,1.078,1.386c2.668-1.128,4.104-1.693,4.311-1.693
			c1.025,0,1.795,0.873,2.31,2.617c0,1.439,0.897,2.849,2.695,4.234c1.795,1.386,2.694,2.849,2.694,4.389
			c2.257,1.027,3.388,2.67,3.388,4.927l2.925,7.544l-0.616,2.618c0.82,1.643,1.232,2.567,1.232,2.771l-0.616,5.697l0.616,6.005
			c0,3.183-1.489,5.904-4.465,8.161c-0.616,0-1.617,0.438-3.002,1.309c-1.386,0.873-2.182,1.309-2.387,1.309
			c-2.67,0-4.441-0.64-5.312-1.925c-0.874-1.282-1.72-2.232-2.541-2.848c-0.823-0.616-1.232-1.437-1.232-2.464
			c0-2.36,1.59-4.67,4.773-6.929c1.437,0,2.464-0.462,3.08-1.386c0-2.156-0.462-3.643-1.386-4.465
			c-0.924-0.82-1.925-1.949-3.002-3.388c-1.078-1.436-2.232-2.591-3.464-3.464c-1.232-0.871-2.233-1.975-3.002-3.312
			c-0.77-1.333-1.463-2.001-2.079-2.001l-2.155,0.308l-4.465-0.924c-4.723-0.616-9.034-1.693-12.934-3.233h-3.08l-8.314-1.232
			c-1.439,0.616-3.491,0.924-6.159,0.924l-10.162,1.54l-4.158-0.308c-0.308,0-3.132,0.874-8.468,2.618l-1.54,0.308h-4.157
			c-0.207,0-1.516,0.515-3.926,1.54c-2.413,1.027-4.441,1.747-6.082,2.156l-1.386,0.616c-0.207,0.207-0.515,0.308-0.924,0.308
			l-2.464-0.308l-13.55,6.621l-2.156-1.232c-1.747-0.82-2.721-1.231-2.925-1.231c-1.439,0-2.156,0.719-2.156,2.155l-0.308,2.926
			c-1.335,0.823-2.208,1.438-2.617,1.848c-0.412,0.411-0.924,0.719-1.54,0.924h-1.848c-1.232,0-2.387,0.539-3.464,1.617
			c-1.077,1.078-2.028,1.67-2.849,1.771c-0.823,0.104-2.001,0.565-3.542,1.386c-0.207,0.411-1.027,0.823-2.463,1.231
			c-1.439,0.412-2.541,1.362-3.311,2.849c-0.77,1.489-1.67,2.233-2.695,2.233l-3.079-0.616l-1.694,3.08
			c-2.156,0.515-3.388,0.823-3.695,0.924c-1.335,1.747-2.671,3.08-4.003,4.003c-1.335,0.924-2.644,1.925-3.926,3.002
			c-1.285,1.078-2.209,2.182-2.772,3.311c-0.565,1.131-1.412,2.028-2.541,2.694c-1.131,0.669-2.105,2.028-2.925,4.081l-1.54,1.54
			c-2.567,2.156-3.849,4.465-3.849,6.929c0,1.747,1.232,3.029,3.695,3.849c2.463,0.823,4.003,1.489,4.619,2.002
			c0.616,0.515,1.54,0.77,2.771,0.77c1.232,0,2.411,0.258,3.542,0.77c1.128,0.515,3.027,1.335,5.697,2.464
			c0.512,1.643,1.025,2.463,1.54,2.463c0.205,0,0.616-0.409,1.232-1.232c0.616-0.82,1.538-1.231,2.769-1.231
			c1.333,0,2.618,0.823,3.85,2.463l1.229-0.924H58.9l2.001,0.616h0.308l1.848-0.924c0.205-0.204,0.513-0.308,0.921-0.308
			c0.308,0,1.898,0.515,4.773,1.54h0.308c0.204,0,1.025-0.205,2.461-0.616c1.54,0.411,2.411,0.719,2.618,0.924l2.153,1.231
			c0,0.308,0.205,0.462,0.616,0.462c0.409,0,1.025-0.231,1.848-0.693c0.82-0.462,1.59-0.693,2.31-0.693
			c0.818,0,1.742,0.565,2.77,1.694c1.641-0.717,2.564-1.078,2.771-1.078c0.921,0,2.512,0.77,4.771,2.31l2.923,0.616h3.387
			l5.079,0.924c1.434,1.54,2.923,2.721,4.463,3.542c0.205-1.128,0.924-1.694,2.156-1.694c1.641,0,4.152,0.669,7.54,2.002
			l1.232,0.308l1.232,0.924c1.744-0.409,2.822-0.616,3.231-0.616c2.052,0,3.08,0.72,3.08,2.156c0,1.232-0.308,2.825-0.924,4.773
			c0.205,0,0.512,0.207,0.924,0.616c0.513-0.616,1.078-1.025,1.694-1.232l2.461-1.386c0.409-0.409,0.717-0.616,0.924-0.616
			c2.358,0,5.695,1.643,10.006,4.927c4.311,3.286,6.775,7.032,7.391,11.24c0,1.231,0.409,2.67,1.232,4.311l-0.616,2.002l0.308,2.463
			c0,0.207-0.207,0.924-0.616,2.156l-0.308,2.31c-0.207,0.412-0.515,0.77-0.924,1.078c-0.412,0.308-0.719,0.669-0.924,1.078
			l0.924,2.618v0.616c0,0.412-0.385,0.977-1.155,1.694c-0.77,0.719-1.258,1.386-1.463,2.001c-0.207,0.616-0.565,1.258-1.078,1.924
			c-0.515,0.67-0.874,1.463-1.078,2.388c-0.207,0.923-1.208,1.977-3.002,3.156c-1.797,1.181-2.694,2.078-2.694,2.694
			c0,0.616,0.205,0.924,0.616,0.924c1.229,0,2.536-0.59,3.922-1.771c1.383-1.179,2.435-1.872,3.151-2.079
			c0.717-0.204,1.946-0.82,3.69-1.848l14.457-6.775c10.764-5.132,16.759-7.699,17.991-7.699c1.641,0,2.461,0.823,2.461,2.464
			c0,0.616-0.719,1.797-2.155,3.541c-0.207,4.826-2.31,7.648-6.313,8.469c-1.54,1.027-2.721,2.105-3.539,3.233h-1.232
			c-2.567,2.875-5.493,4.312-8.777,4.312h-0.924c-3.799,3.798-8.418,5.904-13.855,6.312c-3.595,3.595-6.571,5.39-8.931,5.39
			l-2.464,0.616c-2.567,1.027-4.364,1.539-5.389,1.539c-0.207,0-0.616,0.412-1.231,1.232l-2.308,1.692
			c-1.951,0.411-4.056,1.54-6.313,3.388c-2.259,1.849-3.979,2.901-5.158,3.156c-1.181,0.258-2.439,0.693-3.772,1.309
			c-1.335,0.617-6.725,4.107-16.165,10.472l-2.002,0.616c-4.003,1.848-6.52,3.363-7.545,4.541c-1.027,1.182-2.259,2.183-3.693,3.002
			h-0.616c-2.363,0-5.134,1.541-8.315,4.621c-0.207,0.515-2.439,1.36-6.698,2.539c-4.261,1.18-8.341,3.004-12.239,5.467
			c-2.463,0.615-5.493,1.437-9.084,2.464c-3.594,1.024-6.212,1.641-7.853,1.848l-10.776,2.31c-2.363,0.41-5.082,1.025-8.161,1.849
			c-1.848-0.615-3.438-0.924-4.771-0.924l-2.771,0.309c-0.412,0-1.054-0.36-1.925-1.077c-0.874-0.721-2.028-1.412-3.464-2.08
			c-1.439-0.668-2.156-2.438-2.156-5.312c0-2.567,2.825-5.104,8.476-7.622c5.649-2.514,9.349-4.285,11.096-5.312
			c0.82-1.127,2.232-1.793,4.237-2c2.004-0.205,3.724-0.82,5.163-1.849c1.438-1.024,3.647-1.948,6.628-2.771l6.164-3.234
			c0.308-0.204,0.563-0.308,0.77-0.308h2.158c0.717,0,1.797-0.562,3.236-1.693c1.439-1.129,2.928-1.948,4.47-2.464h1.848
			c0.205,0,0.512-0.255,0.924-0.77c0.412-0.514,1.338-1.18,2.776-2.002l0.462-0.309h1.54c1.131-0.924,2.466-1.693,4.008-2.311
			c1.54-0.615,3.029-1.437,4.468-2.463l12.022-4.619l2.774,0.308c0.616,0,1.41-0.485,2.387-1.463
			c0.977-0.976,3.262-1.976,6.859-3.002c0.512-0.82,1.59-1.795,3.236-2.927c1.643-1.129,3.594-2.771,5.856-4.928L107.268,163.962z
			 M53.544,202.455l-2.161-0.309c-1.443,0.823-2.858,1.285-4.246,1.387c-1.391,0.104-3.551,1.054-6.484,2.849
			c-2.933,1.798-6.303,3.519-10.109,5.158c-3.806,1.644-5.709,2.721-5.709,3.233c5.042-0.616,10.29-2.002,15.744-4.157l11.113-3.08
			c1.439-0.408,2.442-0.82,3.01-1.231c0.565-0.408,1.672-0.975,3.318-1.693l2.471-1.848c0.512-0.205,1.643-0.615,3.392-1.231
			c1.749-0.615,2.625-1.231,2.625-1.849c0-0.408-0.207-0.615-0.616-0.615c-3.705,0-6.638,0.565-8.798,1.693
			C54.933,201.893,53.749,202.455,53.544,202.455z"/>
		<path fill="#FFFFFF" d="M177.107,140.095l2.166,0.924c0.207-1.744,1.186-3.233,2.94-4.465h1.236c1.03,0,2.37-1.386,4.021-4.157
			l2.629-1.54c0.412,0.207,1.03,0.308,1.857,0.308c0.616,0,1.208-0.409,1.775-1.232c0.568-0.82,1.985-2.411,4.256-4.773h0.619
			c0.618,0,1.366-0.462,2.242-1.386c0.875-0.924,2.035-1.386,3.479-1.386l5.259-1.386c1.644-0.409,2.567-0.616,2.774-0.616
			c0.924-0.308,3.181,1.566,6.775,5.62c3.592,4.056,5.389,7.982,5.389,11.779c0,2.156-1.13,3.44-3.387,3.85l-0.77,0.616v3.08
			l-2.618,5.697c-0.719,1.54-1.592,2.517-2.617,2.926c-0.924,1.644-1.593,2.771-2.002,3.388l-2.156,0.308l-0.924,0.924v3.85
			c-0.924,1.231-2.259,3.928-4.003,8.084c-1.747,4.157-2.617,6.801-2.617,7.93c0,1.951,0.409,2.926,1.231,2.926
			c0.616,0,1.232-0.256,1.848-0.771c0.616-0.513,1.463-1.102,2.541-1.771c1.078-0.667,1.872-1.359,2.384-2.079
			c0.513-0.718,1.59-1.359,3.231-1.925c1.641-0.562,3.18-1.616,4.617-3.156s2.461-2.564,3.077-3.079
			c0.616-0.513,1.282-1.206,2.001-2.079c0.717-0.871,1.179-1.309,1.384-1.309c0.616,0,1.59-0.204,2.925-0.616
			c0.202-1.128,0.407-1.948,0.613-2.463l3.693-1.848l8.925-8.007l1.23-1.54c1.641-0.409,2.668-0.717,3.076-0.924
			c0.82-2.771,2.207-4.773,4.154-6.005c0-0.409,0.514-0.717,1.542-0.924c0.818-1.641,1.869-2.949,3.15-3.926
			c1.283-0.974,2.334-2.18,3.158-3.618l3.539-2.926c1.023-0.409,1.744-1.025,2.152-1.848c5.333-4.72,8.643-7.415,9.924-8.083
			c1.282-0.667,3.36-1.001,6.233-1.001c2.869,0,5.203,1.104,6.998,3.311c1.795,2.208,3.746,3.876,5.853,5.004
			c2.103,1.131,3.155,3.287,3.155,6.467c0,2.979-2.311,8.675-6.93,17.092c-2.979,8.829-4.518,14.242-4.619,16.244
			c-0.104,2.001-0.563,3.156-1.385,3.464c-0.822,0.31-1.232,0.669-1.232,1.078v0.616c0,2.463,0.41,3.695,1.232,3.695
			c0.615,0,1.463-0.514,2.541-1.541c1.076-1.024,3.254-2.154,6.533-3.388l1.381,0.31c2.965-4.518,4.959-6.953,5.984-7.314
			c1.021-0.357,2.045-1.282,3.066-2.771c1.022-1.486,2.276-2.283,3.762-2.387c1.479-0.101,2.43-0.358,2.838-0.77
			c0.102-2.464,2.119-5.235,6.059-8.314c3.938-3.08,6.215-4.62,6.83-4.62c1.021,0,1.84,0.77,2.453,2.31
			c0.613,1.541,1.254,2.593,1.918,3.157c0.664,0.565,0.998,1.054,0.998,1.463v2.771c0,1.335-0.666,2.208-1.996,2.617
			c-1.025,2.26-1.949,3.595-2.768,4.004l-2.765-0.309c-0.516,0.616-0.951,1.182-1.309,1.694c-0.359,0.515-0.59,0.719-0.691,0.615
			c-0.815,0.207-2.276,1.566-4.379,4.081c-2.1,2.518-3.969,4.596-5.606,6.235l-0.613,0.924c-0.82,0.616-1.588,1.026-2.305,1.231
			l-2.769,2.311c-1.022-0.616-1.64-0.924-1.842-0.924c-0.207,0-0.644,0.41-1.308,1.23c-0.666,0.823-2,1.875-3.996,3.156
			c-1.996,1.285-3.508,2.748-4.53,4.389l-2.457,2.465l-3.228,0.461c-0.309,0-0.82,0.463-1.537,1.387l-2.766,3.541
			c-1.332,1.747-3.434,2.618-6.301,2.618c-0.615,0-1.41-0.539-2.381-1.617c-0.973-1.078-1.895-2.002-2.766-2.771
			c-0.871-0.77-2.818-3.08-5.847-6.93c-3.028-3.85-4.537-5.875-4.537-6.082l0.924-5.39l-0.309-3.695
			c0-0.717,0.486-1.821,1.463-3.312c0.975-1.485,1.463-2.282,1.463-2.387l-0.309-6.005c0.205-0.204,0.41-0.513,0.617-0.924
			l2.154-3.541c-0.207-1.025-0.307-2.156-0.307-3.388l0.615-5.081c-1.848,0.823-3.467,2.49-4.852,5.004
			c-1.387,2.517-3.211,3.772-5.467,3.772c-1.953,3.491-3.443,5.185-4.469,5.081c-0.41,0.412-0.719,0.823-0.924,1.232l-2.154,1.231
			l-2.617-0.308l-0.928,3.849c-2.259,1.232-3.721,2.338-4.388,3.312c-0.669,0.978-1.72,1.978-3.157,3.003l-2.62,2.464h-2.464
			c-0.411,2.771-2.004,5.081-4.775,6.929l-1.232,1.541l-2.771-0.31c-1.027,3.286-2.312,5.288-3.852,6.005
			c-1.747,0-4.133,1.594-7.162,4.773c-3.029,3.184-5.158,4.772-6.39,4.772c-8.935,0-16.172-5.594-21.715-16.782
			c-0.207-0.41-0.693-1.18-1.463-2.311c-0.77-1.129-1.155-2.873-1.155-5.234c0-4.004,0.539-6.723,1.617-8.162
			c1.078-1.436,2.463-4.13,4.157-8.083c1.693-3.951,2.949-5.671,3.772-5.158c0.204-0.409,0.308-1.025,0.308-1.849
			c1.641-1.948,2.464-3.438,2.464-4.465c0-0.409-0.207-0.616-0.616-0.616c-0.207,0-0.823,0.308-1.848,0.924l-2.165,0.924
			c-0.929,0.207-1.6,0.616-2.011,1.232c-0.414,0.616-1.136,1.208-2.168,1.771c-1.032,0.565-1.857,1.054-2.473,1.463h-0.464
			c-0.621-0.615-1.032-0.924-1.239-0.924c-0.621,1.644-1.136,2.671-1.547,3.079l-1.857,0.309c-2.271,2.362-3.715,3.541-4.333,3.541
			c-0.414,0-1.343-0.358-2.786-1.077c-1.443-0.718-2.166-1.437-2.166-2.156l1.083-6.005v-2.771c0-0.205,0.411-0.616,1.236-1.232
			c0.207,0,1.032-1.102,2.476-3.311C173.448,141.2,175.149,140.095,177.107,140.095z"/>
		<path fill="#FFFFFF" d="M348.902,127.777l2.311-0.616l0.924-2.002c5.027-2.976,8.623-5.798,10.779-8.469
			c0.205-0.409,0.668-0.82,1.387-1.231c0.717-0.409,1.486-1.128,2.312-2.156c3.795-3.796,8.313-5.697,13.549-5.697
			c6.158,0,9.443,3.749,9.854,11.24l0.925,2.31c0.821,1.438,1.977,4.364,3.465,8.777c1.488,4.415,2.231,7.136,2.231,8.161
			c0,2.771-0.873,5.543-2.616,8.314c-1.438,0.72-4.878,4.569-10.316,11.548l-1.539,1.078c-0.822,1.848-1.9,3.695-3.234,5.543
			c-2.055,0.72-3.078,1.489-3.078,2.31v2.771c0,0.207-0.231,0.615-0.692,1.232c-0.463,0.615-1.105,1.797-1.926,3.541l-1.23,1.848
			c-0.412,0.412-0.824,1.259-1.231,2.541c-0.412,1.283-1,2.438-1.771,3.464c-0.77,1.026-1.154,1.849-1.154,2.464
			c0,1.54,2.002,2.311,6.007,2.311c0.202,0,0.975-0.309,2.309-0.925l2.156,0.616c0.205,0,0.717-0.332,1.539-1.001
			c0.819-0.666,2.08-1.205,3.772-1.616c1.693-0.408,3.18-1.025,4.465-1.849c1.283-0.82,2.822-1.539,4.617-2.155
			c1.795-0.615,3.517-1.615,5.158-3.003c1.641-1.386,3.258-2.386,4.85-3.002c1.59-0.616,3.08-1.563,4.465-2.849
			c1.388-1.282,2.951-2.487,4.697-3.618c1.744-1.13,4.517-3.592,8.314-7.391c2.461-1.949,4.153-3.027,5.078-3.234
			c0.205,0,1.102-1.358,2.694-4.08c1.59-2.718,3.412-4.08,5.468-4.08c2.153,0,3.231,1.027,3.231,3.079
			c0,1.131-0.514,2.209-1.539,3.233v0.924l0.308,2.464c0.204,0.309,0.309,0.771,0.309,1.386c0,0.411-0.385,1.027-1.154,1.848
			c-0.77,0.823-1.309,1.874-1.617,3.157c-0.309,1.284-1.28,2.131-2.924,2.54c-0.615,2.259-1.412,3.541-2.385,3.851
			c-0.979,0.308-2.338,1.334-4.082,3.078c-1.746,1.747-4.209,3.799-7.391,6.159c-3.181,2.362-5.361,4.185-6.541,5.466
			c-1.183,1.285-1.979,1.926-2.388,1.926c-0.207,0-0.614-0.205-1.231-0.615c-0.615-0.409-1.027-0.616-1.23-0.616
			c-0.617,0-1.024,0.72-1.229,2.155l-0.615,1.539c-1.336,0.824-2.104,1.231-2.311,1.231l-0.925-0.308h-0.614
			c-1.232,0-1.849,0.462-1.849,1.386l0.924,1.54v0.309c0,1.438-0.821,2.155-2.463,2.155c-1.131,0-4.416,1.9-9.854,5.696
			l-4.465,0.924l-3.693,2.002c-1.229-0.717-2.002-1.078-2.309-1.078l-2.465,0.771l-4.466,0.308c-0.104,0-1.977-1.024-5.618-3.079
			c-3.644-2.053-5.824-4.104-6.544-6.158c-0.719-2.054-1.643-4.131-2.771-6.236c-1.131-2.104-1.693-3.565-1.693-4.389
			c0-4.928,0.41-8.441,1.232-10.547c0.82-2.104,1.332-3.67,1.539-4.697c0.205-1.023,0.795-2.129,1.771-3.311
			c0.976-1.179,1.771-3.104,2.388-5.773c2.977-5.952,5.026-9.598,6.157-10.933c1.13-1.333,2.002-2.976,2.617-4.927l2.002-2.771
			c0.205-0.205,0.515-1.001,0.924-2.387c0.41-1.386,0.925-2.18,1.541-2.387c0.82-1.436,1.23-2.36,1.23-2.771
			c0-2.976-1.334-4.465-4.002-4.465c-0.516,0-1.078,0.539-1.695,1.617c-0.615,1.078-2.026,2.132-4.233,3.157
			c-2.207,1.027-3.566,1.797-4.08,2.31c-0.515,0.515-1.619,1.155-3.312,1.925c-1.692,0.77-3.156,1.978-4.389,3.618l-2.617,1.232
			c-0.822,1.951-1.541,3.029-2.158,3.233c-0.615,0.207-2.516,0.719-5.696,1.54c-0.207,0.104-0.72,0.72-1.541,1.848
			c-0.824,1.131-2.003,1.693-3.543,1.693c-1.23,1.232-2.466,2.671-3.697,4.312c-0.41,0-1.488,0.412-3.232,1.232l-3.082,0.77
			c-0.823,0.616-1.721,1.593-2.694,2.926c-0.978,1.335-2.798,2.002-5.47,2.002c-1.539,0-2.309-1.232-2.309-3.695
			c0-5.028,1.77-9.032,5.312-12.011c3.541-2.976,6.132-4.566,7.775-4.773c1.643-0.205,2.67-0.82,3.082-1.848
			c0.408-1.025,1.408-1.872,3.002-2.541c1.59-0.667,3.438-2.156,5.543-4.465c2.104-2.31,4.389-3.874,6.853-4.696L348.902,127.777z"
			/>
		<path fill="#FFFFFF" d="M411.758,243.721l1.541-3.388l0.924-3.849c0-0.412,0.488-1.027,1.463-1.849
			c0.978-0.823,1.464-1.54,1.464-2.155c2.463-9.547,4.979-16.066,7.543-19.556l3.696-9.237c0.41-2.054,1.361-3.695,2.849-4.929
			c1.487-1.231,2.231-2.31,2.231-3.233c0-0.615-1.051-1.512-3.156-2.693c-2.104-1.18-3.155-2.283-3.155-3.311
			c0-1.025,3.387-3.026,10.162-6.006c0-2.873,1.539-5.9,4.618-9.084c0.718-0.615,1.078-1.334,1.078-2.156
			c0-2.463,0.513-4.465,1.539-6.004l1.232-3.542c0.408-1.231,1.256-2.591,2.541-4.08c1.281-1.487,1.924-2.949,1.924-4.389v-1.231
			c-1.336-0.102-3.232,1.644-5.697,5.235c-2.565,0-4.672,1.9-6.312,5.697c-0.822,2.155-2.722,3.541-5.697,4.157
			c-1.332,2.463-3.541,4.157-6.621,5.081c-2.18-1.333-3.27-2.465-3.27-3.389l1.389-9.545c0-2.156,5.242-7.546,15.723-16.168
			c0.615,0,2.619-1.949,6.013-5.851l8.479-9.546c4.623-4.619,8.117-8.007,10.48-10.162c4.412-6.979,6.621-11.599,6.621-13.858
			c2.051-1.848,3.821-5.671,5.311-11.471c1.488-5.798,2.873-10.008,4.158-12.626c1.281-2.618,2.024-4.542,2.231-5.774
			c4.104-12.419,7.134-20.221,9.084-23.404l1.541-5.082l2.31-1.848c0.205-0.512,0.41-2.103,0.617-4.773
			c1.127-0.409,2.309-2.668,3.541-6.775c1.229-4.104,2.463-6.929,3.694-8.469c1.23-1.54,2.052-3.157,2.463-4.85
			c0.41-1.694,1.668-3.388,3.773-5.082c2.102-1.693,4.234-2.541,6.389-2.541c0.718,0,1.927,1.054,3.619,3.157
			c1.693,2.105,2.719,4.518,3.08,7.237c0.357,2.721,0.639,4.568,0.846,5.543c0.205,0.977,0.31,2.286,0.31,3.926l0.309,4.465
			c0,0.823-0.412,3.44-1.231,7.853c-0.822,4.415-1.412,7.571-1.771,9.469c-0.36,1.901-1.412,3.157-3.155,3.772
			c-1.746,0.616-2.617,1.232-2.617,1.848s0.408,1.104,1.231,1.463c0.82,0.361,1.23,0.642,1.23,0.847
			c0,0.412-0.592,1.771-1.771,4.081c-1.182,2.31-2.287,3.772-3.311,4.388c0.615,1.232,0.924,1.951,0.924,2.156
			c0,0.515-0.746,2.131-2.232,4.85c-1.489,2.721-2.694,4.542-3.618,5.466c-0.925,0.924-1.849,3.029-2.771,6.313
			c-0.924,3.286-3.287,6.058-7.082,8.314c-1.438,1.439-2.695,3.799-3.772,7.083c-1.078,3.286-2.646,5.338-4.695,6.159l-2.002,2.926
			v0.616c0,1.54-0.517,3.233-1.541,5.082c-1.027,1.848-2.055,4.03-3.078,6.544c-1.027,2.516-2.002,4.184-2.926,5.004
			c-0.412,2.363-1.131,4.492-2.156,6.39c-1.027,1.9-1.643,3.568-1.848,5.004l-1.078,1.232c-2.056,0.308-3.078,1.285-3.078,2.926
			l0.615,3.387c0,0.104-0.925,1.797-2.771,5.082l-0.617,3.079c-0.514,2.567-1.487,4.287-2.924,5.158
			c-1.438,0.873-2.363,2.798-2.771,5.774l-0.617,3.694c0,0.207,0.102,0.516,0.309,0.924c0.205,0,0.82-0.562,1.849-1.692
			c1.434,0.515,2.254,0.771,2.461,0.771c0.614,0,1.205-0.437,1.768-1.31c0.564-0.871,1.461-1.514,2.693-1.925l0.614-0.309
			c0.515-1.437,1.283-2.207,2.308-2.311c1.024-0.102,1.897-0.589,2.615-1.462c0.719-0.871,1.282-1.31,1.694-1.31
			c0.203,0,0.924,0.412,2.154,1.232h0.309l1.384-0.616l-0.308-2.464c0-1.024,0.459-1.693,1.383-2.001
			c0.925-0.309,1.591-0.821,2.002-1.54l5.693-3.695c2.459-1.025,4.281-2.13,5.459-3.311c1.18-1.179,2.463-2.026,3.848-2.541
			c1.388-0.512,2.462-1.155,3.23-1.924c0.771-0.77,2.488-1.256,5.156-1.463c2.975-2.564,5.282-4.312,6.924-5.235l1.231-1.693
			c0.205-0.205,0.613-0.409,1.229-0.616c0.617-0.205,1.41-0.82,2.385-1.848c0.976-1.025,1.871-1.54,2.695-1.54
			c2.049,0,3.076,1.027,3.076,3.08c0,3.387-1.539,6.108-4.613,8.161l-0.309,0.462c-0.513,4.106-1.796,6.159-3.847,6.159
			c-0.41,0-1.127,0.873-2.151,2.617c-1.13-0.204-1.795-0.308-2-0.308c-0.82,1.231-1.845,2.362-3.076,3.387h-0.922
			c-1.642,0-8.254,4.773-19.843,14.32c-0.614,0.615-1.127,1.026-1.536,1.23l-2.923-0.309c0,0.207-0.616,1.231-1.846,3.08
			c-1.539,0.516-3.229,1.488-5.078,2.926c-1.848,1.438-3.207,2.361-4.078,2.771c-0.873,0.411-1.67,1.104-2.387,2.079
			c-0.721,0.977-1.693,1.669-2.926,2.078l-2.002,1.848h-0.924c-0.822,0-1.824,0.516-3.002,1.541
			c-1.183,1.026-1.771,2.002-1.771,2.926c0,0.41,0.463,1.23,1.387,2.463c0.82-0.615,3.695,2.49,8.621,9.315
			c4.929,6.827,7.392,13.369,7.392,19.632c0,4.619-0.695,7.621-2.08,9.008c-1.388,1.386-2.078,2.387-2.078,3.002
			c0,0.41,0.154,1.591,0.463,3.541v0.617c0,1.024-0.592,1.641-1.771,1.848c-1.183,0.203-1.875,0.615-2.08,1.23v3.851l-0.615,1.848
			c-1.336,0.717-2.721,3.13-4.16,7.237c-3.08,3.181-5.287,4.978-6.621,5.389l-0.307,0.616l0.307,4.157
			c0,1.024-0.463,1.848-1.387,2.464c-0.926,0.614-2.185,1.925-3.773,3.926c-1.592,2.002-3.209,3.412-4.854,4.233
			c-0.41,1.949-1.207,3.336-2.385,4.158c-1.183,0.82-2.388,2.002-3.619,3.541l-0.927,0.616c-0.924,0.204-1.797,1.332-2.618,3.388
			l-1.23,0.309c-1.438,2.463-2.852,4.234-4.236,5.312c-1.387,1.078-2.387,2.078-3.004,3.002l-2.463,1.541
			c-0.924,1.848-2.822,3.949-5.699,6.312c-0.205,0-0.616-0.308-1.231-0.924h-0.461c-0.41,0-0.771,0.409-1.078,1.231
			c-0.31,0.82-0.871,1.59-1.693,2.309c-0.819,0.719-1.643,1.746-2.465,3.08l-0.615,0.617c-1.334,0-3.438,1.793-6.312,5.389
			c-1.949,0.408-3.644,1.128-5.082,2.154c-2.156,2.465-3.644,3.696-4.465,3.696c-0.103,0-1.232-0.848-3.39-2.541
			c-2.153-1.692-3.231-4.389-3.231-8.084c0-0.924-0.615-2.001-1.848-3.233c-0.205-1.131-0.41-2.771-0.615-4.926v-1.387
			c0-1.232,0.41-2.671,1.229-4.312l0.924-3.232c0.207-0.823,0.517-1.489,0.925-2.002c0.412-0.516,1.002-1.979,1.771-4.389
			c0.771-2.414,1.67-4.799,2.693-7.159l0.309-1.54c1.131-4.928,2.056-7.34,2.771-7.236c0.614-1.54,1.231-3.595,1.848-6.158
			c0.617-2.567,1.055-4.674,1.309-6.313c0.259-1.644,1.003-2.979,2.232-4.003L411.758,243.721z M443.664,214.157l0.617,6.62
			c0,0.41-0.849,2.388-2.541,5.929c-1.693,3.542-2.799,6.392-3.312,8.546c-0.516,2.156-1.643,3.232-3.387,3.232h-1.541
			c-0.207,0.41-0.307,0.82-0.307,1.232l0.307,3.387c0,1.334-0.359,3.696-1.078,7.084c-0.717,3.388-1.744,5.543-3.078,6.467
			l-0.924,1.078c-0.205,1.539-1.002,3.977-2.387,7.313c-1.387,3.334-2.541,5.951-3.465,7.853c-0.925,1.898-1.642,4.259-2.156,7.084
			c-0.512,2.82-1.178,4.643-2.002,5.466c-0.615,2.872-1.23,5.259-1.848,7.159c-0.615,1.897-1.386,4.438-2.31,7.621
			c0.207,0.41,0.514,0.617,0.924,0.617c0.615,0,1.386-1.132,2.31-3.389c0.412-0.411,1.104-0.691,2.08-0.848
			c0.977-0.153,1.821-1.258,2.539-3.311l0.309-0.615c1.131-0.207,1.951-0.797,2.465-1.771c0.514-0.977,1.076-1.566,1.693-1.771
			c0.614-0.207,1.334-0.72,2.153-1.539l1.078-0.309c0.412-0.207,0.771-0.77,1.078-1.693c0.309-0.923,0.67-1.644,1.078-2.156h2.156
			l0.615-0.308c0.819-3.286,1.819-5.416,3.002-6.391c1.18-0.978,2.08-2.131,2.694-3.464c0.615-1.335,1.359-2.362,2.232-3.08
			c0.871-0.719,1.514-2.055,1.924-4.003c1.848-2.155,3.029-3.851,3.545-5.081c0.512-1.23,1.232-2.26,2.158-3.08l0.309-1.077
			l-0.618-1.848v-0.616c0-0.822,1.204-2.875,3.62-6.159c2.412-3.286,3.929-6.03,4.546-8.237c0.614-2.209,1.18-3.979,1.694-5.312
			c0.512-1.335,0.924-2.849,1.232-4.542c0.307-1.693,0.871-3.08,1.692-4.157c0.822-1.077,1.234-2.541,1.234-4.389
			c0-3.183-1.439-7.185-4.314-12.011c-0.207-0.204-0.409-0.819-0.614-1.848c-0.207-1.025-1.207-2.231-3.006-3.617
			c-1.8-1.387-3.107-2.08-3.929-2.08l-1.231,0.617c-0.207,0.207-0.851,0.514-1.927,0.924c-1.077,0.41-1.616,1.386-1.616,2.925v0.616
			l0.307,3.388C447.67,211.54,446.336,212.723,443.664,214.157z"/>
	</g>
</g>
</svg>
